<?xml version="1.0" encoding="UTF-8" standalone="no"?>
<!DOCTYPE svg PUBLIC "-//W3C//DTD SVG 1.1//EN"
 "http://www.w3.org/Graphics/SVG/1.1/DTD/svg11.dtd">
<!-- Generated by graphviz version 2.48.0 (20210717.1556)
 -->
<!-- Title: G Pages: 1 -->
<svg width="2043pt" height="46pt"
 viewBox="0.00 0.00 2043.00 46.00" xmlns="http://www.w3.org/2000/svg" xmlns:xlink="http://www.w3.org/1999/xlink">
<g id="graph0" class="graph" transform="scale(1 1) rotate(0) translate(4 42)">
<title>G</title>
<polygon fill="white" stroke="transparent" points="-4,4 -4,-42 2039,-42 2039,4 -4,4"/>
<!-- carne -->
<g id="node1" class="node">
<title>carne</title>
<polygon fill="none" stroke="black" points="77,-37 0,-37 0,-1 77,-1 77,-37"/>
<text text-anchor="middle" x="38.5" y="-15.3" font-family="Times New Roman,serif" font-size="14.00">201709702</text>
</g>
<!-- nodo_1 -->
<g id="node2" class="node">
<title>nodo_1</title>
<polygon fill="none" stroke="black" points="301,-38 113,-38 113,0 301,0 301,-38"/>
<text text-anchor="middle" x="207" y="-22.8" font-family="Times New Roman,serif" font-size="14.00">Apunte 0</text>
<text text-anchor="middle" x="207" y="-7.8" font-family="Times New Roman,serif" font-size="14.00">Multi&#45;lateral explicit installation</text>
</g>
<!-- carne&#45;&gt;nodo_1 -->
<g id="edge1" class="edge">
<title>carne&#45;&gt;nodo_1</title>
<path fill="none" stroke="black" d="M87.48,-19C92.36,-19 97.44,-19 102.64,-19"/>
<polygon fill="black" stroke="black" points="87.28,-15.5 77.28,-19 87.28,-22.5 87.28,-15.5"/>
<polygon fill="black" stroke="black" points="102.74,-22.5 112.74,-19 102.74,-15.5 102.74,-22.5"/>
</g>
<!-- nodo_2 -->
<g id="node3" class="node">
<title>nodo_2</title>
<polygon fill="none" stroke="black" points="504,-38 337,-38 337,0 504,0 504,-38"/>
<text text-anchor="middle" x="420.5" y="-22.8" font-family="Times New Roman,serif" font-size="14.00">Apunte 1</text>
<text text-anchor="middle" x="420.5" y="-7.8" font-family="Times New Roman,serif" font-size="14.00">Realigned static encryption</text>
</g>
<!-- nodo_1&#45;&gt;nodo_2 -->
<g id="edge2" class="edge">
<title>nodo_1&#45;&gt;nodo_2</title>
<path fill="none" stroke="black" d="M311.12,-19C316.21,-19 321.31,-19 326.37,-19"/>
<polygon fill="black" stroke="black" points="311.07,-15.5 301.07,-19 311.07,-22.5 311.07,-15.5"/>
<polygon fill="black" stroke="black" points="326.69,-22.5 336.69,-19 326.69,-15.5 326.69,-22.5"/>
</g>
<!-- nodo_3 -->
<g id="node4" class="node">
<title>nodo_3</title>
<polygon fill="none" stroke="black" points="745,-38 540,-38 540,0 745,0 745,-38"/>
<text text-anchor="middle" x="642.5" y="-22.8" font-family="Times New Roman,serif" font-size="14.00">Apunte 2</text>
<text text-anchor="middle" x="642.5" y="-7.8" font-family="Times New Roman,serif" font-size="14.00">Expanded attitude&#45;oriented model</text>
</g>
<!-- nodo_2&#45;&gt;nodo_3 -->
<g id="edge3" class="edge">
<title>nodo_2&#45;&gt;nodo_3</title>
<path fill="none" stroke="black" d="M514.29,-19C519.45,-19 524.67,-19 529.88,-19"/>
<polygon fill="black" stroke="black" points="514.05,-15.5 504.05,-19 514.05,-22.5 514.05,-15.5"/>
<polygon fill="black" stroke="black" points="529.91,-22.5 539.91,-19 529.91,-15.5 529.91,-22.5"/>
</g>
<!-- nodo_4 -->
<g id="node5" class="node">
<title>nodo_4</title>
<polygon fill="none" stroke="black" points="1039,-38 781,-38 781,0 1039,0 1039,-38"/>
<text text-anchor="middle" x="910" y="-22.8" font-family="Times New Roman,serif" font-size="14.00">Apunte 3</text>
<text text-anchor="middle" x="910" y="-7.8" font-family="Times New Roman,serif" font-size="14.00">Mandatory well&#45;modulated internet solution</text>
</g>
<!-- nodo_3&#45;&gt;nodo_4 -->
<g id="edge4" class="edge">
<title>nodo_3&#45;&gt;nodo_4</title>
<path fill="none" stroke="black" d="M755.24,-19C760.39,-19 765.58,-19 770.78,-19"/>
<polygon fill="black" stroke="black" points="755.01,-15.5 745.01,-19 755.01,-22.5 755.01,-15.5"/>
<polygon fill="black" stroke="black" points="770.78,-22.5 780.78,-19 770.78,-15.5 770.78,-22.5"/>
</g>
<!-- nodo_5 -->
<g id="node6" class="node">
<title>nodo_5</title>
<polygon fill="none" stroke="black" points="1287,-38 1075,-38 1075,0 1287,0 1287,-38"/>
<text text-anchor="middle" x="1181" y="-22.8" font-family="Times New Roman,serif" font-size="14.00">Apunte 4</text>
<text text-anchor="middle" x="1181" y="-7.8" font-family="Times New Roman,serif" font-size="14.00">Organic well&#45;modulated groupware</text>
</g>
<!-- nodo_4&#45;&gt;nodo_5 -->
<g id="edge5" class="edge">
<title>nodo_4&#45;&gt;nodo_5</title>
<path fill="none" stroke="black" d="M1049.25,-19C1054.34,-19 1059.42,-19 1064.46,-19"/>
<polygon fill="black" stroke="black" points="1049.2,-15.5 1039.2,-19 1049.2,-22.5 1049.2,-15.5"/>
<polygon fill="black" stroke="black" points="1064.75,-22.5 1074.75,-19 1064.75,-15.5 1064.75,-22.5"/>
</g>
<!-- nodo_6 -->
<g id="node7" class="node">
<title>nodo_6</title>
<polygon fill="none" stroke="black" points="1529,-38 1323,-38 1323,0 1529,0 1529,-38"/>
<text text-anchor="middle" x="1426" y="-22.8" font-family="Times New Roman,serif" font-size="14.00">Apunte 5</text>
<text text-anchor="middle" x="1426" y="-7.8" font-family="Times New Roman,serif" font-size="14.00">Balanced 5th generation capability</text>
</g>
<!-- nodo_5&#45;&gt;nodo_6 -->
<g id="edge6" class="edge">
<title>nodo_5&#45;&gt;nodo_6</title>
<path fill="none" stroke="black" d="M1297.44,-19C1302.46,-19 1307.49,-19 1312.5,-19"/>
<polygon fill="black" stroke="black" points="1297.17,-15.5 1287.17,-19 1297.17,-22.5 1297.17,-15.5"/>
<polygon fill="black" stroke="black" points="1312.74,-22.5 1322.74,-19 1312.74,-15.5 1312.74,-22.5"/>
</g>
<!-- nodo_7 -->
<g id="node8" class="node">
<title>nodo_7</title>
<polygon fill="none" stroke="black" points="1810,-38 1565,-38 1565,0 1810,0 1810,-38"/>
<text text-anchor="middle" x="1687.5" y="-22.8" font-family="Times New Roman,serif" font-size="14.00">Apunte 6</text>
<text text-anchor="middle" x="1687.5" y="-7.8" font-family="Times New Roman,serif" font-size="14.00">Enterprise&#45;wide real&#45;time data&#45;warehouse</text>
</g>
<!-- nodo_6&#45;&gt;nodo_7 -->
<g id="edge7" class="edge">
<title>nodo_6&#45;&gt;nodo_7</title>
<path fill="none" stroke="black" d="M1539.34,-19C1544.31,-19 1549.32,-19 1554.33,-19"/>
<polygon fill="black" stroke="black" points="1539.19,-15.5 1529.19,-19 1539.19,-22.5 1539.19,-15.5"/>
<polygon fill="black" stroke="black" points="1554.61,-22.5 1564.61,-19 1554.61,-15.5 1554.61,-22.5"/>
</g>
<!-- nodo_8 -->
<g id="node9" class="node">
<title>nodo_8</title>
<polygon fill="none" stroke="black" points="2035,-38 1846,-38 1846,0 2035,0 2035,-38"/>
<text text-anchor="middle" x="1940.5" y="-22.8" font-family="Times New Roman,serif" font-size="14.00">Apunte 7</text>
<text text-anchor="middle" x="1940.5" y="-7.8" font-family="Times New Roman,serif" font-size="14.00">Programmable holistic product</text>
</g>
<!-- nodo_7&#45;&gt;nodo_8 -->
<g id="edge8" class="edge">
<title>nodo_7&#45;&gt;nodo_8</title>
<path fill="none" stroke="black" d="M1820.44,-19C1825.56,-19 1830.65,-19 1835.7,-19"/>
<polygon fill="black" stroke="black" points="1820.32,-15.5 1810.32,-19 1820.32,-22.5 1820.32,-15.5"/>
<polygon fill="black" stroke="black" points="1835.99,-22.5 1845.99,-19 1835.99,-15.5 1835.99,-22.5"/>
</g>
</g>
</svg>
