<?xml version="1.0" encoding="UTF-8" standalone="no"?>
<!DOCTYPE svg PUBLIC "-//W3C//DTD SVG 1.1//EN"
 "http://www.w3.org/Graphics/SVG/1.1/DTD/svg11.dtd">
<!-- Generated by graphviz version 2.48.0 (20210717.1556)
 -->
<!-- Title: G Pages: 1 -->
<svg width="452pt" height="46pt"
 viewBox="0.00 0.00 452.00 46.00" xmlns="http://www.w3.org/2000/svg" xmlns:xlink="http://www.w3.org/1999/xlink">
<g id="graph0" class="graph" transform="scale(1 1) rotate(0) translate(4 42)">
<title>G</title>
<polygon fill="white" stroke="transparent" points="-4,4 -4,-42 448,-42 448,4 -4,4"/>
<!-- nodo_1 -->
<g id="node1" class="node">
<title>nodo_1</title>
<polygon fill="none" stroke="black" points="124,-38 0,-38 0,0 124,0 124,-38"/>
<text text-anchor="middle" x="62" y="-22.8" font-family="Times New Roman,serif" font-size="14.00">TITULO2</text>
<text text-anchor="middle" x="62" y="-7.8" font-family="Times New Roman,serif" font-size="14.00">esto es un apunte 2</text>
</g>
<!-- nodo_2 -->
<g id="node2" class="node">
<title>nodo_2</title>
<polygon fill="none" stroke="black" points="284,-38 160,-38 160,0 284,0 284,-38"/>
<text text-anchor="middle" x="222" y="-22.8" font-family="Times New Roman,serif" font-size="14.00">TITULO2</text>
<text text-anchor="middle" x="222" y="-7.8" font-family="Times New Roman,serif" font-size="14.00">esto es un apunte 2</text>
</g>
<!-- nodo_1&#45;&gt;nodo_2 -->
<g id="edge1" class="edge">
<title>nodo_1&#45;&gt;nodo_2</title>
<path fill="none" stroke="black" d="M124.09,-19C132.51,-19 141.23,-19 149.81,-19"/>
<polygon fill="black" stroke="black" points="149.82,-22.5 159.82,-19 149.82,-15.5 149.82,-22.5"/>
</g>
<!-- nodo_3 -->
<g id="node3" class="node">
<title>nodo_3</title>
<polygon fill="none" stroke="black" points="444,-38 320,-38 320,0 444,0 444,-38"/>
<text text-anchor="middle" x="382" y="-22.8" font-family="Times New Roman,serif" font-size="14.00">TITULO2</text>
<text text-anchor="middle" x="382" y="-7.8" font-family="Times New Roman,serif" font-size="14.00">esto es un apunte 2</text>
</g>
<!-- nodo_2&#45;&gt;nodo_3 -->
<g id="edge2" class="edge">
<title>nodo_2&#45;&gt;nodo_3</title>
<path fill="none" stroke="black" d="M284.09,-19C292.51,-19 301.23,-19 309.81,-19"/>
<polygon fill="black" stroke="black" points="309.82,-22.5 319.82,-19 309.82,-15.5 309.82,-22.5"/>
</g>
</g>
</svg>
