<?xml version="1.0" encoding="UTF-8" standalone="no"?>
<!DOCTYPE svg PUBLIC "-//W3C//DTD SVG 1.1//EN"
 "http://www.w3.org/Graphics/SVG/1.1/DTD/svg11.dtd">
<!-- Generated by graphviz version 2.48.0 (20210717.1556)
 -->
<!-- Title: G Pages: 1 -->
<svg width="991pt" height="46pt"
 viewBox="0.00 0.00 991.00 46.00" xmlns="http://www.w3.org/2000/svg" xmlns:xlink="http://www.w3.org/1999/xlink">
<g id="graph0" class="graph" transform="scale(1 1) rotate(0) translate(4 42)">
<title>G</title>
<polygon fill="white" stroke="transparent" points="-4,4 -4,-42 987,-42 987,4 -4,4"/>
<!-- carne -->
<g id="node1" class="node">
<title>carne</title>
<polygon fill="none" stroke="black" points="77,-37 0,-37 0,-1 77,-1 77,-37"/>
<text text-anchor="middle" x="38.5" y="-15.3" font-family="Times New Roman,serif" font-size="14.00">201412244</text>
</g>
<!-- nodo_1 -->
<g id="node2" class="node">
<title>nodo_1</title>
<polygon fill="none" stroke="black" points="330,-38 113,-38 113,0 330,0 330,-38"/>
<text text-anchor="middle" x="221.5" y="-22.8" font-family="Times New Roman,serif" font-size="14.00">Apunte 0</text>
<text text-anchor="middle" x="221.5" y="-7.8" font-family="Times New Roman,serif" font-size="14.00">Distributed web&#45;enabled application</text>
</g>
<!-- carne&#45;&gt;nodo_1 -->
<g id="edge1" class="edge">
<title>carne&#45;&gt;nodo_1</title>
<path fill="none" stroke="black" d="M87.25,-19C92.17,-19 97.31,-19 102.58,-19"/>
<polygon fill="black" stroke="black" points="87,-15.5 77,-19 87,-22.5 87,-15.5"/>
<polygon fill="black" stroke="black" points="102.88,-22.5 112.88,-19 102.87,-15.5 102.88,-22.5"/>
</g>
<!-- nodo_2 -->
<g id="node3" class="node">
<title>nodo_2</title>
<polygon fill="none" stroke="black" points="533,-38 366,-38 366,0 533,0 533,-38"/>
<text text-anchor="middle" x="449.5" y="-22.8" font-family="Times New Roman,serif" font-size="14.00">Apunte 1</text>
<text text-anchor="middle" x="449.5" y="-7.8" font-family="Times New Roman,serif" font-size="14.00">Switchable local projection</text>
</g>
<!-- nodo_1&#45;&gt;nodo_2 -->
<g id="edge2" class="edge">
<title>nodo_1&#45;&gt;nodo_2</title>
<path fill="none" stroke="black" d="M340.28,-19C345.38,-19 350.46,-19 355.49,-19"/>
<polygon fill="black" stroke="black" points="340.2,-15.5 330.2,-19 340.2,-22.5 340.2,-15.5"/>
<polygon fill="black" stroke="black" points="355.72,-22.5 365.72,-19 355.72,-15.5 355.72,-22.5"/>
</g>
<!-- nodo_3 -->
<g id="node4" class="node">
<title>nodo_3</title>
<polygon fill="none" stroke="black" points="742,-38 569,-38 569,0 742,0 742,-38"/>
<text text-anchor="middle" x="655.5" y="-22.8" font-family="Times New Roman,serif" font-size="14.00">Apunte 2</text>
<text text-anchor="middle" x="655.5" y="-7.8" font-family="Times New Roman,serif" font-size="14.00">Versatile responsive intranet</text>
</g>
<!-- nodo_2&#45;&gt;nodo_3 -->
<g id="edge3" class="edge">
<title>nodo_2&#45;&gt;nodo_3</title>
<path fill="none" stroke="black" d="M543.41,-19C548.41,-19 553.45,-19 558.46,-19"/>
<polygon fill="black" stroke="black" points="543.18,-15.5 533.18,-19 543.18,-22.5 543.18,-15.5"/>
<polygon fill="black" stroke="black" points="558.71,-22.5 568.71,-19 558.71,-15.5 558.71,-22.5"/>
</g>
<!-- nodo_4 -->
<g id="node5" class="node">
<title>nodo_4</title>
<polygon fill="none" stroke="black" points="983,-38 778,-38 778,0 983,0 983,-38"/>
<text text-anchor="middle" x="880.5" y="-22.8" font-family="Times New Roman,serif" font-size="14.00">Apunte 3</text>
<text text-anchor="middle" x="880.5" y="-7.8" font-family="Times New Roman,serif" font-size="14.00">Sharable maximized infrastructure</text>
</g>
<!-- nodo_3&#45;&gt;nodo_4 -->
<g id="edge4" class="edge">
<title>nodo_3&#45;&gt;nodo_4</title>
<path fill="none" stroke="black" d="M752.29,-19C757.29,-19 762.34,-19 767.39,-19"/>
<polygon fill="black" stroke="black" points="752.08,-15.5 742.08,-19 752.08,-22.5 752.08,-15.5"/>
<polygon fill="black" stroke="black" points="767.74,-22.5 777.74,-19 767.74,-15.5 767.74,-22.5"/>
</g>
</g>
</svg>
