<?xml version="1.0" encoding="UTF-8" standalone="no"?>
<!DOCTYPE svg PUBLIC "-//W3C//DTD SVG 1.1//EN"
 "http://www.w3.org/Graphics/SVG/1.1/DTD/svg11.dtd">
<!-- Generated by graphviz version 2.48.0 (20210717.1556)
 -->
<!-- Title: G Pages: 1 -->
<svg width="3658pt" height="152pt"
 viewBox="0.00 0.00 3657.50 152.00" xmlns="http://www.w3.org/2000/svg" xmlns:xlink="http://www.w3.org/1999/xlink">
<g id="graph0" class="graph" transform="scale(1 1) rotate(0) translate(4 148)">
<title>G</title>
<polygon fill="white" stroke="transparent" points="-4,4 -4,-148 3653.5,-148 3653.5,4 -4,4"/>
<!-- node0 -->
<g id="node1" class="node">
<title>node0</title>
<polygon fill="none" stroke="black" points="1762.5,-120.5 1762.5,-143.5 1951.5,-143.5 1951.5,-120.5 1762.5,-120.5"/>
<text text-anchor="middle" x="1772.5" y="-128.3" font-family="Times New Roman,serif" font-size="14.00"> </text>
<polyline fill="none" stroke="black" points="1782.5,-120.5 1782.5,-143.5 "/>
<text text-anchor="middle" x="1857" y="-128.3" font-family="Times New Roman,serif" font-size="14.00">348&#45;&#45;Quimica General 1</text>
<polyline fill="none" stroke="black" points="1931.5,-120.5 1931.5,-143.5 "/>
<text text-anchor="middle" x="1941.5" y="-128.3" font-family="Times New Roman,serif" font-size="14.00"> </text>
</g>
<!-- node1 -->
<g id="node2" class="node">
<title>node1</title>
<polygon fill="none" stroke="black" points="938,-60.5 938,-83.5 1320,-83.5 1320,-60.5 938,-60.5"/>
<text text-anchor="middle" x="948" y="-68.3" font-family="Times New Roman,serif" font-size="14.00"> </text>
<polyline fill="none" stroke="black" points="958,-60.5 958,-83.5 "/>
<text text-anchor="middle" x="1038.5" y="-68.3" font-family="Times New Roman,serif" font-size="14.00">101&#45;&#45;Matemática Básica 1</text>
<polyline fill="none" stroke="black" points="1119,-60.5 1119,-83.5 "/>
<text text-anchor="middle" x="1129" y="-68.3" font-family="Times New Roman,serif" font-size="14.00"> </text>
<polyline fill="none" stroke="black" points="1139,-60.5 1139,-83.5 "/>
<text text-anchor="middle" x="1219.5" y="-68.3" font-family="Times New Roman,serif" font-size="14.00">108&#45;&#45;Matemática Básica 1</text>
<polyline fill="none" stroke="black" points="1300,-60.5 1300,-83.5 "/>
<text text-anchor="middle" x="1310" y="-68.3" font-family="Times New Roman,serif" font-size="14.00"> </text>
</g>
<!-- node0&#45;&gt;node1 -->
<g id="edge4" class="edge">
<title>node0:f0&#45;&gt;node1</title>
<path fill="none" stroke="black" d="M1750.71,-131.97C1552.69,-130.99 1324.12,-101.95 1207.03,-85"/>
<polygon fill="black" stroke="black" points="1750.99,-135.47 1761,-132 1751.01,-128.47 1750.99,-135.47"/>
<polygon fill="black" stroke="black" points="1207.48,-81.53 1197.08,-83.55 1206.47,-88.45 1207.48,-81.53"/>
</g>
<!-- node5 -->
<g id="node6" class="node">
<title>node5</title>
<polygon fill="none" stroke="black" points="2104,-60.5 2104,-83.5 2786,-83.5 2786,-60.5 2104,-60.5"/>
<text text-anchor="middle" x="2114" y="-68.3" font-family="Times New Roman,serif" font-size="14.00"> </text>
<polyline fill="none" stroke="black" points="2124,-60.5 2124,-83.5 "/>
<text text-anchor="middle" x="2285.5" y="-68.3" font-family="Times New Roman,serif" font-size="14.00">770&#45;&#45;Introducción a la Programación y Computación 1</text>
<polyline fill="none" stroke="black" points="2447,-60.5 2447,-83.5 "/>
<text text-anchor="middle" x="2457" y="-68.3" font-family="Times New Roman,serif" font-size="14.00"> </text>
<polyline fill="none" stroke="black" points="2467,-60.5 2467,-83.5 "/>
<text text-anchor="middle" x="2616.5" y="-68.3" font-family="Times New Roman,serif" font-size="14.00">777&#45;&#45;Organización de Lenguajes y Compiladores 1</text>
<polyline fill="none" stroke="black" points="2766,-60.5 2766,-83.5 "/>
<text text-anchor="middle" x="2776" y="-68.3" font-family="Times New Roman,serif" font-size="14.00"> </text>
</g>
<!-- node0&#45;&gt;node5 -->
<g id="edge8" class="edge">
<title>node0:f1&#45;&gt;node5</title>
<path fill="none" stroke="black" d="M1963.41,-131.96C2116.19,-130.7 2291.04,-102.32 2382.21,-85.4"/>
<polygon fill="black" stroke="black" points="1962.99,-128.46 1953,-132 1963.01,-135.46 1962.99,-128.46"/>
<polygon fill="black" stroke="black" points="2382.92,-88.83 2392.1,-83.55 2381.63,-81.95 2382.92,-88.83"/>
</g>
<!-- node2 -->
<g id="node3" class="node">
<title>node2</title>
<polygon fill="none" stroke="black" points="0,-0.5 0,-23.5 698,-23.5 698,-0.5 0,-0.5"/>
<text text-anchor="middle" x="10" y="-8.3" font-family="Times New Roman,serif" font-size="14.00"> </text>
<polyline fill="none" stroke="black" points="20,-0.5 20,-23.5 "/>
<text text-anchor="middle" x="136.5" y="-8.3" font-family="Times New Roman,serif" font-size="14.00">5&#45;&#45;Técnicas de Estudio e Investigación</text>
<polyline fill="none" stroke="black" points="253,-0.5 253,-23.5 "/>
<text text-anchor="middle" x="263" y="-8.3" font-family="Times New Roman,serif" font-size="14.00"> </text>
<polyline fill="none" stroke="black" points="273,-0.5 273,-23.5 "/>
<text text-anchor="middle" x="354.5" y="-8.3" font-family="Times New Roman,serif" font-size="14.00">18&#45;&#45;Filosofia de la Ciencia</text>
<polyline fill="none" stroke="black" points="436,-0.5 436,-23.5 "/>
<text text-anchor="middle" x="446" y="-8.3" font-family="Times New Roman,serif" font-size="14.00"> </text>
<polyline fill="none" stroke="black" points="456,-0.5 456,-23.5 "/>
<text text-anchor="middle" x="506.5" y="-8.3" font-family="Times New Roman,serif" font-size="14.00">35&#45;&#45;Deportes 1</text>
<polyline fill="none" stroke="black" points="557,-0.5 557,-23.5 "/>
<text text-anchor="middle" x="567" y="-8.3" font-family="Times New Roman,serif" font-size="14.00"> </text>
<polyline fill="none" stroke="black" points="577,-0.5 577,-23.5 "/>
<text text-anchor="middle" x="627.5" y="-8.3" font-family="Times New Roman,serif" font-size="14.00">39&#45;&#45;Deportes 1</text>
<polyline fill="none" stroke="black" points="678,-0.5 678,-23.5 "/>
<text text-anchor="middle" x="688" y="-8.3" font-family="Times New Roman,serif" font-size="14.00"> </text>
</g>
<!-- node1&#45;&gt;node2 -->
<g id="edge1" class="edge">
<title>node1:f0&#45;&gt;node2</title>
<path fill="none" stroke="black" d="M926.85,-71.97C743,-70.93 531.19,-42.05 422.21,-25.1"/>
<polygon fill="black" stroke="black" points="926.99,-75.47 937,-72 927.01,-68.47 926.99,-75.47"/>
<polygon fill="black" stroke="black" points="422.73,-21.64 412.31,-23.55 421.65,-28.55 422.73,-21.64"/>
</g>
<!-- node3 -->
<g id="node4" class="node">
<title>node3</title>
<polygon fill="none" stroke="black" points="734.5,-0.5 734.5,-23.5 1137.5,-23.5 1137.5,-0.5 734.5,-0.5"/>
<text text-anchor="middle" x="744.5" y="-8.3" font-family="Times New Roman,serif" font-size="14.00"> </text>
<polyline fill="none" stroke="black" points="754.5,-0.5 754.5,-23.5 "/>
<text text-anchor="middle" x="835" y="-8.3" font-family="Times New Roman,serif" font-size="14.00">103&#45;&#45;Matemática Básica 2</text>
<polyline fill="none" stroke="black" points="915.5,-0.5 915.5,-23.5 "/>
<text text-anchor="middle" x="925.5" y="-8.3" font-family="Times New Roman,serif" font-size="14.00"> </text>
<polyline fill="none" stroke="black" points="935.5,-0.5 935.5,-23.5 "/>
<text text-anchor="middle" x="1026.5" y="-8.3" font-family="Times New Roman,serif" font-size="14.00">107&#45;&#45;Mátematica Intermedia 1</text>
<polyline fill="none" stroke="black" points="1117.5,-0.5 1117.5,-23.5 "/>
<text text-anchor="middle" x="1127.5" y="-8.3" font-family="Times New Roman,serif" font-size="14.00"> </text>
</g>
<!-- node1&#45;&gt;node3 -->
<g id="edge2" class="edge">
<title>node1:f1&#45;&gt;node3</title>
<path fill="none" stroke="black" d="M1125.65,-50.38C1117.21,-38.89 1093.83,-30.92 1066.23,-25.38"/>
<polygon fill="black" stroke="black" points="1122.4,-51.71 1129,-60 1129.01,-49.41 1122.4,-51.71"/>
<polygon fill="black" stroke="black" points="1066.78,-21.93 1056.31,-23.53 1065.5,-28.81 1066.78,-21.93"/>
</g>
<!-- node4 -->
<g id="node5" class="node">
<title>node4</title>
<polygon fill="none" stroke="black" points="1173.5,-0.5 1173.5,-23.5 1832.5,-23.5 1832.5,-0.5 1173.5,-0.5"/>
<text text-anchor="middle" x="1183.5" y="-8.3" font-family="Times New Roman,serif" font-size="14.00"> </text>
<polyline fill="none" stroke="black" points="1193.5,-0.5 1193.5,-23.5 "/>
<text text-anchor="middle" x="1274" y="-8.3" font-family="Times New Roman,serif" font-size="14.00">122&#45;&#45;Matemática Básica 2</text>
<polyline fill="none" stroke="black" points="1354.5,-0.5 1354.5,-23.5 "/>
<text text-anchor="middle" x="1364.5" y="-8.3" font-family="Times New Roman,serif" font-size="14.00"> </text>
<polyline fill="none" stroke="black" points="1374.5,-0.5 1374.5,-23.5 "/>
<text text-anchor="middle" x="1498" y="-8.3" font-family="Times New Roman,serif" font-size="14.00">123&#45;&#45;Técnicas de Estudio e Investigación</text>
<polyline fill="none" stroke="black" points="1621.5,-0.5 1621.5,-23.5 "/>
<text text-anchor="middle" x="1631.5" y="-8.3" font-family="Times New Roman,serif" font-size="14.00"> </text>
<polyline fill="none" stroke="black" points="1641.5,-0.5 1641.5,-23.5 "/>
<text text-anchor="middle" x="1727" y="-8.3" font-family="Times New Roman,serif" font-size="14.00">281&#45;&#45;Sistemas Operativos 1</text>
<polyline fill="none" stroke="black" points="1812.5,-0.5 1812.5,-23.5 "/>
<text text-anchor="middle" x="1822.5" y="-8.3" font-family="Times New Roman,serif" font-size="14.00"> </text>
</g>
<!-- node1&#45;&gt;node4 -->
<g id="edge3" class="edge">
<title>node1:f2&#45;&gt;node4</title>
<path fill="none" stroke="black" d="M1331.24,-71.73C1385.17,-68.88 1442.1,-44.59 1474.99,-28.16"/>
<polygon fill="black" stroke="black" points="1330.9,-68.23 1321,-72 1331.09,-75.23 1330.9,-68.23"/>
<polygon fill="black" stroke="black" points="1476.69,-31.22 1484,-23.55 1473.5,-24.99 1476.69,-31.22"/>
</g>
<!-- node6 -->
<g id="node7" class="node">
<title>node6</title>
<polygon fill="none" stroke="black" points="1869,-0.5 1869,-23.5 2255,-23.5 2255,-0.5 1869,-0.5"/>
<text text-anchor="middle" x="1879" y="-8.3" font-family="Times New Roman,serif" font-size="14.00"> </text>
<polyline fill="none" stroke="black" points="1889,-0.5 1889,-23.5 "/>
<text text-anchor="middle" x="1977.5" y="-8.3" font-family="Times New Roman,serif" font-size="14.00">456&#45;&#45;Matemática Cómputo 1</text>
<polyline fill="none" stroke="black" points="2066,-0.5 2066,-23.5 "/>
<text text-anchor="middle" x="2076" y="-8.3" font-family="Times New Roman,serif" font-size="14.00"> </text>
<polyline fill="none" stroke="black" points="2086,-0.5 2086,-23.5 "/>
<text text-anchor="middle" x="2160.5" y="-8.3" font-family="Times New Roman,serif" font-size="14.00">567&#45;&#45;Quimica General 1</text>
<polyline fill="none" stroke="black" points="2235,-0.5 2235,-23.5 "/>
<text text-anchor="middle" x="2245" y="-8.3" font-family="Times New Roman,serif" font-size="14.00"> </text>
</g>
<!-- node5&#45;&gt;node6 -->
<g id="edge5" class="edge">
<title>node5:f0&#45;&gt;node6</title>
<path fill="none" stroke="black" d="M2112.08,-49.83C2108.87,-41.48 2102,-34.53 2094.35,-29"/>
<polygon fill="black" stroke="black" points="2108.71,-50.82 2114,-60 2115.59,-49.52 2108.71,-50.82"/>
<polygon fill="black" stroke="black" points="2096.18,-26.02 2085.87,-23.56 2092.4,-31.91 2096.18,-26.02"/>
</g>
<!-- node7 -->
<g id="node8" class="node">
<title>node7</title>
<polygon fill="none" stroke="black" points="2291.5,-0.5 2291.5,-23.5 2728.5,-23.5 2728.5,-0.5 2291.5,-0.5"/>
<text text-anchor="middle" x="2301.5" y="-8.3" font-family="Times New Roman,serif" font-size="14.00"> </text>
<polyline fill="none" stroke="black" points="2311.5,-0.5 2311.5,-23.5 "/>
<text text-anchor="middle" x="2393" y="-8.3" font-family="Times New Roman,serif" font-size="14.00">772&#45;&#45;Estructuras de Datos</text>
<polyline fill="none" stroke="black" points="2474.5,-0.5 2474.5,-23.5 "/>
<text text-anchor="middle" x="2484.5" y="-8.3" font-family="Times New Roman,serif" font-size="14.00"> </text>
<polyline fill="none" stroke="black" points="2494.5,-0.5 2494.5,-23.5 "/>
<text text-anchor="middle" x="2601.5" y="-8.3" font-family="Times New Roman,serif" font-size="14.00">774&#45;&#45;Sistemas de Bases de Datos 1</text>
<polyline fill="none" stroke="black" points="2708.5,-0.5 2708.5,-23.5 "/>
<text text-anchor="middle" x="2718.5" y="-8.3" font-family="Times New Roman,serif" font-size="14.00"> </text>
</g>
<!-- node5&#45;&gt;node7 -->
<g id="edge6" class="edge">
<title>node5:f1&#45;&gt;node7</title>
<path fill="none" stroke="black" d="M2458.8,-50.15C2461.95,-41.67 2468.91,-34.66 2476.71,-29.09"/>
<polygon fill="black" stroke="black" points="2455.35,-49.53 2457,-60 2462.24,-50.79 2455.35,-49.53"/>
<polygon fill="black" stroke="black" points="2478.78,-31.92 2485.36,-23.62 2475.04,-26.01 2478.78,-31.92"/>
</g>
<!-- node8 -->
<g id="node9" class="node">
<title>node8</title>
<polygon fill="none" stroke="black" points="2764.5,-0.5 2764.5,-23.5 3649.5,-23.5 3649.5,-0.5 2764.5,-0.5"/>
<text text-anchor="middle" x="2774.5" y="-8.3" font-family="Times New Roman,serif" font-size="14.00"> </text>
<polyline fill="none" stroke="black" points="2784.5,-0.5 2784.5,-23.5 "/>
<text text-anchor="middle" x="2875.5" y="-8.3" font-family="Times New Roman,serif" font-size="14.00">789&#45;&#45;Matemática Intermedia 1</text>
<polyline fill="none" stroke="black" points="2966.5,-0.5 2966.5,-23.5 "/>
<text text-anchor="middle" x="2976.5" y="-8.3" font-family="Times New Roman,serif" font-size="14.00"> </text>
<polyline fill="none" stroke="black" points="2986.5,-0.5 2986.5,-23.5 "/>
<text text-anchor="middle" x="3119.5" y="-8.3" font-family="Times New Roman,serif" font-size="14.00">796&#45;&#45;Lenguajes Formales y de Programación</text>
<polyline fill="none" stroke="black" points="3252.5,-0.5 3252.5,-23.5 "/>
<text text-anchor="middle" x="3262.5" y="-8.3" font-family="Times New Roman,serif" font-size="14.00"> </text>
<polyline fill="none" stroke="black" points="3272.5,-0.5 3272.5,-23.5 "/>
<text text-anchor="middle" x="3361" y="-8.3" font-family="Times New Roman,serif" font-size="14.00">960&#45;&#45;Matemática Cómputo 1</text>
<polyline fill="none" stroke="black" points="3449.5,-0.5 3449.5,-23.5 "/>
<text text-anchor="middle" x="3459.5" y="-8.3" font-family="Times New Roman,serif" font-size="14.00"> </text>
<polyline fill="none" stroke="black" points="3469.5,-0.5 3469.5,-23.5 "/>
<text text-anchor="middle" x="3549.5" y="-8.3" font-family="Times New Roman,serif" font-size="14.00">2036&#45;&#45;Práctica Intermedia</text>
<polyline fill="none" stroke="black" points="3629.5,-0.5 3629.5,-23.5 "/>
<text text-anchor="middle" x="3639.5" y="-8.3" font-family="Times New Roman,serif" font-size="14.00"> </text>
</g>
<!-- node5&#45;&gt;node8 -->
<g id="edge7" class="edge">
<title>node5:f2&#45;&gt;node8</title>
<path fill="none" stroke="black" d="M2797.12,-71.94C2926.67,-70.53 3073.94,-42.66 3151.85,-25.76"/>
<polygon fill="black" stroke="black" points="2796.98,-68.45 2787,-72 2797.02,-75.44 2796.98,-68.45"/>
<polygon fill="black" stroke="black" points="3152.9,-29.11 3161.92,-23.55 3151.4,-22.27 3152.9,-29.11"/>
</g>
</g>
</svg>
