<?xml version="1.0" encoding="UTF-8" standalone="no"?>
<!DOCTYPE svg PUBLIC "-//W3C//DTD SVG 1.1//EN"
 "http://www.w3.org/Graphics/SVG/1.1/DTD/svg11.dtd">
<!-- Generated by graphviz version 2.48.0 (20210717.1556)
 -->
<!-- Title: G Pages: 1 -->
<svg width="770pt" height="32pt"
 viewBox="0.00 0.00 770.00 32.00" xmlns="http://www.w3.org/2000/svg" xmlns:xlink="http://www.w3.org/1999/xlink">
<g id="graph0" class="graph" transform="scale(1 1) rotate(0) translate(4 28)">
<title>G</title>
<polygon fill="white" stroke="transparent" points="-4,4 -4,-28 766,-28 766,4 -4,4"/>
<!-- node0 -->
<g id="node1" class="node">
<title>node0</title>
<polygon fill="none" stroke="black" points="0,-0.5 0,-23.5 762,-23.5 762,-0.5 0,-0.5"/>
<text text-anchor="middle" x="10" y="-8.3" font-family="Times New Roman,serif" font-size="14.00"> </text>
<polyline fill="none" stroke="black" points="20,-0.5 20,-23.5 "/>
<text text-anchor="middle" x="111" y="-8.3" font-family="Times New Roman,serif" font-size="14.00">107&#45;&#45;Mátematica Intermedia 1</text>
<polyline fill="none" stroke="black" points="202,-0.5 202,-23.5 "/>
<text text-anchor="middle" x="212" y="-8.3" font-family="Times New Roman,serif" font-size="14.00"> </text>
<polyline fill="none" stroke="black" points="222,-0.5 222,-23.5 "/>
<text text-anchor="middle" x="383.5" y="-8.3" font-family="Times New Roman,serif" font-size="14.00">770&#45;&#45;Introducción a la Programación y Computación 1</text>
<polyline fill="none" stroke="black" points="545,-0.5 545,-23.5 "/>
<text text-anchor="middle" x="555" y="-8.3" font-family="Times New Roman,serif" font-size="14.00"> </text>
<polyline fill="none" stroke="black" points="565,-0.5 565,-23.5 "/>
<text text-anchor="middle" x="653.5" y="-8.3" font-family="Times New Roman,serif" font-size="14.00">960&#45;&#45;Matemática Cómputo 1</text>
<polyline fill="none" stroke="black" points="742,-0.5 742,-23.5 "/>
<text text-anchor="middle" x="752" y="-8.3" font-family="Times New Roman,serif" font-size="14.00"> </text>
</g>
</g>
</svg>
