<?xml version="1.0" encoding="UTF-8" standalone="no"?>
<!DOCTYPE svg PUBLIC "-//W3C//DTD SVG 1.1//EN"
 "http://www.w3.org/Graphics/SVG/1.1/DTD/svg11.dtd">
<!-- Generated by graphviz version 2.48.0 (20210717.1556)
 -->
<!-- Title: G Pages: 1 -->
<svg width="891pt" height="184pt"
 viewBox="0.00 0.00 891.00 184.00" xmlns="http://www.w3.org/2000/svg" xmlns:xlink="http://www.w3.org/1999/xlink">
<g id="graph0" class="graph" transform="scale(1 1) rotate(0) translate(4 180)">
<title>G</title>
<polygon fill="white" stroke="transparent" points="-4,4 -4,-180 887,-180 887,4 -4,4"/>
<g id="clust3" class="cluster">
<title>cluster_nodo1|nodo0_1I|0_contenedor</title>
<polygon fill="none" stroke="black" points="446,-8 446,-108 653,-108 653,-8 446,-8"/>
</g>
<g id="clust4" class="cluster">
<title>cluster_nodo1|nodo0_1D|0_contenedor</title>
<polygon fill="none" stroke="black" points="661,-8 661,-168 875,-168 875,-8 661,-8"/>
</g>
<g id="clust2" class="cluster">
<title>cluster_nodo1|nodo0_0I|0_contenedor</title>
<polygon fill="none" stroke="black" points="8,-8 8,-108 200,-108 200,-8 8,-8"/>
</g>
<g id="clust1" class="cluster">
<title>cluster_raiz</title>
<polygon fill="none" stroke="black" points="220,-68 220,-108 427,-108 427,-68 220,-68"/>
</g>
<!-- nodo0_0 -->
<g id="node1" class="node">
<title>nodo0_0</title>
<polygon fill="none" stroke="black" points="228.5,-76.5 228.5,-99.5 305.5,-99.5 305.5,-76.5 228.5,-76.5"/>
<text text-anchor="middle" x="238.5" y="-84.3" font-family="Times New Roman,serif" font-size="14.00"> </text>
<polyline fill="none" stroke="black" points="248.5,-76.5 248.5,-99.5 "/>
<text text-anchor="middle" x="267" y="-84.3" font-family="Times New Roman,serif" font-size="14.00">101</text>
<polyline fill="none" stroke="black" points="285.5,-76.5 285.5,-99.5 "/>
<text text-anchor="middle" x="295.5" y="-84.3" font-family="Times New Roman,serif" font-size="14.00"> </text>
</g>
<!-- nodo1|nodo0_0I|0 -->
<g id="node2" class="node">
<title>nodo1|nodo0_0I|0</title>
<polygon fill="none" stroke="black" points="103.5,-16.5 103.5,-39.5 166.5,-39.5 166.5,-16.5 103.5,-16.5"/>
<text text-anchor="middle" x="113.5" y="-24.3" font-family="Times New Roman,serif" font-size="14.00"> </text>
<polyline fill="none" stroke="black" points="123.5,-16.5 123.5,-39.5 "/>
<text text-anchor="middle" x="135" y="-24.3" font-family="Times New Roman,serif" font-size="14.00">5</text>
<polyline fill="none" stroke="black" points="146.5,-16.5 146.5,-39.5 "/>
<text text-anchor="middle" x="156.5" y="-24.3" font-family="Times New Roman,serif" font-size="14.00"> </text>
</g>
<!-- nodo0_0&#45;&gt;nodo1|nodo0_0I|0 -->
<g id="edge2" class="edge">
<title>nodo0_0:f0&#45;&gt;nodo1|nodo0_0I|0</title>
<path fill="none" stroke="black" d="M218.14,-82.94C215.68,-78.59 214.6,-72.36 209,-68 208.73,-67.79 208.46,-67.58 208.19,-67.37"/>
<polygon fill="black" stroke="black" points="216.58,-86.08 227,-88 220.05,-80 216.58,-86.08"/>
<polygon fill="black" stroke="black" points="210.16,-64.48 200,-61.49 206.08,-70.17 210.16,-64.48"/>
</g>
<!-- nodo1|nodo0_0I|1 -->
<g id="node3" class="node">
<title>nodo1|nodo0_0I|1</title>
<polygon fill="none" stroke="black" points="122,-76.5 122,-99.5 192,-99.5 192,-76.5 122,-76.5"/>
<text text-anchor="middle" x="132" y="-84.3" font-family="Times New Roman,serif" font-size="14.00"> </text>
<polyline fill="none" stroke="black" points="142,-76.5 142,-99.5 "/>
<text text-anchor="middle" x="157" y="-84.3" font-family="Times New Roman,serif" font-size="14.00">18</text>
<polyline fill="none" stroke="black" points="172,-76.5 172,-99.5 "/>
<text text-anchor="middle" x="182" y="-84.3" font-family="Times New Roman,serif" font-size="14.00"> </text>
</g>
<!-- nodo1|nodo0_0I|1&#45;&gt;nodo1|nodo0_0I|0 -->
<g id="edge1" class="edge">
<title>nodo1|nodo0_0I|1:f0&#45;&gt;nodo1|nodo0_0I|0:f2</title>
<path fill="none" stroke="black" d="M135.07,-65.2C139.86,-58.75 149.1,-56.27 153.91,-49.84"/>
<polygon fill="black" stroke="black" points="131.64,-64.41 132,-75 138.32,-66.5 131.64,-64.41"/>
<polygon fill="black" stroke="black" points="157.34,-50.59 157,-40 150.66,-48.49 157.34,-50.59"/>
</g>
<!-- nodo1|nodo0_0I|2 -->
<g id="node4" class="node">
<title>nodo1|nodo0_0I|2</title>
<polygon fill="none" stroke="black" points="16,-76.5 16,-99.5 86,-99.5 86,-76.5 16,-76.5"/>
<text text-anchor="middle" x="26" y="-84.3" font-family="Times New Roman,serif" font-size="14.00"> </text>
<polyline fill="none" stroke="black" points="36,-76.5 36,-99.5 "/>
<text text-anchor="middle" x="51" y="-84.3" font-family="Times New Roman,serif" font-size="14.00">39</text>
<polyline fill="none" stroke="black" points="66,-76.5 66,-99.5 "/>
<text text-anchor="middle" x="76" y="-84.3" font-family="Times New Roman,serif" font-size="14.00"> </text>
</g>
<!-- nodo0_1 -->
<g id="node5" class="node">
<title>nodo0_1</title>
<polygon fill="none" stroke="black" points="341.5,-76.5 341.5,-99.5 418.5,-99.5 418.5,-76.5 341.5,-76.5"/>
<text text-anchor="middle" x="351.5" y="-84.3" font-family="Times New Roman,serif" font-size="14.00"> </text>
<polyline fill="none" stroke="black" points="361.5,-76.5 361.5,-99.5 "/>
<text text-anchor="middle" x="380" y="-84.3" font-family="Times New Roman,serif" font-size="14.00">348</text>
<polyline fill="none" stroke="black" points="398.5,-76.5 398.5,-99.5 "/>
<text text-anchor="middle" x="408.5" y="-84.3" font-family="Times New Roman,serif" font-size="14.00"> </text>
</g>
<!-- nodo1|nodo0_1I|0 -->
<g id="node6" class="node">
<title>nodo1|nodo0_1I|0</title>
<polygon fill="none" stroke="black" points="481.5,-16.5 481.5,-39.5 558.5,-39.5 558.5,-16.5 481.5,-16.5"/>
<text text-anchor="middle" x="491.5" y="-24.3" font-family="Times New Roman,serif" font-size="14.00"> </text>
<polyline fill="none" stroke="black" points="501.5,-16.5 501.5,-39.5 "/>
<text text-anchor="middle" x="520" y="-24.3" font-family="Times New Roman,serif" font-size="14.00">103</text>
<polyline fill="none" stroke="black" points="538.5,-16.5 538.5,-39.5 "/>
<text text-anchor="middle" x="548.5" y="-24.3" font-family="Times New Roman,serif" font-size="14.00"> </text>
</g>
<!-- nodo0_1&#45;&gt;nodo1|nodo0_1I|0 -->
<g id="edge4" class="edge">
<title>nodo0_1:f0&#45;&gt;nodo1|nodo0_1I|0</title>
<path fill="none" stroke="black" d="M354.55,-65.63C365.63,-51.64 400.94,-42.79 436.11,-37.31"/>
<polygon fill="black" stroke="black" points="351.27,-64.41 351,-75 357.82,-66.89 351.27,-64.41"/>
<polygon fill="black" stroke="black" points="436.62,-40.77 446,-35.85 435.6,-33.85 436.62,-40.77"/>
</g>
<!-- nodo1|nodo0_1D|0 -->
<g id="node9" class="node">
<title>nodo1|nodo0_1D|0</title>
<polygon fill="none" stroke="black" points="671.5,-16.5 671.5,-39.5 748.5,-39.5 748.5,-16.5 671.5,-16.5"/>
<text text-anchor="middle" x="681.5" y="-24.3" font-family="Times New Roman,serif" font-size="14.00"> </text>
<polyline fill="none" stroke="black" points="691.5,-16.5 691.5,-39.5 "/>
<text text-anchor="middle" x="710" y="-24.3" font-family="Times New Roman,serif" font-size="14.00">770</text>
<polyline fill="none" stroke="black" points="728.5,-16.5 728.5,-39.5 "/>
<text text-anchor="middle" x="738.5" y="-24.3" font-family="Times New Roman,serif" font-size="14.00"> </text>
</g>
<!-- nodo0_1&#45;&gt;nodo1|nodo0_1D|0 -->
<g id="edge7" class="edge">
<title>nodo0_1:f2&#45;&gt;nodo1|nodo0_1D|0</title>
<path fill="none" stroke="black" d="M428.29,-82.04C430.21,-77.39 431.07,-71.2 437,-68 519.88,-23.25 557.69,-52.98 650.9,-41.32"/>
<polygon fill="black" stroke="black" points="426.07,-79.32 420,-88 430.16,-85 426.07,-79.32"/>
<polygon fill="black" stroke="black" points="651.58,-44.76 661,-39.92 650.62,-37.82 651.58,-44.76"/>
</g>
<!-- nodo1|nodo0_1I|1 -->
<g id="node7" class="node">
<title>nodo1|nodo0_1I|1</title>
<polygon fill="none" stroke="black" points="567.5,-76.5 567.5,-99.5 644.5,-99.5 644.5,-76.5 567.5,-76.5"/>
<text text-anchor="middle" x="577.5" y="-84.3" font-family="Times New Roman,serif" font-size="14.00"> </text>
<polyline fill="none" stroke="black" points="587.5,-76.5 587.5,-99.5 "/>
<text text-anchor="middle" x="606" y="-84.3" font-family="Times New Roman,serif" font-size="14.00">107</text>
<polyline fill="none" stroke="black" points="624.5,-76.5 624.5,-99.5 "/>
<text text-anchor="middle" x="634.5" y="-84.3" font-family="Times New Roman,serif" font-size="14.00"> </text>
</g>
<!-- nodo1|nodo0_1I|1&#45;&gt;nodo1|nodo0_1I|0 -->
<g id="edge3" class="edge">
<title>nodo1|nodo0_1I|1:f0&#45;&gt;nodo1|nodo0_1I|0:f2</title>
<path fill="none" stroke="black" d="M573.79,-65.23C568.39,-58.47 557.55,-56.51 552.17,-49.72"/>
<polygon fill="black" stroke="black" points="570.55,-66.59 577,-75 577.2,-64.41 570.55,-66.59"/>
<polygon fill="black" stroke="black" points="555.43,-48.42 549,-40 548.78,-50.59 555.43,-48.42"/>
</g>
<!-- nodo1|nodo0_1I|2 -->
<g id="node8" class="node">
<title>nodo1|nodo0_1I|2</title>
<polygon fill="none" stroke="black" points="454.5,-76.5 454.5,-99.5 531.5,-99.5 531.5,-76.5 454.5,-76.5"/>
<text text-anchor="middle" x="464.5" y="-84.3" font-family="Times New Roman,serif" font-size="14.00"> </text>
<polyline fill="none" stroke="black" points="474.5,-76.5 474.5,-99.5 "/>
<text text-anchor="middle" x="493" y="-84.3" font-family="Times New Roman,serif" font-size="14.00">281</text>
<polyline fill="none" stroke="black" points="511.5,-76.5 511.5,-99.5 "/>
<text text-anchor="middle" x="521.5" y="-84.3" font-family="Times New Roman,serif" font-size="14.00"> </text>
</g>
<!-- nodo1|nodo0_1D|1 -->
<g id="node10" class="node">
<title>nodo1|nodo0_1D|1</title>
<polygon fill="none" stroke="black" points="730.5,-76.5 730.5,-99.5 807.5,-99.5 807.5,-76.5 730.5,-76.5"/>
<text text-anchor="middle" x="740.5" y="-84.3" font-family="Times New Roman,serif" font-size="14.00"> </text>
<polyline fill="none" stroke="black" points="750.5,-76.5 750.5,-99.5 "/>
<text text-anchor="middle" x="769" y="-84.3" font-family="Times New Roman,serif" font-size="14.00">772</text>
<polyline fill="none" stroke="black" points="787.5,-76.5 787.5,-99.5 "/>
<text text-anchor="middle" x="797.5" y="-84.3" font-family="Times New Roman,serif" font-size="14.00"> </text>
</g>
<!-- nodo1|nodo0_1D|1&#45;&gt;nodo1|nodo0_1D|0 -->
<g id="edge5" class="edge">
<title>nodo1|nodo0_1D|1:f0&#45;&gt;nodo1|nodo0_1D|0:f2</title>
<path fill="none" stroke="black" d="M739.83,-64.89C739.65,-59.49 739.35,-55.43 739.16,-50.02"/>
<polygon fill="black" stroke="black" points="736.34,-65.06 740,-75 743.34,-64.94 736.34,-65.06"/>
<polygon fill="black" stroke="black" points="742.66,-49.94 739,-40 735.66,-50.06 742.66,-49.94"/>
</g>
<!-- nodo1|nodo0_1D|2 -->
<g id="node11" class="node">
<title>nodo1|nodo0_1D|2</title>
<polygon fill="none" stroke="black" points="789.5,-136.5 789.5,-159.5 866.5,-159.5 866.5,-136.5 789.5,-136.5"/>
<text text-anchor="middle" x="799.5" y="-144.3" font-family="Times New Roman,serif" font-size="14.00"> </text>
<polyline fill="none" stroke="black" points="809.5,-136.5 809.5,-159.5 "/>
<text text-anchor="middle" x="828" y="-144.3" font-family="Times New Roman,serif" font-size="14.00">774</text>
<polyline fill="none" stroke="black" points="846.5,-136.5 846.5,-159.5 "/>
<text text-anchor="middle" x="856.5" y="-144.3" font-family="Times New Roman,serif" font-size="14.00"> </text>
</g>
<!-- nodo1|nodo0_1D|2&#45;&gt;nodo1|nodo0_1D|1 -->
<g id="edge6" class="edge">
<title>nodo1|nodo0_1D|2:f0&#45;&gt;nodo1|nodo0_1D|1:f2</title>
<path fill="none" stroke="black" d="M798.83,-125.89C798.65,-120.49 798.35,-116.43 798.16,-111.02"/>
<polygon fill="black" stroke="black" points="795.34,-126.06 799,-136 802.34,-125.94 795.34,-126.06"/>
<polygon fill="black" stroke="black" points="801.66,-110.94 798,-101 794.66,-111.06 801.66,-110.94"/>
</g>
<!-- nodo1|nodo0_1D|3 -->
<g id="node12" class="node">
<title>nodo1|nodo0_1D|3</title>
<polygon fill="none" stroke="black" points="669,-136.5 669,-159.5 753,-159.5 753,-136.5 669,-136.5"/>
<text text-anchor="middle" x="679" y="-144.3" font-family="Times New Roman,serif" font-size="14.00"> </text>
<polyline fill="none" stroke="black" points="689,-136.5 689,-159.5 "/>
<text text-anchor="middle" x="711" y="-144.3" font-family="Times New Roman,serif" font-size="14.00">2036</text>
<polyline fill="none" stroke="black" points="733,-136.5 733,-159.5 "/>
<text text-anchor="middle" x="743" y="-144.3" font-family="Times New Roman,serif" font-size="14.00"> </text>
</g>
</g>
</svg>
