<?xml version="1.0" encoding="UTF-8" standalone="no"?>
<!DOCTYPE svg PUBLIC "-//W3C//DTD SVG 1.1//EN"
 "http://www.w3.org/Graphics/SVG/1.1/DTD/svg11.dtd">
<!-- Generated by graphviz version 2.48.0 (20210717.1556)
 -->
<!-- Title: G Pages: 1 -->
<svg width="242pt" height="359pt"
 viewBox="0.00 0.00 242.00 359.00" xmlns="http://www.w3.org/2000/svg" xmlns:xlink="http://www.w3.org/1999/xlink">
<g id="graph0" class="graph" transform="scale(1 1) rotate(0) translate(4 355)">
<title>G</title>
<polygon fill="white" stroke="transparent" points="-4,4 -4,-355 238,-355 238,4 -4,4"/>
<!-- nodo0_0 -->
<g id="node1" class="node">
<title>nodo0_0</title>
<polygon fill="none" stroke="black" points="90,-258.5 90,-327.5 144,-327.5 144,-258.5 90,-258.5"/>
<text text-anchor="middle" x="117" y="-312.3" font-family="Times New Roman,serif" font-size="14.00"> </text>
<polyline fill="none" stroke="black" points="90,-304.5 144,-304.5 "/>
<text text-anchor="middle" x="117" y="-289.3" font-family="Times New Roman,serif" font-size="14.00">30</text>
<polyline fill="none" stroke="black" points="90,-281.5 144,-281.5 "/>
<text text-anchor="middle" x="117" y="-266.3" font-family="Times New Roman,serif" font-size="14.00"> </text>
</g>
<!-- nodo1|nodo0_0I|0 -->
<g id="node2" class="node">
<title>nodo1|nodo0_0I|0</title>
<polygon fill="none" stroke="black" points="180,-281.5 180,-350.5 234,-350.5 234,-281.5 180,-281.5"/>
<text text-anchor="middle" x="207" y="-335.3" font-family="Times New Roman,serif" font-size="14.00"> </text>
<polyline fill="none" stroke="black" points="180,-327.5 234,-327.5 "/>
<text text-anchor="middle" x="207" y="-312.3" font-family="Times New Roman,serif" font-size="14.00">20</text>
<polyline fill="none" stroke="black" points="180,-304.5 234,-304.5 "/>
<text text-anchor="middle" x="207" y="-289.3" font-family="Times New Roman,serif" font-size="14.00"> </text>
</g>
<!-- nodo0_0&#45;&gt;nodo1|nodo0_0I|0 -->
<g id="edge1" class="edge">
<title>nodo0_0:f0&#45;&gt;nodo1|nodo0_0I|0:f1</title>
<path fill="none" stroke="black" d="M154.12,-316C159.79,-316 163.99,-316 169.61,-316"/>
<polygon fill="black" stroke="black" points="154,-312.5 144,-316 154,-319.5 154,-312.5"/>
<polygon fill="black" stroke="black" points="170,-319.5 180,-316 170,-312.5 170,-319.5"/>
</g>
<!-- nodo0_1 -->
<g id="node3" class="node">
<title>nodo0_1</title>
<polygon fill="none" stroke="black" points="0,-129.5 0,-198.5 54,-198.5 54,-129.5 0,-129.5"/>
<text text-anchor="middle" x="27" y="-183.3" font-family="Times New Roman,serif" font-size="14.00"> </text>
<polyline fill="none" stroke="black" points="0,-175.5 54,-175.5 "/>
<text text-anchor="middle" x="27" y="-160.3" font-family="Times New Roman,serif" font-size="14.00">90</text>
<polyline fill="none" stroke="black" points="0,-152.5 54,-152.5 "/>
<text text-anchor="middle" x="27" y="-137.3" font-family="Times New Roman,serif" font-size="14.00"> </text>
</g>
<!-- nodo0_1&#45;&gt;nodo0_0 -->
<g id="edge5" class="edge">
<title>nodo0_1:f0&#45;&gt;nodo0_0:f2</title>
<path fill="none" stroke="black" d="M63.81,-189.39C83.54,-201.46 60.47,-255.51 80.17,-267.6"/>
<polygon fill="black" stroke="black" points="64.54,-185.97 54,-187 62.88,-192.77 64.54,-185.97"/>
<polygon fill="black" stroke="black" points="79.45,-271.02 90,-270 81.12,-264.22 79.45,-271.02"/>
</g>
<!-- nodo1|nodo0_1I|0 -->
<g id="node4" class="node">
<title>nodo1|nodo0_1I|0</title>
<polygon fill="none" stroke="black" points="90,-152.5 90,-221.5 144,-221.5 144,-152.5 90,-152.5"/>
<text text-anchor="middle" x="117" y="-206.3" font-family="Times New Roman,serif" font-size="14.00"> </text>
<polyline fill="none" stroke="black" points="90,-198.5 144,-198.5 "/>
<text text-anchor="middle" x="117" y="-183.3" font-family="Times New Roman,serif" font-size="14.00">40</text>
<polyline fill="none" stroke="black" points="90,-175.5 144,-175.5 "/>
<text text-anchor="middle" x="117" y="-160.3" font-family="Times New Roman,serif" font-size="14.00"> </text>
</g>
<!-- nodo0_1&#45;&gt;nodo1|nodo0_1I|0 -->
<g id="edge2" class="edge">
<title>nodo0_1:f0&#45;&gt;nodo1|nodo0_1I|0:f1</title>
<path fill="none" stroke="black" d="M64.12,-187C69.79,-187 73.99,-187 79.61,-187"/>
<polygon fill="black" stroke="black" points="64,-183.5 54,-187 64,-190.5 64,-183.5"/>
<polygon fill="black" stroke="black" points="80,-190.5 90,-187 80,-183.5 80,-190.5"/>
</g>
<!-- nodo1|nodo0_1D|0 -->
<g id="node5" class="node">
<title>nodo1|nodo0_1D|0</title>
<polygon fill="none" stroke="black" points="90,-46.5 90,-115.5 144,-115.5 144,-46.5 90,-46.5"/>
<text text-anchor="middle" x="117" y="-100.3" font-family="Times New Roman,serif" font-size="14.00"> </text>
<polyline fill="none" stroke="black" points="90,-92.5 144,-92.5 "/>
<text text-anchor="middle" x="117" y="-77.3" font-family="Times New Roman,serif" font-size="14.00">100</text>
<polyline fill="none" stroke="black" points="90,-69.5 144,-69.5 "/>
<text text-anchor="middle" x="117" y="-54.3" font-family="Times New Roman,serif" font-size="14.00"> </text>
</g>
<!-- nodo0_1&#45;&gt;nodo1|nodo0_1D|0 -->
<g id="edge4" class="edge">
<title>nodo0_1:f2&#45;&gt;nodo1|nodo0_1D|0:f1</title>
<path fill="none" stroke="black" d="M63.63,-138.11C76.73,-127.99 67.3,-94.29 80.23,-84.01"/>
<polygon fill="black" stroke="black" points="62.57,-134.77 54,-141 64.58,-141.47 62.57,-134.77"/>
<polygon fill="black" stroke="black" points="81.47,-87.29 90,-81 79.41,-80.6 81.47,-87.29"/>
</g>
<!-- nodo1|nodo0_1D|1 -->
<g id="node6" class="node">
<title>nodo1|nodo0_1D|1</title>
<polygon fill="none" stroke="black" points="0,-0.5 0,-69.5 54,-69.5 54,-0.5 0,-0.5"/>
<text text-anchor="middle" x="27" y="-54.3" font-family="Times New Roman,serif" font-size="14.00"> </text>
<polyline fill="none" stroke="black" points="0,-46.5 54,-46.5 "/>
<text text-anchor="middle" x="27" y="-31.3" font-family="Times New Roman,serif" font-size="14.00">200</text>
<polyline fill="none" stroke="black" points="0,-23.5 54,-23.5 "/>
<text text-anchor="middle" x="27" y="-8.3" font-family="Times New Roman,serif" font-size="14.00"> </text>
</g>
<!-- nodo1|nodo0_1D|1&#45;&gt;nodo1|nodo0_1D|0 -->
<g id="edge3" class="edge">
<title>nodo1|nodo0_1D|1:f0&#45;&gt;nodo1|nodo0_1D|0:f2</title>
<path fill="none" stroke="black" d="M64.12,-58C69.79,-58 73.99,-58 79.61,-58"/>
<polygon fill="black" stroke="black" points="64,-54.5 54,-58 64,-61.5 64,-54.5"/>
<polygon fill="black" stroke="black" points="80,-61.5 90,-58 80,-54.5 80,-61.5"/>
</g>
</g>
</svg>
