<?xml version="1.0" encoding="UTF-8" standalone="no"?>
<!DOCTYPE svg PUBLIC "-//W3C//DTD SVG 1.1//EN"
 "http://www.w3.org/Graphics/SVG/1.1/DTD/svg11.dtd">
<!-- Generated by graphviz version 2.48.0 (20210717.1556)
 -->
<!-- Title: G Pages: 1 -->
<svg width="242pt" height="396pt"
 viewBox="0.00 0.00 242.00 396.00" xmlns="http://www.w3.org/2000/svg" xmlns:xlink="http://www.w3.org/1999/xlink">
<g id="graph0" class="graph" transform="scale(1 1) rotate(0) translate(4 392)">
<title>G</title>
<polygon fill="white" stroke="transparent" points="-4,4 -4,-392 238,-392 238,4 -4,4"/>
<!-- nodo0_0 -->
<g id="node1" class="node">
<title>nodo0_0</title>
<polygon fill="none" stroke="black" points="0,-159.5 0,-228.5 54,-228.5 54,-159.5 0,-159.5"/>
<text text-anchor="middle" x="27" y="-213.3" font-family="Times New Roman,serif" font-size="14.00"> </text>
<polyline fill="none" stroke="black" points="0,-205.5 54,-205.5 "/>
<text text-anchor="middle" x="27" y="-190.3" font-family="Times New Roman,serif" font-size="14.00">90</text>
<polyline fill="none" stroke="black" points="0,-182.5 54,-182.5 "/>
<text text-anchor="middle" x="27" y="-167.3" font-family="Times New Roman,serif" font-size="14.00"> </text>
</g>
<!-- nodo1|nodo0_0I|0 -->
<g id="node2" class="node">
<title>nodo1|nodo0_0I|0</title>
<polygon fill="none" stroke="black" points="90,-235.5 90,-304.5 144,-304.5 144,-235.5 90,-235.5"/>
<text text-anchor="middle" x="117" y="-289.3" font-family="Times New Roman,serif" font-size="14.00"> </text>
<polyline fill="none" stroke="black" points="90,-281.5 144,-281.5 "/>
<text text-anchor="middle" x="117" y="-266.3" font-family="Times New Roman,serif" font-size="14.00">30</text>
<polyline fill="none" stroke="black" points="90,-258.5 144,-258.5 "/>
<text text-anchor="middle" x="117" y="-243.3" font-family="Times New Roman,serif" font-size="14.00"> </text>
</g>
<!-- nodo0_0&#45;&gt;nodo1|nodo0_0I|0 -->
<g id="edge3" class="edge">
<title>nodo0_0:f0&#45;&gt;nodo1|nodo0_0I|0:f1</title>
<path fill="none" stroke="black" d="M63.74,-220.16C75.01,-229.61 68.99,-257.59 80.36,-266.93"/>
<polygon fill="black" stroke="black" points="64.59,-216.75 54,-217 62.43,-223.41 64.59,-216.75"/>
<polygon fill="black" stroke="black" points="79.41,-270.3 90,-270 81.54,-263.63 79.41,-270.3"/>
</g>
<!-- nodo1|nodo0_0D|0 -->
<g id="node5" class="node">
<title>nodo1|nodo0_0D|0</title>
<polygon fill="none" stroke="black" points="90,-83.5 90,-152.5 144,-152.5 144,-83.5 90,-83.5"/>
<text text-anchor="middle" x="117" y="-137.3" font-family="Times New Roman,serif" font-size="14.00"> </text>
<polyline fill="none" stroke="black" points="90,-129.5 144,-129.5 "/>
<text text-anchor="middle" x="117" y="-114.3" font-family="Times New Roman,serif" font-size="14.00">150</text>
<polyline fill="none" stroke="black" points="90,-106.5 144,-106.5 "/>
<text text-anchor="middle" x="117" y="-91.3" font-family="Times New Roman,serif" font-size="14.00"> </text>
</g>
<!-- nodo0_0&#45;&gt;nodo1|nodo0_0D|0 -->
<g id="edge6" class="edge">
<title>nodo0_0:f2&#45;&gt;nodo1|nodo0_0D|0:f1</title>
<path fill="none" stroke="black" d="M63.74,-167.84C75.01,-158.39 68.99,-130.41 80.36,-121.07"/>
<polygon fill="black" stroke="black" points="62.43,-164.59 54,-171 64.59,-171.25 62.43,-164.59"/>
<polygon fill="black" stroke="black" points="81.54,-124.37 90,-118 79.41,-117.7 81.54,-124.37"/>
</g>
<!-- nodo2|nodo1|nodo0_0I|0I|0 -->
<g id="node3" class="node">
<title>nodo2|nodo1|nodo0_0I|0I|0</title>
<polygon fill="none" stroke="black" points="180,-318.5 180,-387.5 234,-387.5 234,-318.5 180,-318.5"/>
<text text-anchor="middle" x="207" y="-372.3" font-family="Times New Roman,serif" font-size="14.00"> </text>
<polyline fill="none" stroke="black" points="180,-364.5 234,-364.5 "/>
<text text-anchor="middle" x="207" y="-349.3" font-family="Times New Roman,serif" font-size="14.00">20</text>
<polyline fill="none" stroke="black" points="180,-341.5 234,-341.5 "/>
<text text-anchor="middle" x="207" y="-326.3" font-family="Times New Roman,serif" font-size="14.00"> </text>
</g>
<!-- nodo1|nodo0_0I|0&#45;&gt;nodo2|nodo1|nodo0_0I|0I|0 -->
<g id="edge1" class="edge">
<title>nodo1|nodo0_0I|0:f0&#45;&gt;nodo2|nodo1|nodo0_0I|0I|0:f1</title>
<path fill="none" stroke="black" d="M153.63,-295.89C166.73,-306.01 157.3,-339.71 170.23,-349.99"/>
<polygon fill="black" stroke="black" points="154.58,-292.53 144,-293 152.57,-299.23 154.58,-292.53"/>
<polygon fill="black" stroke="black" points="169.41,-353.4 180,-353 171.47,-346.71 169.41,-353.4"/>
</g>
<!-- nodo2|nodo1|nodo0_0I|0D|0 -->
<g id="node4" class="node">
<title>nodo2|nodo1|nodo0_0I|0D|0</title>
<polygon fill="none" stroke="black" points="180,-212.5 180,-281.5 234,-281.5 234,-212.5 180,-212.5"/>
<text text-anchor="middle" x="207" y="-266.3" font-family="Times New Roman,serif" font-size="14.00"> </text>
<polyline fill="none" stroke="black" points="180,-258.5 234,-258.5 "/>
<text text-anchor="middle" x="207" y="-243.3" font-family="Times New Roman,serif" font-size="14.00">40</text>
<polyline fill="none" stroke="black" points="180,-235.5 234,-235.5 "/>
<text text-anchor="middle" x="207" y="-220.3" font-family="Times New Roman,serif" font-size="14.00"> </text>
</g>
<!-- nodo1|nodo0_0I|0&#45;&gt;nodo2|nodo1|nodo0_0I|0D|0 -->
<g id="edge2" class="edge">
<title>nodo1|nodo0_0I|0:f2&#45;&gt;nodo2|nodo1|nodo0_0I|0D|0:f1</title>
<path fill="none" stroke="black" d="M154.12,-247C159.79,-247 163.99,-247 169.61,-247"/>
<polygon fill="black" stroke="black" points="154,-243.5 144,-247 154,-250.5 154,-243.5"/>
<polygon fill="black" stroke="black" points="170,-250.5 180,-247 170,-243.5 170,-250.5"/>
</g>
<!-- nodo2|nodo1|nodo0_0D|0I|0 -->
<g id="node6" class="node">
<title>nodo2|nodo1|nodo0_0D|0I|0</title>
<polygon fill="none" stroke="black" points="180,-106.5 180,-175.5 234,-175.5 234,-106.5 180,-106.5"/>
<text text-anchor="middle" x="207" y="-160.3" font-family="Times New Roman,serif" font-size="14.00"> </text>
<polyline fill="none" stroke="black" points="180,-152.5 234,-152.5 "/>
<text text-anchor="middle" x="207" y="-137.3" font-family="Times New Roman,serif" font-size="14.00">100</text>
<polyline fill="none" stroke="black" points="180,-129.5 234,-129.5 "/>
<text text-anchor="middle" x="207" y="-114.3" font-family="Times New Roman,serif" font-size="14.00"> </text>
</g>
<!-- nodo1|nodo0_0D|0&#45;&gt;nodo2|nodo1|nodo0_0D|0I|0 -->
<g id="edge4" class="edge">
<title>nodo1|nodo0_0D|0:f0&#45;&gt;nodo2|nodo1|nodo0_0D|0I|0:f1</title>
<path fill="none" stroke="black" d="M154.12,-141C159.79,-141 163.99,-141 169.61,-141"/>
<polygon fill="black" stroke="black" points="154,-137.5 144,-141 154,-144.5 154,-137.5"/>
<polygon fill="black" stroke="black" points="170,-144.5 180,-141 170,-137.5 170,-144.5"/>
</g>
<!-- nodo2|nodo1|nodo0_0D|0D|0 -->
<g id="node7" class="node">
<title>nodo2|nodo1|nodo0_0D|0D|0</title>
<polygon fill="none" stroke="black" points="180,-0.5 180,-69.5 234,-69.5 234,-0.5 180,-0.5"/>
<text text-anchor="middle" x="207" y="-54.3" font-family="Times New Roman,serif" font-size="14.00"> </text>
<polyline fill="none" stroke="black" points="180,-46.5 234,-46.5 "/>
<text text-anchor="middle" x="207" y="-31.3" font-family="Times New Roman,serif" font-size="14.00">200</text>
<polyline fill="none" stroke="black" points="180,-23.5 234,-23.5 "/>
<text text-anchor="middle" x="207" y="-8.3" font-family="Times New Roman,serif" font-size="14.00"> </text>
</g>
<!-- nodo1|nodo0_0D|0&#45;&gt;nodo2|nodo1|nodo0_0D|0D|0 -->
<g id="edge5" class="edge">
<title>nodo1|nodo0_0D|0:f2&#45;&gt;nodo2|nodo1|nodo0_0D|0D|0:f1</title>
<path fill="none" stroke="black" d="M153.63,-92.11C166.73,-81.99 157.3,-48.29 170.23,-38.01"/>
<polygon fill="black" stroke="black" points="152.57,-88.77 144,-95 154.58,-95.47 152.57,-88.77"/>
<polygon fill="black" stroke="black" points="171.47,-41.29 180,-35 169.41,-34.6 171.47,-41.29"/>
</g>
</g>
</svg>
