<?xml version="1.0" encoding="UTF-8" standalone="no"?>
<!DOCTYPE svg PUBLIC "-//W3C//DTD SVG 1.1//EN"
 "http://www.w3.org/Graphics/SVG/1.1/DTD/svg11.dtd">
<!-- Generated by graphviz version 2.48.0 (20210717.1556)
 -->
<!-- Title: G Pages: 1 -->
<svg width="242pt" height="313pt"
 viewBox="0.00 0.00 242.00 313.00" xmlns="http://www.w3.org/2000/svg" xmlns:xlink="http://www.w3.org/1999/xlink">
<g id="graph0" class="graph" transform="scale(1 1) rotate(0) translate(4 309)">
<title>G</title>
<polygon fill="white" stroke="transparent" points="-4,4 -4,-309 238,-309 238,4 -4,4"/>
<!-- nodo0_0 -->
<g id="node1" class="node">
<title>nodo0_0</title>
<polygon fill="none" stroke="black" points="90,-212.5 90,-281.5 144,-281.5 144,-212.5 90,-212.5"/>
<text text-anchor="middle" x="117" y="-266.3" font-family="Times New Roman,serif" font-size="14.00"> </text>
<polyline fill="none" stroke="black" points="90,-258.5 144,-258.5 "/>
<text text-anchor="middle" x="117" y="-243.3" font-family="Times New Roman,serif" font-size="14.00">30</text>
<polyline fill="none" stroke="black" points="90,-235.5 144,-235.5 "/>
<text text-anchor="middle" x="117" y="-220.3" font-family="Times New Roman,serif" font-size="14.00"> </text>
</g>
<!-- nodo1|nodo0_0I|0 -->
<g id="node2" class="node">
<title>nodo1|nodo0_0I|0</title>
<polygon fill="none" stroke="black" points="180,-235.5 180,-304.5 234,-304.5 234,-235.5 180,-235.5"/>
<text text-anchor="middle" x="207" y="-289.3" font-family="Times New Roman,serif" font-size="14.00"> </text>
<polyline fill="none" stroke="black" points="180,-281.5 234,-281.5 "/>
<text text-anchor="middle" x="207" y="-266.3" font-family="Times New Roman,serif" font-size="14.00">20</text>
<polyline fill="none" stroke="black" points="180,-258.5 234,-258.5 "/>
<text text-anchor="middle" x="207" y="-243.3" font-family="Times New Roman,serif" font-size="14.00"> </text>
</g>
<!-- nodo0_0&#45;&gt;nodo1|nodo0_0I|0 -->
<g id="edge1" class="edge">
<title>nodo0_0:f0&#45;&gt;nodo1|nodo0_0I|0:f1</title>
<path fill="none" stroke="black" d="M154.12,-270C159.79,-270 163.99,-270 169.61,-270"/>
<polygon fill="black" stroke="black" points="154,-266.5 144,-270 154,-273.5 154,-266.5"/>
<polygon fill="black" stroke="black" points="170,-273.5 180,-270 170,-266.5 170,-273.5"/>
</g>
<!-- nodo0_1 -->
<g id="node3" class="node">
<title>nodo0_1</title>
<polygon fill="none" stroke="black" points="0,-83.5 0,-152.5 54,-152.5 54,-83.5 0,-83.5"/>
<text text-anchor="middle" x="27" y="-137.3" font-family="Times New Roman,serif" font-size="14.00"> </text>
<polyline fill="none" stroke="black" points="0,-129.5 54,-129.5 "/>
<text text-anchor="middle" x="27" y="-114.3" font-family="Times New Roman,serif" font-size="14.00">90</text>
<polyline fill="none" stroke="black" points="0,-106.5 54,-106.5 "/>
<text text-anchor="middle" x="27" y="-91.3" font-family="Times New Roman,serif" font-size="14.00"> </text>
</g>
<!-- nodo0_1&#45;&gt;nodo0_0 -->
<g id="edge4" class="edge">
<title>nodo0_1:f0&#45;&gt;nodo0_0:f2</title>
<path fill="none" stroke="black" d="M63.81,-143.39C83.54,-155.46 60.47,-209.51 80.17,-221.6"/>
<polygon fill="black" stroke="black" points="64.54,-139.97 54,-141 62.88,-146.77 64.54,-139.97"/>
<polygon fill="black" stroke="black" points="79.45,-225.02 90,-224 81.12,-218.22 79.45,-225.02"/>
</g>
<!-- nodo1|nodo0_1I|0 -->
<g id="node4" class="node">
<title>nodo1|nodo0_1I|0</title>
<polygon fill="none" stroke="black" points="90,-106.5 90,-175.5 144,-175.5 144,-106.5 90,-106.5"/>
<text text-anchor="middle" x="117" y="-160.3" font-family="Times New Roman,serif" font-size="14.00"> </text>
<polyline fill="none" stroke="black" points="90,-152.5 144,-152.5 "/>
<text text-anchor="middle" x="117" y="-137.3" font-family="Times New Roman,serif" font-size="14.00">40</text>
<polyline fill="none" stroke="black" points="90,-129.5 144,-129.5 "/>
<text text-anchor="middle" x="117" y="-114.3" font-family="Times New Roman,serif" font-size="14.00"> </text>
</g>
<!-- nodo0_1&#45;&gt;nodo1|nodo0_1I|0 -->
<g id="edge2" class="edge">
<title>nodo0_1:f0&#45;&gt;nodo1|nodo0_1I|0:f1</title>
<path fill="none" stroke="black" d="M64.12,-141C69.79,-141 73.99,-141 79.61,-141"/>
<polygon fill="black" stroke="black" points="64,-137.5 54,-141 64,-144.5 64,-137.5"/>
<polygon fill="black" stroke="black" points="80,-144.5 90,-141 80,-137.5 80,-144.5"/>
</g>
<!-- nodo1|nodo0_1D|0 -->
<g id="node5" class="node">
<title>nodo1|nodo0_1D|0</title>
<polygon fill="none" stroke="black" points="90,-0.5 90,-69.5 144,-69.5 144,-0.5 90,-0.5"/>
<text text-anchor="middle" x="117" y="-54.3" font-family="Times New Roman,serif" font-size="14.00"> </text>
<polyline fill="none" stroke="black" points="90,-46.5 144,-46.5 "/>
<text text-anchor="middle" x="117" y="-31.3" font-family="Times New Roman,serif" font-size="14.00">100</text>
<polyline fill="none" stroke="black" points="90,-23.5 144,-23.5 "/>
<text text-anchor="middle" x="117" y="-8.3" font-family="Times New Roman,serif" font-size="14.00"> </text>
</g>
<!-- nodo0_1&#45;&gt;nodo1|nodo0_1D|0 -->
<g id="edge3" class="edge">
<title>nodo0_1:f2&#45;&gt;nodo1|nodo0_1D|0:f1</title>
<path fill="none" stroke="black" d="M63.63,-92.11C76.73,-81.99 67.3,-48.29 80.23,-38.01"/>
<polygon fill="black" stroke="black" points="62.57,-88.77 54,-95 64.58,-95.47 62.57,-88.77"/>
<polygon fill="black" stroke="black" points="81.47,-41.29 90,-35 79.41,-34.6 81.47,-41.29"/>
</g>
</g>
</svg>
