<?xml version="1.0" encoding="UTF-8" standalone="no"?>
<!DOCTYPE svg PUBLIC "-//W3C//DTD SVG 1.1//EN"
 "http://www.w3.org/Graphics/SVG/1.1/DTD/svg11.dtd">
<!-- Generated by graphviz version 2.48.0 (20210717.1556)
 -->
<!-- Title: G Pages: 1 -->
<svg width="2751pt" height="92pt"
 viewBox="0.00 0.00 2751.00 92.00" xmlns="http://www.w3.org/2000/svg" xmlns:xlink="http://www.w3.org/1999/xlink">
<g id="graph0" class="graph" transform="scale(1 1) rotate(0) translate(4 88)">
<title>G</title>
<polygon fill="white" stroke="transparent" points="-4,4 -4,-88 2747,-88 2747,4 -4,4"/>
<!-- node0 -->
<g id="node1" class="node">
<title>node0</title>
<polygon fill="none" stroke="black" points="996,-60.5 996,-83.5 1685,-83.5 1685,-60.5 996,-60.5"/>
<text text-anchor="middle" x="1006" y="-68.3" font-family="Times New Roman,serif" font-size="14.00"> </text>
<polyline fill="none" stroke="black" points="1016,-60.5 1016,-83.5 "/>
<text text-anchor="middle" x="1096.5" y="-68.3" font-family="Times New Roman,serif" font-size="14.00">101&#45;&#45;Matemática Básica 1</text>
<polyline fill="none" stroke="black" points="1177,-60.5 1177,-83.5 "/>
<text text-anchor="middle" x="1187" y="-68.3" font-family="Times New Roman,serif" font-size="14.00"> </text>
<polyline fill="none" stroke="black" points="1197,-60.5 1197,-83.5 "/>
<text text-anchor="middle" x="1271.5" y="-68.3" font-family="Times New Roman,serif" font-size="14.00">348&#45;&#45;Quimica General 1</text>
<polyline fill="none" stroke="black" points="1346,-60.5 1346,-83.5 "/>
<text text-anchor="middle" x="1356" y="-68.3" font-family="Times New Roman,serif" font-size="14.00"> </text>
<polyline fill="none" stroke="black" points="1366,-60.5 1366,-83.5 "/>
<text text-anchor="middle" x="1515.5" y="-68.3" font-family="Times New Roman,serif" font-size="14.00">777&#45;&#45;Organización de Lenguajes y Compiladores 1</text>
<polyline fill="none" stroke="black" points="1665,-60.5 1665,-83.5 "/>
<text text-anchor="middle" x="1675" y="-68.3" font-family="Times New Roman,serif" font-size="14.00"> </text>
</g>
<!-- node1 -->
<g id="node2" class="node">
<title>node1</title>
<polygon fill="none" stroke="black" points="0,-0.5 0,-23.5 577,-23.5 577,-0.5 0,-0.5"/>
<text text-anchor="middle" x="10" y="-8.3" font-family="Times New Roman,serif" font-size="14.00"> </text>
<polyline fill="none" stroke="black" points="20,-0.5 20,-23.5 "/>
<text text-anchor="middle" x="136.5" y="-8.3" font-family="Times New Roman,serif" font-size="14.00">5&#45;&#45;Técnicas de Estudio e Investigación</text>
<polyline fill="none" stroke="black" points="253,-0.5 253,-23.5 "/>
<text text-anchor="middle" x="263" y="-8.3" font-family="Times New Roman,serif" font-size="14.00"> </text>
<polyline fill="none" stroke="black" points="273,-0.5 273,-23.5 "/>
<text text-anchor="middle" x="354.5" y="-8.3" font-family="Times New Roman,serif" font-size="14.00">18&#45;&#45;Filosofia de la Ciencia</text>
<polyline fill="none" stroke="black" points="436,-0.5 436,-23.5 "/>
<text text-anchor="middle" x="446" y="-8.3" font-family="Times New Roman,serif" font-size="14.00"> </text>
<polyline fill="none" stroke="black" points="456,-0.5 456,-23.5 "/>
<text text-anchor="middle" x="506.5" y="-8.3" font-family="Times New Roman,serif" font-size="14.00">39&#45;&#45;Deportes 1</text>
<polyline fill="none" stroke="black" points="557,-0.5 557,-23.5 "/>
<text text-anchor="middle" x="567" y="-8.3" font-family="Times New Roman,serif" font-size="14.00"> </text>
</g>
<!-- node0&#45;&gt;node1 -->
<g id="edge1" class="edge">
<title>node0:f0&#45;&gt;node1</title>
<path fill="none" stroke="black" d="M984.36,-71.98C762.22,-71.1 504.98,-41.78 374.29,-24.81"/>
<polygon fill="black" stroke="black" points="984.49,-75.48 994.5,-72 984.51,-68.48 984.49,-75.48"/>
<polygon fill="black" stroke="black" points="374.7,-21.34 364.33,-23.51 373.8,-28.28 374.7,-21.34"/>
</g>
<!-- node2 -->
<g id="node3" class="node">
<title>node2</title>
<polygon fill="none" stroke="black" points="613.5,-0.5 613.5,-23.5 1207.5,-23.5 1207.5,-0.5 613.5,-0.5"/>
<text text-anchor="middle" x="623.5" y="-8.3" font-family="Times New Roman,serif" font-size="14.00"> </text>
<polyline fill="none" stroke="black" points="633.5,-0.5 633.5,-23.5 "/>
<text text-anchor="middle" x="714" y="-8.3" font-family="Times New Roman,serif" font-size="14.00">103&#45;&#45;Matemática Básica 2</text>
<polyline fill="none" stroke="black" points="794.5,-0.5 794.5,-23.5 "/>
<text text-anchor="middle" x="804.5" y="-8.3" font-family="Times New Roman,serif" font-size="14.00"> </text>
<polyline fill="none" stroke="black" points="814.5,-0.5 814.5,-23.5 "/>
<text text-anchor="middle" x="905.5" y="-8.3" font-family="Times New Roman,serif" font-size="14.00">107&#45;&#45;Mátematica Intermedia 1</text>
<polyline fill="none" stroke="black" points="996.5,-0.5 996.5,-23.5 "/>
<text text-anchor="middle" x="1006.5" y="-8.3" font-family="Times New Roman,serif" font-size="14.00"> </text>
<polyline fill="none" stroke="black" points="1016.5,-0.5 1016.5,-23.5 "/>
<text text-anchor="middle" x="1102" y="-8.3" font-family="Times New Roman,serif" font-size="14.00">281&#45;&#45;Sistemas Operativos 1</text>
<polyline fill="none" stroke="black" points="1187.5,-0.5 1187.5,-23.5 "/>
<text text-anchor="middle" x="1197.5" y="-8.3" font-family="Times New Roman,serif" font-size="14.00"> </text>
</g>
<!-- node0&#45;&gt;node2 -->
<g id="edge2" class="edge">
<title>node0:f1&#45;&gt;node2</title>
<path fill="none" stroke="black" d="M1180.37,-52.08C1161.82,-40.28 1104.07,-31.11 1046.73,-24.63"/>
<polygon fill="black" stroke="black" points="1177.61,-54.24 1186.5,-60 1183.14,-49.95 1177.61,-54.24"/>
<polygon fill="black" stroke="black" points="1047.11,-21.15 1036.79,-23.54 1046.34,-28.11 1047.11,-21.15"/>
</g>
<!-- node3 -->
<g id="node4" class="node">
<title>node3</title>
<polygon fill="none" stroke="black" points="1243.5,-0.5 1243.5,-23.5 2023.5,-23.5 2023.5,-0.5 1243.5,-0.5"/>
<text text-anchor="middle" x="1253.5" y="-8.3" font-family="Times New Roman,serif" font-size="14.00"> </text>
<polyline fill="none" stroke="black" points="1263.5,-0.5 1263.5,-23.5 "/>
<text text-anchor="middle" x="1425" y="-8.3" font-family="Times New Roman,serif" font-size="14.00">770&#45;&#45;Introducción a la Programación y Computación 1</text>
<polyline fill="none" stroke="black" points="1586.5,-0.5 1586.5,-23.5 "/>
<text text-anchor="middle" x="1596.5" y="-8.3" font-family="Times New Roman,serif" font-size="14.00"> </text>
<polyline fill="none" stroke="black" points="1606.5,-0.5 1606.5,-23.5 "/>
<text text-anchor="middle" x="1688" y="-8.3" font-family="Times New Roman,serif" font-size="14.00">772&#45;&#45;Estructuras de Datos</text>
<polyline fill="none" stroke="black" points="1769.5,-0.5 1769.5,-23.5 "/>
<text text-anchor="middle" x="1779.5" y="-8.3" font-family="Times New Roman,serif" font-size="14.00"> </text>
<polyline fill="none" stroke="black" points="1789.5,-0.5 1789.5,-23.5 "/>
<text text-anchor="middle" x="1896.5" y="-8.3" font-family="Times New Roman,serif" font-size="14.00">774&#45;&#45;Sistemas de Bases de Datos 1</text>
<polyline fill="none" stroke="black" points="2003.5,-0.5 2003.5,-23.5 "/>
<text text-anchor="middle" x="2013.5" y="-8.3" font-family="Times New Roman,serif" font-size="14.00"> </text>
</g>
<!-- node0&#45;&gt;node3 -->
<g id="edge3" class="edge">
<title>node0:f2&#45;&gt;node3</title>
<path fill="none" stroke="black" d="M1362.63,-52.07C1381.19,-40.26 1438.95,-31.1 1496.39,-24.64"/>
<polygon fill="black" stroke="black" points="1359.85,-49.95 1356.5,-60 1365.39,-54.23 1359.85,-49.95"/>
<polygon fill="black" stroke="black" points="1496.79,-28.11 1506.35,-23.54 1496.03,-21.16 1496.79,-28.11"/>
</g>
<!-- node4 -->
<g id="node5" class="node">
<title>node4</title>
<polygon fill="none" stroke="black" points="2060,-0.5 2060,-23.5 2743,-23.5 2743,-0.5 2060,-0.5"/>
<text text-anchor="middle" x="2070" y="-8.3" font-family="Times New Roman,serif" font-size="14.00"> </text>
<polyline fill="none" stroke="black" points="2080,-0.5 2080,-23.5 "/>
<text text-anchor="middle" x="2213" y="-8.3" font-family="Times New Roman,serif" font-size="14.00">796&#45;&#45;Lenguajes Formales y de Programación</text>
<polyline fill="none" stroke="black" points="2346,-0.5 2346,-23.5 "/>
<text text-anchor="middle" x="2356" y="-8.3" font-family="Times New Roman,serif" font-size="14.00"> </text>
<polyline fill="none" stroke="black" points="2366,-0.5 2366,-23.5 "/>
<text text-anchor="middle" x="2454.5" y="-8.3" font-family="Times New Roman,serif" font-size="14.00">960&#45;&#45;Matemática Cómputo 1</text>
<polyline fill="none" stroke="black" points="2543,-0.5 2543,-23.5 "/>
<text text-anchor="middle" x="2553" y="-8.3" font-family="Times New Roman,serif" font-size="14.00"> </text>
<polyline fill="none" stroke="black" points="2563,-0.5 2563,-23.5 "/>
<text text-anchor="middle" x="2643" y="-8.3" font-family="Times New Roman,serif" font-size="14.00">2036&#45;&#45;Práctica Intermedia</text>
<polyline fill="none" stroke="black" points="2723,-0.5 2723,-23.5 "/>
<text text-anchor="middle" x="2733" y="-8.3" font-family="Times New Roman,serif" font-size="14.00"> </text>
</g>
<!-- node0&#45;&gt;node4 -->
<g id="edge4" class="edge">
<title>node0:f3&#45;&gt;node4</title>
<path fill="none" stroke="black" d="M1696.77,-71.98C1921.72,-71.1 2182.25,-41.78 2314.62,-24.81"/>
<polygon fill="black" stroke="black" points="1696.49,-68.48 1686.5,-72 1696.51,-75.48 1696.49,-68.48"/>
<polygon fill="black" stroke="black" points="2315.23,-28.26 2324.7,-23.51 2314.33,-21.32 2315.23,-28.26"/>
</g>
</g>
</svg>
