<?xml version="1.0" encoding="UTF-8" standalone="no"?>
<!DOCTYPE svg PUBLIC "-//W3C//DTD SVG 1.1//EN"
 "http://www.w3.org/Graphics/SVG/1.1/DTD/svg11.dtd">
<!-- Generated by graphviz version 2.48.0 (20210717.1556)
 -->
<!-- Title: G Pages: 1 -->
<svg width="903pt" height="184pt"
 viewBox="0.00 0.00 903.00 184.00" xmlns="http://www.w3.org/2000/svg" xmlns:xlink="http://www.w3.org/1999/xlink">
<g id="graph0" class="graph" transform="scale(1 1) rotate(0) translate(4 180)">
<title>G</title>
<polygon fill="white" stroke="transparent" points="-4,4 -4,-180 899,-180 899,4 -4,4"/>
<g id="clust9" class="cluster">
<title>cluster_nodo2|nodo1|nodo0_1D|0I|0_contenedor</title>
<polygon fill="none" stroke="black" points="446,-8 446,-48 540,-48 540,-8 446,-8"/>
</g>
<g id="clust1" class="cluster">
<title>cluster_raiz</title>
<polygon fill="none" stroke="black" points="199,-128 199,-168 399,-168 399,-128 199,-128"/>
</g>
<g id="clust7" class="cluster">
<title>cluster_nodo2|nodo1|nodo0_1I|0D|0_contenedor</title>
<polygon fill="none" stroke="black" points="333,-8 333,-48 427,-48 427,-8 333,-8"/>
</g>
<g id="clust8" class="cluster">
<title>cluster_nodo1|nodo0_1D|0_contenedor</title>
<polygon fill="none" stroke="black" points="475,-68 475,-108 682,-108 682,-68 475,-68"/>
</g>
<g id="clust2" class="cluster">
<title>cluster_nodo1|nodo0_0I|0_contenedor</title>
<polygon fill="none" stroke="black" points="89,-68 89,-108 175,-108 175,-68 89,-68"/>
</g>
<g id="clust3" class="cluster">
<title>cluster_nodo2|nodo1|nodo0_0I|0I|0_contenedor</title>
<polygon fill="none" stroke="black" points="8,-8 8,-48 94,-48 94,-8 8,-8"/>
</g>
<g id="clust4" class="cluster">
<title>cluster_nodo2|nodo1|nodo0_0I|0D|0_contenedor</title>
<polygon fill="none" stroke="black" points="114,-8 114,-48 200,-48 200,-8 114,-8"/>
</g>
<g id="clust5" class="cluster">
<title>cluster_nodo1|nodo0_1I|0_contenedor</title>
<polygon fill="none" stroke="black" points="276,-68 276,-108 370,-108 370,-68 276,-68"/>
</g>
<g id="clust6" class="cluster">
<title>cluster_nodo2|nodo1|nodo0_1I|0I|0_contenedor</title>
<polygon fill="none" stroke="black" points="220,-8 220,-48 314,-48 314,-8 220,-8"/>
</g>
<g id="clust10" class="cluster">
<title>cluster_nodo2|nodo1|nodo0_1D|1I|0_contenedor</title>
<polygon fill="none" stroke="black" points="559,-8 559,-48 653,-48 653,-8 559,-8"/>
</g>
<g id="clust11" class="cluster">
<title>cluster_nodo2|nodo1|nodo0_1D|1D|0_contenedor</title>
<polygon fill="none" stroke="black" points="673,-8 673,-48 887,-48 887,-8 673,-8"/>
</g>
<!-- nodo0_0 -->
<g id="node1" class="node">
<title>nodo0_0</title>
<polygon fill="none" stroke="black" points="207,-136.5 207,-159.5 277,-159.5 277,-136.5 207,-136.5"/>
<text text-anchor="middle" x="217" y="-144.3" font-family="Times New Roman,serif" font-size="14.00"> </text>
<polyline fill="none" stroke="black" points="227,-136.5 227,-159.5 "/>
<text text-anchor="middle" x="242" y="-144.3" font-family="Times New Roman,serif" font-size="14.00">90</text>
<polyline fill="none" stroke="black" points="257,-136.5 257,-159.5 "/>
<text text-anchor="middle" x="267" y="-144.3" font-family="Times New Roman,serif" font-size="14.00"> </text>
</g>
<!-- nodo1|nodo0_0I|0 -->
<g id="node2" class="node">
<title>nodo1|nodo0_0I|0</title>
<polygon fill="none" stroke="black" points="97,-76.5 97,-99.5 167,-99.5 167,-76.5 97,-76.5"/>
<text text-anchor="middle" x="107" y="-84.3" font-family="Times New Roman,serif" font-size="14.00"> </text>
<polyline fill="none" stroke="black" points="117,-76.5 117,-99.5 "/>
<text text-anchor="middle" x="132" y="-84.3" font-family="Times New Roman,serif" font-size="14.00">30</text>
<polyline fill="none" stroke="black" points="147,-76.5 147,-99.5 "/>
<text text-anchor="middle" x="157" y="-84.3" font-family="Times New Roman,serif" font-size="14.00"> </text>
</g>
<!-- nodo0_0&#45;&gt;nodo1|nodo0_0I|0 -->
<g id="edge3" class="edge">
<title>nodo0_0:f0&#45;&gt;nodo1|nodo0_0I|0</title>
<path fill="none" stroke="black" d="M195.78,-146.85C177.84,-142.86 162.28,-129.09 151.01,-115.98"/>
<polygon fill="black" stroke="black" points="195.67,-150.36 206,-148 196.45,-143.41 195.67,-150.36"/>
<polygon fill="black" stroke="black" points="153.58,-113.58 144.57,-108 148.13,-117.98 153.58,-113.58"/>
</g>
<!-- nodo2|nodo1|nodo0_0I|0I|0 -->
<g id="node3" class="node">
<title>nodo2|nodo1|nodo0_0I|0I|0</title>
<polygon fill="none" stroke="black" points="16,-16.5 16,-39.5 86,-39.5 86,-16.5 16,-16.5"/>
<text text-anchor="middle" x="26" y="-24.3" font-family="Times New Roman,serif" font-size="14.00"> </text>
<polyline fill="none" stroke="black" points="36,-16.5 36,-39.5 "/>
<text text-anchor="middle" x="51" y="-24.3" font-family="Times New Roman,serif" font-size="14.00">20</text>
<polyline fill="none" stroke="black" points="66,-16.5 66,-39.5 "/>
<text text-anchor="middle" x="76" y="-24.3" font-family="Times New Roman,serif" font-size="14.00"> </text>
</g>
<!-- nodo1|nodo0_0I|0&#45;&gt;nodo2|nodo1|nodo0_0I|0I|0 -->
<g id="edge1" class="edge">
<title>nodo1|nodo0_0I|0:f0&#45;&gt;nodo2|nodo1|nodo0_0I|0I|0</title>
<path fill="none" stroke="black" d="M105.08,-64.94C103.66,-61.32 101.52,-58 98.9,-54.96"/>
<polygon fill="black" stroke="black" points="101.69,-65.83 107,-75 108.56,-64.52 101.69,-65.83"/>
<polygon fill="black" stroke="black" points="101.21,-52.33 91.54,-48 96.4,-57.41 101.21,-52.33"/>
</g>
<!-- nodo2|nodo1|nodo0_0I|0D|0 -->
<g id="node4" class="node">
<title>nodo2|nodo1|nodo0_0I|0D|0</title>
<polygon fill="none" stroke="black" points="122,-16.5 122,-39.5 192,-39.5 192,-16.5 122,-16.5"/>
<text text-anchor="middle" x="132" y="-24.3" font-family="Times New Roman,serif" font-size="14.00"> </text>
<polyline fill="none" stroke="black" points="142,-16.5 142,-39.5 "/>
<text text-anchor="middle" x="157" y="-24.3" font-family="Times New Roman,serif" font-size="14.00">40</text>
<polyline fill="none" stroke="black" points="172,-16.5 172,-39.5 "/>
<text text-anchor="middle" x="182" y="-24.3" font-family="Times New Roman,serif" font-size="14.00"> </text>
</g>
<!-- nodo1|nodo0_0I|0&#45;&gt;nodo2|nodo1|nodo0_0I|0D|0 -->
<g id="edge2" class="edge">
<title>nodo1|nodo0_0I|0:f2&#45;&gt;nodo2|nodo1|nodo0_0I|0D|0</title>
<path fill="none" stroke="black" d="M157,-64.77C157,-59.6 157,-54.43 157,-49.68"/>
<polygon fill="black" stroke="black" points="153.5,-65 157,-75 160.5,-65 153.5,-65"/>
<polygon fill="black" stroke="black" points="160.5,-58 157,-48 153.5,-58 160.5,-58"/>
</g>
<!-- nodo0_1 -->
<g id="node5" class="node">
<title>nodo0_1</title>
<polygon fill="none" stroke="black" points="313.5,-136.5 313.5,-159.5 390.5,-159.5 390.5,-136.5 313.5,-136.5"/>
<text text-anchor="middle" x="323.5" y="-144.3" font-family="Times New Roman,serif" font-size="14.00"> </text>
<polyline fill="none" stroke="black" points="333.5,-136.5 333.5,-159.5 "/>
<text text-anchor="middle" x="352" y="-144.3" font-family="Times New Roman,serif" font-size="14.00">400</text>
<polyline fill="none" stroke="black" points="370.5,-136.5 370.5,-159.5 "/>
<text text-anchor="middle" x="380.5" y="-144.3" font-family="Times New Roman,serif" font-size="14.00"> </text>
</g>
<!-- nodo1|nodo0_1I|0 -->
<g id="node6" class="node">
<title>nodo1|nodo0_1I|0</title>
<polygon fill="none" stroke="black" points="284.5,-76.5 284.5,-99.5 361.5,-99.5 361.5,-76.5 284.5,-76.5"/>
<text text-anchor="middle" x="294.5" y="-84.3" font-family="Times New Roman,serif" font-size="14.00"> </text>
<polyline fill="none" stroke="black" points="304.5,-76.5 304.5,-99.5 "/>
<text text-anchor="middle" x="323" y="-84.3" font-family="Times New Roman,serif" font-size="14.00">200</text>
<polyline fill="none" stroke="black" points="341.5,-76.5 341.5,-99.5 "/>
<text text-anchor="middle" x="351.5" y="-84.3" font-family="Times New Roman,serif" font-size="14.00"> </text>
</g>
<!-- nodo0_1&#45;&gt;nodo1|nodo0_1I|0 -->
<g id="edge6" class="edge">
<title>nodo0_1:f0&#45;&gt;nodo1|nodo0_1I|0</title>
<path fill="none" stroke="black" d="M323,-124.77C323,-119.6 323,-114.43 323,-109.68"/>
<polygon fill="black" stroke="black" points="319.5,-125 323,-135 326.5,-125 319.5,-125"/>
<polygon fill="black" stroke="black" points="326.5,-118 323,-108 319.5,-118 326.5,-118"/>
</g>
<!-- nodo1|nodo0_1D|0 -->
<g id="node9" class="node">
<title>nodo1|nodo0_1D|0</title>
<polygon fill="none" stroke="black" points="483.5,-76.5 483.5,-99.5 560.5,-99.5 560.5,-76.5 483.5,-76.5"/>
<text text-anchor="middle" x="493.5" y="-84.3" font-family="Times New Roman,serif" font-size="14.00"> </text>
<polyline fill="none" stroke="black" points="503.5,-76.5 503.5,-99.5 "/>
<text text-anchor="middle" x="522" y="-84.3" font-family="Times New Roman,serif" font-size="14.00">600</text>
<polyline fill="none" stroke="black" points="540.5,-76.5 540.5,-99.5 "/>
<text text-anchor="middle" x="550.5" y="-84.3" font-family="Times New Roman,serif" font-size="14.00"> </text>
</g>
<!-- nodo0_1&#45;&gt;nodo1|nodo0_1D|0 -->
<g id="edge10" class="edge">
<title>nodo0_1:f2&#45;&gt;nodo1|nodo0_1D|0</title>
<path fill="none" stroke="black" d="M402.06,-147.52C433.96,-144.56 465.71,-128.32 488.53,-113.7"/>
<polygon fill="black" stroke="black" points="401.82,-144.03 392,-148 402.15,-151.02 401.82,-144.03"/>
<polygon fill="black" stroke="black" points="490.72,-116.44 497.12,-108 486.85,-110.61 490.72,-116.44"/>
</g>
<!-- nodo2|nodo1|nodo0_1I|0I|0 -->
<g id="node7" class="node">
<title>nodo2|nodo1|nodo0_1I|0I|0</title>
<polygon fill="none" stroke="black" points="228.5,-16.5 228.5,-39.5 305.5,-39.5 305.5,-16.5 228.5,-16.5"/>
<text text-anchor="middle" x="238.5" y="-24.3" font-family="Times New Roman,serif" font-size="14.00"> </text>
<polyline fill="none" stroke="black" points="248.5,-16.5 248.5,-39.5 "/>
<text text-anchor="middle" x="267" y="-24.3" font-family="Times New Roman,serif" font-size="14.00">100</text>
<polyline fill="none" stroke="black" points="285.5,-16.5 285.5,-39.5 "/>
<text text-anchor="middle" x="295.5" y="-24.3" font-family="Times New Roman,serif" font-size="14.00"> </text>
</g>
<!-- nodo1|nodo0_1I|0&#45;&gt;nodo2|nodo1|nodo0_1I|0I|0 -->
<g id="edge4" class="edge">
<title>nodo1|nodo0_1I|0:f0&#45;&gt;nodo2|nodo1|nodo0_1I|0I|0</title>
<path fill="none" stroke="black" d="M292.51,-65.01C291.68,-62.14 290.55,-59.34 289.23,-56.65"/>
<polygon fill="black" stroke="black" points="289.06,-65.63 294,-75 295.99,-64.59 289.06,-65.63"/>
<polygon fill="black" stroke="black" points="292.21,-54.83 284.11,-48 286.18,-58.39 292.21,-54.83"/>
</g>
<!-- nodo2|nodo1|nodo0_1I|0D|0 -->
<g id="node8" class="node">
<title>nodo2|nodo1|nodo0_1I|0D|0</title>
<polygon fill="none" stroke="black" points="341.5,-16.5 341.5,-39.5 418.5,-39.5 418.5,-16.5 341.5,-16.5"/>
<text text-anchor="middle" x="351.5" y="-24.3" font-family="Times New Roman,serif" font-size="14.00"> </text>
<polyline fill="none" stroke="black" points="361.5,-16.5 361.5,-39.5 "/>
<text text-anchor="middle" x="380" y="-24.3" font-family="Times New Roman,serif" font-size="14.00">300</text>
<polyline fill="none" stroke="black" points="398.5,-16.5 398.5,-39.5 "/>
<text text-anchor="middle" x="408.5" y="-24.3" font-family="Times New Roman,serif" font-size="14.00"> </text>
</g>
<!-- nodo1|nodo0_1I|0&#45;&gt;nodo2|nodo1|nodo0_1I|0D|0 -->
<g id="edge5" class="edge">
<title>nodo1|nodo0_1I|0:f2&#45;&gt;nodo2|nodo1|nodo0_1I|0D|0</title>
<path fill="none" stroke="black" d="M353.55,-64.94C354.4,-62.07 355.56,-59.28 356.92,-56.61"/>
<polygon fill="black" stroke="black" points="350.06,-64.58 352,-75 356.98,-65.65 350.06,-64.58"/>
<polygon fill="black" stroke="black" points="359.96,-58.36 362.19,-48 353.98,-54.71 359.96,-58.36"/>
</g>
<!-- nodo2|nodo1|nodo0_1D|0I|0 -->
<g id="node10" class="node">
<title>nodo2|nodo1|nodo0_1D|0I|0</title>
<polygon fill="none" stroke="black" points="454.5,-16.5 454.5,-39.5 531.5,-39.5 531.5,-16.5 454.5,-16.5"/>
<text text-anchor="middle" x="464.5" y="-24.3" font-family="Times New Roman,serif" font-size="14.00"> </text>
<polyline fill="none" stroke="black" points="474.5,-16.5 474.5,-39.5 "/>
<text text-anchor="middle" x="493" y="-24.3" font-family="Times New Roman,serif" font-size="14.00">500</text>
<polyline fill="none" stroke="black" points="511.5,-16.5 511.5,-39.5 "/>
<text text-anchor="middle" x="521.5" y="-24.3" font-family="Times New Roman,serif" font-size="14.00"> </text>
</g>
<!-- nodo1|nodo0_1D|0&#45;&gt;nodo2|nodo1|nodo0_1D|0I|0 -->
<g id="edge7" class="edge">
<title>nodo1|nodo0_1D|0:f0&#45;&gt;nodo2|nodo1|nodo0_1D|0I|0</title>
<path fill="none" stroke="black" d="M493,-64.77C493,-59.6 493,-54.43 493,-49.68"/>
<polygon fill="black" stroke="black" points="489.5,-65 493,-75 496.5,-65 489.5,-65"/>
<polygon fill="black" stroke="black" points="496.5,-58 493,-48 489.5,-58 496.5,-58"/>
</g>
<!-- nodo1|nodo0_1D|1 -->
<g id="node11" class="node">
<title>nodo1|nodo0_1D|1</title>
<polygon fill="none" stroke="black" points="596.5,-76.5 596.5,-99.5 673.5,-99.5 673.5,-76.5 596.5,-76.5"/>
<text text-anchor="middle" x="606.5" y="-84.3" font-family="Times New Roman,serif" font-size="14.00"> </text>
<polyline fill="none" stroke="black" points="616.5,-76.5 616.5,-99.5 "/>
<text text-anchor="middle" x="635" y="-84.3" font-family="Times New Roman,serif" font-size="14.00">800</text>
<polyline fill="none" stroke="black" points="653.5,-76.5 653.5,-99.5 "/>
<text text-anchor="middle" x="663.5" y="-84.3" font-family="Times New Roman,serif" font-size="14.00"> </text>
</g>
<!-- nodo2|nodo1|nodo0_1D|1I|0 -->
<g id="node12" class="node">
<title>nodo2|nodo1|nodo0_1D|1I|0</title>
<polygon fill="none" stroke="black" points="567.5,-16.5 567.5,-39.5 644.5,-39.5 644.5,-16.5 567.5,-16.5"/>
<text text-anchor="middle" x="577.5" y="-24.3" font-family="Times New Roman,serif" font-size="14.00"> </text>
<polyline fill="none" stroke="black" points="587.5,-16.5 587.5,-39.5 "/>
<text text-anchor="middle" x="606" y="-24.3" font-family="Times New Roman,serif" font-size="14.00">700</text>
<polyline fill="none" stroke="black" points="624.5,-16.5 624.5,-39.5 "/>
<text text-anchor="middle" x="634.5" y="-24.3" font-family="Times New Roman,serif" font-size="14.00"> </text>
</g>
<!-- nodo1|nodo0_1D|1&#45;&gt;nodo2|nodo1|nodo0_1D|1I|0 -->
<g id="edge8" class="edge">
<title>nodo1|nodo0_1D|1:f0&#45;&gt;nodo2|nodo1|nodo0_1D|1I|0</title>
<path fill="none" stroke="black" d="M606,-64.77C606,-59.6 606,-54.43 606,-49.68"/>
<polygon fill="black" stroke="black" points="602.5,-65 606,-75 609.5,-65 602.5,-65"/>
<polygon fill="black" stroke="black" points="609.5,-58 606,-48 602.5,-58 609.5,-58"/>
</g>
<!-- nodo2|nodo1|nodo0_1D|1D|0 -->
<g id="node13" class="node">
<title>nodo2|nodo1|nodo0_1D|1D|0</title>
<polygon fill="none" stroke="black" points="801.5,-16.5 801.5,-39.5 878.5,-39.5 878.5,-16.5 801.5,-16.5"/>
<text text-anchor="middle" x="811.5" y="-24.3" font-family="Times New Roman,serif" font-size="14.00"> </text>
<polyline fill="none" stroke="black" points="821.5,-16.5 821.5,-39.5 "/>
<text text-anchor="middle" x="840" y="-24.3" font-family="Times New Roman,serif" font-size="14.00">900</text>
<polyline fill="none" stroke="black" points="858.5,-16.5 858.5,-39.5 "/>
<text text-anchor="middle" x="868.5" y="-24.3" font-family="Times New Roman,serif" font-size="14.00"> </text>
</g>
<!-- nodo1|nodo0_1D|1&#45;&gt;nodo2|nodo1|nodo0_1D|1D|0 -->
<g id="edge9" class="edge">
<title>nodo1|nodo0_1D|1:f2&#45;&gt;nodo2|nodo1|nodo0_1D|1D|0</title>
<path fill="none" stroke="black" d="M685.04,-87.69C726.18,-85.15 768.72,-67.8 798.79,-52.62"/>
<polygon fill="black" stroke="black" points="684.89,-84.19 675,-88 685.1,-91.18 684.89,-84.19"/>
<polygon fill="black" stroke="black" points="800.44,-55.71 807.71,-48 797.22,-49.49 800.44,-55.71"/>
</g>
<!-- nodo2|nodo1|nodo0_1D|1D|1 -->
<g id="node14" class="node">
<title>nodo2|nodo1|nodo0_1D|1D|1</title>
<polygon fill="none" stroke="black" points="681,-16.5 681,-39.5 765,-39.5 765,-16.5 681,-16.5"/>
<text text-anchor="middle" x="691" y="-24.3" font-family="Times New Roman,serif" font-size="14.00"> </text>
<polyline fill="none" stroke="black" points="701,-16.5 701,-39.5 "/>
<text text-anchor="middle" x="723" y="-24.3" font-family="Times New Roman,serif" font-size="14.00">1000</text>
<polyline fill="none" stroke="black" points="745,-16.5 745,-39.5 "/>
<text text-anchor="middle" x="755" y="-24.3" font-family="Times New Roman,serif" font-size="14.00"> </text>
</g>
</g>
</svg>
