<?xml version="1.0" encoding="UTF-8" standalone="no"?>
<!DOCTYPE svg PUBLIC "-//W3C//DTD SVG 1.1//EN"
 "http://www.w3.org/Graphics/SVG/1.1/DTD/svg11.dtd">
<!-- Generated by graphviz version 2.48.0 (20210717.1556)
 -->
<!-- Title: G Pages: 1 -->
<svg width="252pt" height="188pt"
 viewBox="0.00 0.00 251.50 188.00" xmlns="http://www.w3.org/2000/svg" xmlns:xlink="http://www.w3.org/1999/xlink">
<g id="graph0" class="graph" transform="scale(1 1) rotate(0) translate(4 184)">
<title>G</title>
<polygon fill="white" stroke="transparent" points="-4,4 -4,-184 247.5,-184 247.5,4 -4,4"/>
<!-- nodo&#45;16&#45;&#45;1 -->
<g id="node1" class="node">
<title>nodo&#45;16&#45;&#45;1</title>
<polygon fill="none" stroke="black" points="65,-36 0,-36 0,0 65,0 65,-36"/>
<text text-anchor="middle" x="32.5" y="-14.3" font-family="Times New Roman,serif" font-size="14.00">Hora: 16</text>
</g>
<!-- nodo&#45;16&#45;30 -->
<g id="node2" class="node">
<title>nodo&#45;16&#45;30</title>
<polygon fill="none" stroke="black" points="242.5,-36 188.5,-36 188.5,0 242.5,0 242.5,-36"/>
<text text-anchor="middle" x="215.5" y="-14.3" font-family="Times New Roman,serif" font-size="14.00">1</text>
</g>
<!-- nodo&#45;16&#45;&#45;1&#45;&gt;nodo&#45;16&#45;30 -->
<g id="edge4" class="edge">
<title>nodo&#45;16&#45;&#45;1:e&#45;&gt;nodo&#45;16&#45;30:w</title>
<path fill="none" stroke="black" d="M75.12,-18C118.64,-18 134.91,-18 178.45,-18"/>
<polygon fill="black" stroke="black" points="75,-14.5 65,-18 75,-21.5 75,-14.5"/>
<polygon fill="black" stroke="black" points="178.5,-21.5 188.5,-18 178.5,-14.5 178.5,-21.5"/>
</g>
<!-- nodo&#45;8&#45;&#45;1 -->
<g id="node3" class="node">
<title>nodo&#45;8&#45;&#45;1</title>
<polygon fill="none" stroke="black" points="61.5,-108 3.5,-108 3.5,-72 61.5,-72 61.5,-108"/>
<text text-anchor="middle" x="32.5" y="-86.3" font-family="Times New Roman,serif" font-size="14.00">Hora: 8</text>
</g>
<!-- nodo&#45;8&#45;&#45;1&#45;&gt;nodo&#45;16&#45;&#45;1 -->
<g id="edge6" class="edge">
<title>nodo&#45;8&#45;&#45;1:s&#45;&gt;nodo&#45;16&#45;&#45;1:n</title>
<path fill="none" stroke="black" d="M32.5,-61.88C32.5,-56.21 32.5,-52.01 32.5,-46.39"/>
<polygon fill="black" stroke="black" points="29,-62 32.5,-72 36,-62 29,-62"/>
<polygon fill="black" stroke="black" points="36,-46 32.5,-36 29,-46 36,-46"/>
</g>
<!-- nodo&#45;8&#45;7 -->
<g id="node4" class="node">
<title>nodo&#45;8&#45;7</title>
<polygon fill="none" stroke="black" points="151.5,-108 97.5,-108 97.5,-72 151.5,-72 151.5,-108"/>
<text text-anchor="middle" x="124.5" y="-86.3" font-family="Times New Roman,serif" font-size="14.00">1</text>
</g>
<!-- nodo&#45;8&#45;&#45;1&#45;&gt;nodo&#45;8&#45;7 -->
<g id="edge3" class="edge">
<title>nodo&#45;8&#45;&#45;1:e&#45;&gt;nodo&#45;8&#45;7:w</title>
<path fill="none" stroke="black" d="M71.62,-90C77.29,-90 81.49,-90 87.11,-90"/>
<polygon fill="black" stroke="black" points="71.5,-86.5 61.5,-90 71.5,-93.5 71.5,-86.5"/>
<polygon fill="black" stroke="black" points="87.5,-93.5 97.5,-90 87.5,-86.5 87.5,-93.5"/>
</g>
<!-- nodo&#45;&#45;1&#45;&#45;1 -->
<g id="node5" class="node">
<title>nodo&#45;&#45;1&#45;&#45;1</title>
<polygon fill="none" stroke="black" points="59.5,-180 5.5,-180 5.5,-144 59.5,-144 59.5,-180"/>
<text text-anchor="middle" x="32.5" y="-158.3" font-family="Times New Roman,serif" font-size="14.00">0</text>
</g>
<!-- nodo&#45;&#45;1&#45;&#45;1&#45;&gt;nodo&#45;8&#45;&#45;1 -->
<g id="edge5" class="edge">
<title>nodo&#45;&#45;1&#45;&#45;1:s&#45;&gt;nodo&#45;8&#45;&#45;1:n</title>
<path fill="none" stroke="black" d="M32.5,-133.88C32.5,-128.21 32.5,-124.01 32.5,-118.39"/>
<polygon fill="black" stroke="black" points="29,-134 32.5,-144 36,-134 29,-134"/>
<polygon fill="black" stroke="black" points="36,-118 32.5,-108 29,-118 36,-118"/>
</g>
<!-- nodo&#45;&#45;1&#45;7 -->
<g id="node6" class="node">
<title>nodo&#45;&#45;1&#45;7</title>
<polygon fill="none" stroke="black" points="151.5,-180 97.5,-180 97.5,-144 151.5,-144 151.5,-180"/>
<text text-anchor="middle" x="124.5" y="-158.3" font-family="Times New Roman,serif" font-size="14.00">Dia: 7</text>
</g>
<!-- nodo&#45;&#45;1&#45;&#45;1&#45;&gt;nodo&#45;&#45;1&#45;7 -->
<g id="edge1" class="edge">
<title>nodo&#45;&#45;1&#45;&#45;1:e&#45;&gt;nodo&#45;&#45;1&#45;7:w</title>
<path fill="none" stroke="black" d="M69.61,-162C76.11,-162 80.74,-162 87.21,-162"/>
<polygon fill="black" stroke="black" points="69.5,-158.5 59.5,-162 69.5,-165.5 69.5,-158.5"/>
<polygon fill="black" stroke="black" points="87.5,-165.5 97.5,-162 87.5,-158.5 87.5,-165.5"/>
</g>
<!-- nodo&#45;&#45;1&#45;7&#45;&gt;nodo&#45;8&#45;7 -->
<g id="edge7" class="edge">
<title>nodo&#45;&#45;1&#45;7:s&#45;&gt;nodo&#45;8&#45;7:n</title>
<path fill="none" stroke="black" d="M124.5,-133.88C124.5,-128.21 124.5,-124.01 124.5,-118.39"/>
<polygon fill="black" stroke="black" points="121,-134 124.5,-144 128,-134 121,-134"/>
<polygon fill="black" stroke="black" points="128,-118 124.5,-108 121,-118 128,-118"/>
</g>
<!-- nodo&#45;&#45;1&#45;30 -->
<g id="node7" class="node">
<title>nodo&#45;&#45;1&#45;30</title>
<polygon fill="none" stroke="black" points="243.5,-180 187.5,-180 187.5,-144 243.5,-144 243.5,-180"/>
<text text-anchor="middle" x="215.5" y="-158.3" font-family="Times New Roman,serif" font-size="14.00">Dia: 30</text>
</g>
<!-- nodo&#45;&#45;1&#45;7&#45;&gt;nodo&#45;&#45;1&#45;30 -->
<g id="edge2" class="edge">
<title>nodo&#45;&#45;1&#45;7:e&#45;&gt;nodo&#45;&#45;1&#45;30:w</title>
<path fill="none" stroke="black" d="M161.62,-162C167.29,-162 171.49,-162 177.11,-162"/>
<polygon fill="black" stroke="black" points="161.5,-158.5 151.5,-162 161.5,-165.5 161.5,-158.5"/>
<polygon fill="black" stroke="black" points="177.5,-165.5 187.5,-162 177.5,-158.5 177.5,-165.5"/>
</g>
<!-- nodo&#45;&#45;1&#45;30&#45;&gt;nodo&#45;16&#45;30 -->
<g id="edge8" class="edge">
<title>nodo&#45;&#45;1&#45;30:s&#45;&gt;nodo&#45;16&#45;30:n</title>
<path fill="none" stroke="black" d="M215.5,-133.88C215.5,-97.29 215.5,-82.84 215.5,-46.34"/>
<polygon fill="black" stroke="black" points="212,-134 215.5,-144 219,-134 212,-134"/>
<polygon fill="black" stroke="black" points="219,-46 215.5,-36 212,-46 219,-46"/>
</g>
</g>
</svg>
