<?xml version="1.0" encoding="UTF-8" standalone="no"?>
<!DOCTYPE svg PUBLIC "-//W3C//DTD SVG 1.1//EN"
 "http://www.w3.org/Graphics/SVG/1.1/DTD/svg11.dtd">
<!-- Generated by graphviz version 2.48.0 (20210717.1556)
 -->
<!-- Title: G Pages: 1 -->
<svg width="516pt" height="332pt"
 viewBox="0.00 0.00 516.00 332.00" xmlns="http://www.w3.org/2000/svg" xmlns:xlink="http://www.w3.org/1999/xlink">
<g id="graph0" class="graph" transform="scale(1 1) rotate(0) translate(4 328)">
<title>G</title>
<polygon fill="white" stroke="transparent" points="-4,4 -4,-328 512,-328 512,4 -4,4"/>
<!-- nodo&#45;7&#45;&#45;1 -->
<g id="node1" class="node">
<title>nodo&#45;7&#45;&#45;1</title>
<polygon fill="none" stroke="black" points="58,-36 0,-36 0,0 58,0 58,-36"/>
<text text-anchor="middle" x="29" y="-14.3" font-family="Times New Roman,serif" font-size="14.00">Hora: 7</text>
</g>
<!-- nodo&#45;7&#45;3 -->
<g id="node2" class="node">
<title>nodo&#45;7&#45;3</title>
<polygon fill="none" stroke="black" points="328,-36 274,-36 274,0 328,0 328,-36"/>
<text text-anchor="middle" x="301" y="-14.3" font-family="Times New Roman,serif" font-size="14.00">1</text>
</g>
<!-- nodo&#45;7&#45;&#45;1&#45;&gt;nodo&#45;7&#45;3 -->
<g id="edge11" class="edge">
<title>nodo&#45;7&#45;&#45;1:e&#45;&gt;nodo&#45;7&#45;3:w</title>
<path fill="none" stroke="black" d="M68.13,-18C152.57,-18 179.48,-18 263.97,-18"/>
<polygon fill="black" stroke="black" points="68,-14.5 58,-18 68,-21.5 68,-14.5"/>
<polygon fill="black" stroke="black" points="264,-21.5 274,-18 264,-14.5 264,-21.5"/>
</g>
<!-- nodo&#45;3&#45;&#45;1 -->
<g id="node3" class="node">
<title>nodo&#45;3&#45;&#45;1</title>
<polygon fill="none" stroke="black" points="58,-108 0,-108 0,-72 58,-72 58,-108"/>
<text text-anchor="middle" x="29" y="-86.3" font-family="Times New Roman,serif" font-size="14.00">Hora: 3</text>
</g>
<!-- nodo&#45;3&#45;&#45;1&#45;&gt;nodo&#45;7&#45;&#45;1 -->
<g id="edge15" class="edge">
<title>nodo&#45;3&#45;&#45;1:s&#45;&gt;nodo&#45;7&#45;&#45;1:n</title>
<path fill="none" stroke="black" d="M29,-61.88C29,-56.21 29,-52.01 29,-46.39"/>
<polygon fill="black" stroke="black" points="25.5,-62 29,-72 32.5,-62 25.5,-62"/>
<polygon fill="black" stroke="black" points="32.5,-46 29,-36 25.5,-46 32.5,-46"/>
</g>
<!-- nodo&#45;3&#45;4 -->
<g id="node4" class="node">
<title>nodo&#45;3&#45;4</title>
<polygon fill="none" stroke="black" points="418,-108 364,-108 364,-72 418,-72 418,-108"/>
<text text-anchor="middle" x="391" y="-86.3" font-family="Times New Roman,serif" font-size="14.00">1</text>
</g>
<!-- nodo&#45;3&#45;&#45;1&#45;&gt;nodo&#45;3&#45;4 -->
<g id="edge10" class="edge">
<title>nodo&#45;3&#45;&#45;1:e&#45;&gt;nodo&#45;3&#45;4:w</title>
<path fill="none" stroke="black" d="M68.17,-90C192.43,-90 229.51,-90 353.71,-90"/>
<polygon fill="black" stroke="black" points="68,-86.5 58,-90 68,-93.5 68,-86.5"/>
<polygon fill="black" stroke="black" points="354,-93.5 364,-90 354,-86.5 354,-93.5"/>
</g>
<!-- nodo&#45;2&#45;&#45;1 -->
<g id="node5" class="node">
<title>nodo&#45;2&#45;&#45;1</title>
<polygon fill="none" stroke="black" points="58,-180 0,-180 0,-144 58,-144 58,-180"/>
<text text-anchor="middle" x="29" y="-158.3" font-family="Times New Roman,serif" font-size="14.00">Hora: 2</text>
</g>
<!-- nodo&#45;2&#45;&#45;1&#45;&gt;nodo&#45;3&#45;&#45;1 -->
<g id="edge14" class="edge">
<title>nodo&#45;2&#45;&#45;1:s&#45;&gt;nodo&#45;3&#45;&#45;1:n</title>
<path fill="none" stroke="black" d="M29,-133.88C29,-128.21 29,-124.01 29,-118.39"/>
<polygon fill="black" stroke="black" points="25.5,-134 29,-144 32.5,-134 25.5,-134"/>
<polygon fill="black" stroke="black" points="32.5,-118 29,-108 25.5,-118 32.5,-118"/>
</g>
<!-- nodo&#45;2&#45;8 -->
<g id="node6" class="node">
<title>nodo&#45;2&#45;8</title>
<polygon fill="none" stroke="black" points="508,-180 454,-180 454,-144 508,-144 508,-180"/>
<text text-anchor="middle" x="481" y="-158.3" font-family="Times New Roman,serif" font-size="14.00">1</text>
</g>
<!-- nodo&#45;2&#45;&#45;1&#45;&gt;nodo&#45;2&#45;8 -->
<g id="edge9" class="edge">
<title>nodo&#45;2&#45;&#45;1:e&#45;&gt;nodo&#45;2&#45;8:w</title>
<path fill="none" stroke="black" d="M68.16,-162C232.33,-162 279.51,-162 443.54,-162"/>
<polygon fill="black" stroke="black" points="68,-158.5 58,-162 68,-165.5 68,-158.5"/>
<polygon fill="black" stroke="black" points="444,-165.5 454,-162 444,-158.5 444,-165.5"/>
</g>
<!-- nodo&#45;1&#45;&#45;1 -->
<g id="node7" class="node">
<title>nodo&#45;1&#45;&#45;1</title>
<polygon fill="none" stroke="black" points="58,-252 0,-252 0,-216 58,-216 58,-252"/>
<text text-anchor="middle" x="29" y="-230.3" font-family="Times New Roman,serif" font-size="14.00">Hora: 1</text>
</g>
<!-- nodo&#45;1&#45;&#45;1&#45;&gt;nodo&#45;2&#45;&#45;1 -->
<g id="edge13" class="edge">
<title>nodo&#45;1&#45;&#45;1:s&#45;&gt;nodo&#45;2&#45;&#45;1:n</title>
<path fill="none" stroke="black" d="M29,-205.88C29,-200.21 29,-196.01 29,-190.39"/>
<polygon fill="black" stroke="black" points="25.5,-206 29,-216 32.5,-206 25.5,-206"/>
<polygon fill="black" stroke="black" points="32.5,-190 29,-180 25.5,-190 32.5,-190"/>
</g>
<!-- nodo&#45;1&#45;1 -->
<g id="node8" class="node">
<title>nodo&#45;1&#45;1</title>
<polygon fill="none" stroke="black" points="148,-252 94,-252 94,-216 148,-216 148,-252"/>
<text text-anchor="middle" x="121" y="-230.3" font-family="Times New Roman,serif" font-size="14.00">3</text>
</g>
<!-- nodo&#45;1&#45;&#45;1&#45;&gt;nodo&#45;1&#45;1 -->
<g id="edge6" class="edge">
<title>nodo&#45;1&#45;&#45;1:e&#45;&gt;nodo&#45;1&#45;1:w</title>
<path fill="none" stroke="black" d="M68.12,-234C73.79,-234 77.99,-234 83.61,-234"/>
<polygon fill="black" stroke="black" points="68,-230.5 58,-234 68,-237.5 68,-230.5"/>
<polygon fill="black" stroke="black" points="84,-237.5 94,-234 84,-230.5 84,-237.5"/>
</g>
<!-- nodo&#45;1&#45;2 -->
<g id="node9" class="node">
<title>nodo&#45;1&#45;2</title>
<polygon fill="none" stroke="black" points="238,-252 184,-252 184,-216 238,-216 238,-252"/>
<text text-anchor="middle" x="211" y="-230.3" font-family="Times New Roman,serif" font-size="14.00">1</text>
</g>
<!-- nodo&#45;1&#45;1&#45;&gt;nodo&#45;1&#45;2 -->
<g id="edge7" class="edge">
<title>nodo&#45;1&#45;1:e&#45;&gt;nodo&#45;1&#45;2:w</title>
<path fill="none" stroke="black" d="M158.12,-234C163.79,-234 167.99,-234 173.61,-234"/>
<polygon fill="black" stroke="black" points="158,-230.5 148,-234 158,-237.5 158,-230.5"/>
<polygon fill="black" stroke="black" points="174,-237.5 184,-234 174,-230.5 174,-237.5"/>
</g>
<!-- nodo&#45;1&#45;3 -->
<g id="node10" class="node">
<title>nodo&#45;1&#45;3</title>
<polygon fill="none" stroke="black" points="328,-252 274,-252 274,-216 328,-216 328,-252"/>
<text text-anchor="middle" x="301" y="-230.3" font-family="Times New Roman,serif" font-size="14.00">1</text>
</g>
<!-- nodo&#45;1&#45;2&#45;&gt;nodo&#45;1&#45;3 -->
<g id="edge8" class="edge">
<title>nodo&#45;1&#45;2:e&#45;&gt;nodo&#45;1&#45;3:w</title>
<path fill="none" stroke="black" d="M248.12,-234C253.79,-234 257.99,-234 263.61,-234"/>
<polygon fill="black" stroke="black" points="248,-230.5 238,-234 248,-237.5 248,-230.5"/>
<polygon fill="black" stroke="black" points="264,-237.5 274,-234 264,-230.5 264,-237.5"/>
</g>
<!-- nodo&#45;1&#45;3&#45;&gt;nodo&#45;7&#45;3 -->
<g id="edge19" class="edge">
<title>nodo&#45;1&#45;3:s&#45;&gt;nodo&#45;7&#45;3:n</title>
<path fill="none" stroke="black" d="M301,-205.57C301,-137.43 301,-114.55 301,-46.39"/>
<polygon fill="black" stroke="black" points="297.5,-206 301,-216 304.5,-206 297.5,-206"/>
<polygon fill="black" stroke="black" points="304.5,-46 301,-36 297.5,-46 304.5,-46"/>
</g>
<!-- nodo&#45;&#45;1&#45;&#45;1 -->
<g id="node11" class="node">
<title>nodo&#45;&#45;1&#45;&#45;1</title>
<polygon fill="none" stroke="black" points="56,-324 2,-324 2,-288 56,-288 56,-324"/>
<text text-anchor="middle" x="29" y="-302.3" font-family="Times New Roman,serif" font-size="14.00">0</text>
</g>
<!-- nodo&#45;&#45;1&#45;&#45;1&#45;&gt;nodo&#45;1&#45;&#45;1 -->
<g id="edge12" class="edge">
<title>nodo&#45;&#45;1&#45;&#45;1:s&#45;&gt;nodo&#45;1&#45;&#45;1:n</title>
<path fill="none" stroke="black" d="M29,-277.88C29,-272.21 29,-268.01 29,-262.39"/>
<polygon fill="black" stroke="black" points="25.5,-278 29,-288 32.5,-278 25.5,-278"/>
<polygon fill="black" stroke="black" points="32.5,-262 29,-252 25.5,-262 32.5,-262"/>
</g>
<!-- nodo&#45;&#45;1&#45;1 -->
<g id="node12" class="node">
<title>nodo&#45;&#45;1&#45;1</title>
<polygon fill="none" stroke="black" points="148,-324 94,-324 94,-288 148,-288 148,-324"/>
<text text-anchor="middle" x="121" y="-302.3" font-family="Times New Roman,serif" font-size="14.00">Dia: 1</text>
</g>
<!-- nodo&#45;&#45;1&#45;&#45;1&#45;&gt;nodo&#45;&#45;1&#45;1 -->
<g id="edge1" class="edge">
<title>nodo&#45;&#45;1&#45;&#45;1:e&#45;&gt;nodo&#45;&#45;1&#45;1:w</title>
<path fill="none" stroke="black" d="M66.11,-306C72.61,-306 77.24,-306 83.71,-306"/>
<polygon fill="black" stroke="black" points="66,-302.5 56,-306 66,-309.5 66,-302.5"/>
<polygon fill="black" stroke="black" points="84,-309.5 94,-306 84,-302.5 84,-309.5"/>
</g>
<!-- nodo&#45;&#45;1&#45;1&#45;&gt;nodo&#45;1&#45;1 -->
<g id="edge16" class="edge">
<title>nodo&#45;&#45;1&#45;1:s&#45;&gt;nodo&#45;1&#45;1:n</title>
<path fill="none" stroke="black" d="M121,-277.88C121,-272.21 121,-268.01 121,-262.39"/>
<polygon fill="black" stroke="black" points="117.5,-278 121,-288 124.5,-278 117.5,-278"/>
<polygon fill="black" stroke="black" points="124.5,-262 121,-252 117.5,-262 124.5,-262"/>
</g>
<!-- nodo&#45;&#45;1&#45;2 -->
<g id="node13" class="node">
<title>nodo&#45;&#45;1&#45;2</title>
<polygon fill="none" stroke="black" points="238,-324 184,-324 184,-288 238,-288 238,-324"/>
<text text-anchor="middle" x="211" y="-302.3" font-family="Times New Roman,serif" font-size="14.00">Dia: 2</text>
</g>
<!-- nodo&#45;&#45;1&#45;1&#45;&gt;nodo&#45;&#45;1&#45;2 -->
<g id="edge2" class="edge">
<title>nodo&#45;&#45;1&#45;1:e&#45;&gt;nodo&#45;&#45;1&#45;2:w</title>
<path fill="none" stroke="black" d="M158.12,-306C163.79,-306 167.99,-306 173.61,-306"/>
<polygon fill="black" stroke="black" points="158,-302.5 148,-306 158,-309.5 158,-302.5"/>
<polygon fill="black" stroke="black" points="174,-309.5 184,-306 174,-302.5 174,-309.5"/>
</g>
<!-- nodo&#45;&#45;1&#45;2&#45;&gt;nodo&#45;1&#45;2 -->
<g id="edge17" class="edge">
<title>nodo&#45;&#45;1&#45;2:s&#45;&gt;nodo&#45;1&#45;2:n</title>
<path fill="none" stroke="black" d="M211,-277.88C211,-272.21 211,-268.01 211,-262.39"/>
<polygon fill="black" stroke="black" points="207.5,-278 211,-288 214.5,-278 207.5,-278"/>
<polygon fill="black" stroke="black" points="214.5,-262 211,-252 207.5,-262 214.5,-262"/>
</g>
<!-- nodo&#45;&#45;1&#45;3 -->
<g id="node14" class="node">
<title>nodo&#45;&#45;1&#45;3</title>
<polygon fill="none" stroke="black" points="328,-324 274,-324 274,-288 328,-288 328,-324"/>
<text text-anchor="middle" x="301" y="-302.3" font-family="Times New Roman,serif" font-size="14.00">Dia: 3</text>
</g>
<!-- nodo&#45;&#45;1&#45;2&#45;&gt;nodo&#45;&#45;1&#45;3 -->
<g id="edge3" class="edge">
<title>nodo&#45;&#45;1&#45;2:e&#45;&gt;nodo&#45;&#45;1&#45;3:w</title>
<path fill="none" stroke="black" d="M248.12,-306C253.79,-306 257.99,-306 263.61,-306"/>
<polygon fill="black" stroke="black" points="248,-302.5 238,-306 248,-309.5 248,-302.5"/>
<polygon fill="black" stroke="black" points="264,-309.5 274,-306 264,-302.5 264,-309.5"/>
</g>
<!-- nodo&#45;&#45;1&#45;3&#45;&gt;nodo&#45;1&#45;3 -->
<g id="edge18" class="edge">
<title>nodo&#45;&#45;1&#45;3:s&#45;&gt;nodo&#45;1&#45;3:n</title>
<path fill="none" stroke="black" d="M301,-277.88C301,-272.21 301,-268.01 301,-262.39"/>
<polygon fill="black" stroke="black" points="297.5,-278 301,-288 304.5,-278 297.5,-278"/>
<polygon fill="black" stroke="black" points="304.5,-262 301,-252 297.5,-262 304.5,-262"/>
</g>
<!-- nodo&#45;&#45;1&#45;4 -->
<g id="node15" class="node">
<title>nodo&#45;&#45;1&#45;4</title>
<polygon fill="none" stroke="black" points="418,-324 364,-324 364,-288 418,-288 418,-324"/>
<text text-anchor="middle" x="391" y="-302.3" font-family="Times New Roman,serif" font-size="14.00">Dia: 4</text>
</g>
<!-- nodo&#45;&#45;1&#45;3&#45;&gt;nodo&#45;&#45;1&#45;4 -->
<g id="edge4" class="edge">
<title>nodo&#45;&#45;1&#45;3:e&#45;&gt;nodo&#45;&#45;1&#45;4:w</title>
<path fill="none" stroke="black" d="M338.12,-306C343.79,-306 347.99,-306 353.61,-306"/>
<polygon fill="black" stroke="black" points="338,-302.5 328,-306 338,-309.5 338,-302.5"/>
<polygon fill="black" stroke="black" points="354,-309.5 364,-306 354,-302.5 354,-309.5"/>
</g>
<!-- nodo&#45;&#45;1&#45;4&#45;&gt;nodo&#45;3&#45;4 -->
<g id="edge20" class="edge">
<title>nodo&#45;&#45;1&#45;4:s&#45;&gt;nodo&#45;3&#45;4:n</title>
<path fill="none" stroke="black" d="M391,-277.57C391,-209.43 391,-186.55 391,-118.39"/>
<polygon fill="black" stroke="black" points="387.5,-278 391,-288 394.5,-278 387.5,-278"/>
<polygon fill="black" stroke="black" points="394.5,-118 391,-108 387.5,-118 394.5,-118"/>
</g>
<!-- nodo&#45;&#45;1&#45;8 -->
<g id="node16" class="node">
<title>nodo&#45;&#45;1&#45;8</title>
<polygon fill="none" stroke="black" points="508,-324 454,-324 454,-288 508,-288 508,-324"/>
<text text-anchor="middle" x="481" y="-302.3" font-family="Times New Roman,serif" font-size="14.00">Dia: 8</text>
</g>
<!-- nodo&#45;&#45;1&#45;4&#45;&gt;nodo&#45;&#45;1&#45;8 -->
<g id="edge5" class="edge">
<title>nodo&#45;&#45;1&#45;4:e&#45;&gt;nodo&#45;&#45;1&#45;8:w</title>
<path fill="none" stroke="black" d="M428.12,-306C433.79,-306 437.99,-306 443.61,-306"/>
<polygon fill="black" stroke="black" points="428,-302.5 418,-306 428,-309.5 428,-302.5"/>
<polygon fill="black" stroke="black" points="444,-309.5 454,-306 444,-302.5 444,-309.5"/>
</g>
<!-- nodo&#45;&#45;1&#45;8&#45;&gt;nodo&#45;2&#45;8 -->
<g id="edge21" class="edge">
<title>nodo&#45;&#45;1&#45;8:s&#45;&gt;nodo&#45;2&#45;8:n</title>
<path fill="none" stroke="black" d="M481,-277.88C481,-241.29 481,-226.84 481,-190.34"/>
<polygon fill="black" stroke="black" points="477.5,-278 481,-288 484.5,-278 477.5,-278"/>
<polygon fill="black" stroke="black" points="484.5,-190 481,-180 477.5,-190 484.5,-190"/>
</g>
</g>
</svg>
