<?xml version="1.0" encoding="UTF-8" standalone="no"?>
<!DOCTYPE svg PUBLIC "-//W3C//DTD SVG 1.1//EN"
 "http://www.w3.org/Graphics/SVG/1.1/DTD/svg11.dtd">
<!-- Generated by graphviz version 2.48.0 (20210717.1556)
 -->
<!-- Title: G Pages: 1 -->
<svg width="2156pt" height="949pt"
 viewBox="0.00 0.00 2156.00 949.00" xmlns="http://www.w3.org/2000/svg" xmlns:xlink="http://www.w3.org/1999/xlink">
<g id="graph0" class="graph" transform="scale(1 1) rotate(0) translate(4 945)">
<title>G</title>
<polygon fill="white" stroke="transparent" points="-4,4 -4,-945 2152,-945 2152,4 -4,4"/>
<!-- 972 -->
<g id="node1" class="node">
<title>972</title>
<polygon fill="none" stroke="black" points="2148,-253 1975,-253 1975,-217 2148,-217 2148,-253"/>
<text text-anchor="middle" x="2061.5" y="-231.3" font-family="Times New Roman,serif" font-size="14.00">972 &#45; Inteligencia Artificial 1</text>
</g>
<!-- 781 -->
<g id="node2" class="node">
<title>781</title>
<polygon fill="none" stroke="black" points="1403,-242 1157,-242 1157,-206 1403,-206 1403,-242"/>
<text text-anchor="middle" x="1280" y="-220.3" font-family="Times New Roman,serif" font-size="14.00">781 &#45; ORG. Lenguajes y Compiladores 2</text>
</g>
<!-- 972&#45;&gt;781 -->
<g id="edge24" class="edge">
<title>972:w&#45;&gt;781:e</title>
<path fill="none" stroke="black" d="M1964.7,-234.99C1719.41,-234.7 1654.35,-224 1404,-224"/>
<polygon fill="black" stroke="black" points="1965,-238.49 1975,-235 1965,-231.49 1965,-238.49"/>
<text text-anchor="middle" x="1693.5" y="-233.8" font-family="Times New Roman,serif" font-size="14.00">5</text>
</g>
<!-- 775 -->
<g id="node14" class="node">
<title>775</title>
<polygon fill="none" stroke="black" points="1932,-177 1715,-177 1715,-141 1932,-141 1932,-177"/>
<text text-anchor="middle" x="1823.5" y="-155.3" font-family="Times New Roman,serif" font-size="14.00">775 &#45; Sistemas de Bases de Datos 2</text>
</g>
<!-- 972&#45;&gt;775 -->
<g id="edge42" class="edge">
<title>972:w&#45;&gt;775:e</title>
<path fill="none" stroke="black" d="M1965.26,-231.29C1959.12,-223.65 1964.91,-205.75 1957,-192 1947.82,-176.05 1950.4,-159 1932,-159"/>
<polygon fill="black" stroke="black" points="1964.41,-234.71 1975,-235 1966.9,-228.17 1964.41,-234.71"/>
<text text-anchor="middle" x="1953.5" y="-195.8" font-family="Times New Roman,serif" font-size="14.00">4</text>
</g>
<!-- 724 -->
<g id="node23" class="node">
<title>724</title>
<polygon fill="none" stroke="black" points="1645.5,-721 1481.5,-721 1481.5,-685 1645.5,-685 1645.5,-721"/>
<text text-anchor="middle" x="1563.5" y="-699.3" font-family="Times New Roman,serif" font-size="14.00">724 &#45; Teoria de sistemas 2</text>
</g>
<!-- 972&#45;&gt;724 -->
<g id="edge61" class="edge">
<title>972:w&#45;&gt;724:e</title>
<path fill="none" stroke="black" d="M1965.68,-239.4C1962.09,-244.95 1962.55,-254.76 1957,-263 1823.26,-461.49 1885.84,-703 1646.5,-703"/>
<polygon fill="black" stroke="black" points="1967.45,-242.44 1975,-235 1964.46,-236.11 1967.45,-242.44"/>
<text text-anchor="middle" x="1823.5" y="-697.8" font-family="Times New Roman,serif" font-size="14.00">5</text>
</g>
<!-- 777 -->
<g id="node3" class="node">
<title>777</title>
<polygon fill="none" stroke="black" points="1105,-302 859,-302 859,-266 1105,-266 1105,-302"/>
<text text-anchor="middle" x="982" y="-280.3" font-family="Times New Roman,serif" font-size="14.00">777 &#45; ORG. Lenguajes y Compiladores 1</text>
</g>
<!-- 781&#45;&gt;777 -->
<g id="edge19" class="edge">
<title>781:w&#45;&gt;777:e</title>
<path fill="none" stroke="black" d="M1146.03,-226.14C1124.61,-236.82 1136.03,-284 1105,-284"/>
<polygon fill="black" stroke="black" points="1146.95,-229.52 1156,-224 1145.49,-222.67 1146.95,-229.52"/>
<text text-anchor="middle" x="1126.5" y="-276.8" font-family="Times New Roman,serif" font-size="14.00">4</text>
</g>
<!-- 772 -->
<g id="node13" class="node">
<title>772</title>
<polygon fill="none" stroke="black" points="1062,-210 902,-210 902,-174 1062,-174 1062,-210"/>
<text text-anchor="middle" x="982" y="-188.3" font-family="Times New Roman,serif" font-size="14.00">772 &#45; Estructura de Datos</text>
</g>
<!-- 781&#45;&gt;772 -->
<g id="edge23" class="edge">
<title>781:w&#45;&gt;772:e</title>
<path fill="none" stroke="black" d="M1145.97,-223.39C1111.12,-218.97 1103.13,-192 1063,-192"/>
<polygon fill="black" stroke="black" points="1145.81,-226.89 1156,-224 1146.23,-219.9 1145.81,-226.89"/>
<text text-anchor="middle" x="1126.5" y="-222.8" font-family="Times New Roman,serif" font-size="14.00">5</text>
</g>
<!-- 771 -->
<g id="node4" class="node">
<title>771</title>
<polygon fill="none" stroke="black" points="722.5,-448 640.5,-448 640.5,-412 722.5,-412 722.5,-448"/>
<text text-anchor="middle" x="681.5" y="-426.3" font-family="Times New Roman,serif" font-size="14.00">771 &#45; IPC 2</text>
</g>
<!-- 777&#45;&gt;771 -->
<g id="edge10" class="edge">
<title>777:w&#45;&gt;771:e</title>
<path fill="none" stroke="black" d="M849.78,-288.47C846.46,-293.7 846.47,-302.57 841,-310 796.76,-370.12 798.14,-430 723.5,-430"/>
<polygon fill="black" stroke="black" points="851.53,-291.51 859,-284 848.47,-285.21 851.53,-291.51"/>
<text text-anchor="middle" x="837.5" y="-320.8" font-family="Times New Roman,serif" font-size="14.00">5</text>
</g>
<!-- 796 -->
<g id="node11" class="node">
<title>796</title>
<polygon fill="none" stroke="black" points="816,-104 547,-104 547,-68 816,-68 816,-104"/>
<text text-anchor="middle" x="681.5" y="-82.3" font-family="Times New Roman,serif" font-size="14.00">796 &#45; Lenguajes Formales y de Programacion</text>
</g>
<!-- 777&#45;&gt;796 -->
<g id="edge14" class="edge">
<title>777:w&#45;&gt;796:e</title>
<path fill="none" stroke="black" d="M850.61,-278.51C840.73,-264.37 837.18,-226.91 834,-214 827.13,-186.11 844.72,-86 816,-86"/>
<polygon fill="black" stroke="black" points="848.72,-281.45 859,-284 852.55,-275.6 848.72,-281.45"/>
<text text-anchor="middle" x="837.5" y="-254.8" font-family="Times New Roman,serif" font-size="14.00">3</text>
</g>
<!-- 962 -->
<g id="node12" class="node">
<title>962</title>
<polygon fill="none" stroke="black" points="753.5,-324 609.5,-324 609.5,-288 753.5,-288 753.5,-324"/>
<text text-anchor="middle" x="681.5" y="-302.3" font-family="Times New Roman,serif" font-size="14.00">962 &#45; Mate Computo 2</text>
</g>
<!-- 777&#45;&gt;962 -->
<g id="edge18" class="edge">
<title>777:w&#45;&gt;962:e</title>
<path fill="none" stroke="black" d="M848.53,-284.38C809.81,-287.3 798.25,-306 754.5,-306"/>
<polygon fill="black" stroke="black" points="849.13,-287.86 859,-284 848.88,-280.87 849.13,-287.86"/>
<text text-anchor="middle" x="837.5" y="-289.8" font-family="Times New Roman,serif" font-size="14.00">5</text>
</g>
<!-- 107 -->
<g id="node5" class="node">
<title>107</title>
<polygon fill="none" stroke="black" points="494,-731 345,-731 345,-695 494,-695 494,-731"/>
<text text-anchor="middle" x="419.5" y="-709.3" font-family="Times New Roman,serif" font-size="14.00">107 &#45; Mate Intermedia 1</text>
</g>
<!-- 771&#45;&gt;107 -->
<g id="edge3" class="edge">
<title>771:w&#45;&gt;107:e</title>
<path fill="none" stroke="black" d="M629.36,-430.34C553.36,-435.6 546.73,-501.27 515,-577 503.2,-605.16 526.03,-713 495.5,-713"/>
<polygon fill="black" stroke="black" points="629.62,-433.83 639.5,-430 629.39,-426.84 629.62,-433.83"/>
<text text-anchor="middle" x="522" y="-580.8" font-family="Times New Roman,serif" font-size="14.00">10</text>
</g>
<!-- 770 -->
<g id="node8" class="node">
<title>770</title>
<polygon fill="none" stroke="black" points="460.5,-348 378.5,-348 378.5,-312 460.5,-312 460.5,-348"/>
<text text-anchor="middle" x="419.5" y="-326.3" font-family="Times New Roman,serif" font-size="14.00">770 &#45; IPC 1</text>
</g>
<!-- 771&#45;&gt;770 -->
<g id="edge5" class="edge">
<title>771:w&#45;&gt;770:e</title>
<path fill="none" stroke="black" d="M629.33,-429.48C579.96,-424.16 578.87,-379.46 529,-354 500.64,-339.52 493.34,-330 461.5,-330"/>
<polygon fill="black" stroke="black" points="629.33,-432.98 639.5,-430 629.69,-425.99 629.33,-432.98"/>
<text text-anchor="middle" x="522" y="-357.8" font-family="Times New Roman,serif" font-size="14.00">4</text>
</g>
<!-- 795 -->
<g id="node9" class="node">
<title>795</title>
<polygon fill="none" stroke="black" points="497,-488 342,-488 342,-452 497,-452 497,-488"/>
<text text-anchor="middle" x="419.5" y="-466.3" font-family="Times New Roman,serif" font-size="14.00">795 &#45; Logica de sistemas</text>
</g>
<!-- 771&#45;&gt;795 -->
<g id="edge7" class="edge">
<title>771:w&#45;&gt;795:e</title>
<path fill="none" stroke="black" d="M629.49,-430.52C583.98,-435.44 579.1,-474.03 529,-486 522.95,-487.45 520.82,-488.21 515,-486 505,-482.2 507.7,-470 497,-470"/>
<polygon fill="black" stroke="black" points="629.69,-434.01 639.5,-430 629.33,-427.02 629.69,-434.01"/>
<text text-anchor="middle" x="522" y="-490.8" font-family="Times New Roman,serif" font-size="14.00">2</text>
</g>
<!-- 960 -->
<g id="node10" class="node">
<title>960</title>
<polygon fill="none" stroke="black" points="491.5,-180 347.5,-180 347.5,-144 491.5,-144 491.5,-180"/>
<text text-anchor="middle" x="419.5" y="-158.3" font-family="Times New Roman,serif" font-size="14.00">960 &#45; Mate Computo 1</text>
</g>
<!-- 771&#45;&gt;960 -->
<g id="edge9" class="edge">
<title>771:w&#45;&gt;960:e</title>
<path fill="none" stroke="black" d="M629.39,-429.57C581.39,-425.3 570.72,-389.61 547,-342 509.72,-267.19 576.09,-162 492.5,-162"/>
<polygon fill="black" stroke="black" points="629.36,-433.07 639.5,-430 629.66,-426.08 629.36,-433.07"/>
<text text-anchor="middle" x="522" y="-179.8" font-family="Times New Roman,serif" font-size="14.00">5</text>
</g>
<!-- 103 -->
<g id="node6" class="node">
<title>103</title>
<polygon fill="none" stroke="black" points="299,-508 171,-508 171,-472 299,-472 299,-508"/>
<text text-anchor="middle" x="235" y="-486.3" font-family="Times New Roman,serif" font-size="14.00">103 &#45; Mate Basica 2</text>
</g>
<!-- 107&#45;&gt;103 -->
<g id="edge2" class="edge">
<title>107:w&#45;&gt;103:e</title>
<path fill="none" stroke="black" d="M333.23,-711.98C296.16,-703.63 326.45,-645.63 317,-598 312.27,-574.13 323.33,-490 299,-490"/>
<polygon fill="black" stroke="black" points="333.2,-715.5 343.5,-713 333.89,-708.53 333.2,-715.5"/>
<text text-anchor="middle" x="320.5" y="-710.8" font-family="Times New Roman,serif" font-size="14.00">7</text>
</g>
<!-- 101 -->
<g id="node7" class="node">
<title>101</title>
<polygon fill="none" stroke="black" points="128,-544 0,-544 0,-508 128,-508 128,-544"/>
<text text-anchor="middle" x="64" y="-522.3" font-family="Times New Roman,serif" font-size="14.00">101 &#45; Mate Basica 1</text>
</g>
<!-- 103&#45;&gt;101 -->
<g id="edge1" class="edge">
<title>103:w&#45;&gt;101:e</title>
<path fill="none" stroke="black" d="M160.77,-490.59C155.73,-491.45 151.93,-493.45 146,-498 134.26,-507.01 142.79,-526 128,-526"/>
<polygon fill="black" stroke="black" points="161.22,-494.07 171,-490 160.81,-487.09 161.22,-494.07"/>
<text text-anchor="middle" x="149.5" y="-501.8" font-family="Times New Roman,serif" font-size="14.00">7</text>
</g>
<!-- 770&#45;&gt;103 -->
<g id="edge4" class="edge">
<title>770:w&#45;&gt;103:e</title>
<path fill="none" stroke="black" d="M367.33,-330.76C323.95,-337.82 338.44,-392.53 317,-440 307.28,-461.53 322.62,-490 299,-490"/>
<polygon fill="black" stroke="black" points="367.79,-334.24 377.5,-330 367.27,-327.26 367.79,-334.24"/>
<text text-anchor="middle" x="320.5" y="-443.8" font-family="Times New Roman,serif" font-size="14.00">7</text>
</g>
<!-- 795&#45;&gt;103 -->
<g id="edge6" class="edge">
<title>795:w&#45;&gt;103:e</title>
<path fill="none" stroke="black" d="M332.15,-467.57C327.28,-465.32 323.45,-462.78 317,-466 305.07,-471.96 312.33,-490 299,-490"/>
<polygon fill="black" stroke="black" points="331.45,-471 342,-470 333.13,-464.21 331.45,-471"/>
<text text-anchor="middle" x="320.5" y="-469.8" font-family="Times New Roman,serif" font-size="14.00">7</text>
</g>
<!-- 960&#45;&gt;103 -->
<g id="edge8" class="edge">
<title>960:w&#45;&gt;103:e</title>
<path fill="none" stroke="black" d="M341.31,-170.77C325.93,-222.93 315.61,-490 299,-490"/>
<polygon fill="black" stroke="black" points="344.42,-172.39 346.5,-162 338.4,-168.83 344.42,-172.39"/>
<text text-anchor="middle" x="320.5" y="-386.8" font-family="Times New Roman,serif" font-size="14.00">7</text>
</g>
<!-- 796&#45;&gt;770 -->
<g id="edge11" class="edge">
<title>796:w&#45;&gt;770:e</title>
<path fill="none" stroke="black" d="M538.26,-90.88C524.34,-110.53 536.4,-183.93 529,-206 519.02,-235.74 492.87,-330 461.5,-330"/>
<polygon fill="black" stroke="black" points="539.97,-93.93 547,-86 536.56,-87.82 539.97,-93.93"/>
<text text-anchor="middle" x="522" y="-248.8" font-family="Times New Roman,serif" font-size="14.00">4</text>
</g>
<!-- 796&#45;&gt;795 -->
<g id="edge12" class="edge">
<title>796:w&#45;&gt;795:e</title>
<path fill="none" stroke="black" d="M542.34,-95.08C531.25,-142.51 532.14,-360.07 529,-374 525.32,-390.34 520.49,-393.17 515,-409 505.74,-435.71 525.27,-470 497,-470"/>
<polygon fill="black" stroke="black" points="545.55,-96.5 547,-86 539.32,-93.3 545.55,-96.5"/>
<text text-anchor="middle" x="522" y="-412.8" font-family="Times New Roman,serif" font-size="14.00">2</text>
</g>
<!-- 796&#45;&gt;960 -->
<g id="edge13" class="edge">
<title>796:w&#45;&gt;960:e</title>
<path fill="none" stroke="black" d="M537.85,-81.04C535.7,-78.39 533.6,-75.39 529,-74 523.04,-72.2 519.91,-70.18 515,-74 483.11,-98.76 532.87,-162 492.5,-162"/>
<polygon fill="black" stroke="black" points="536.54,-84.32 547,-86 539.87,-78.16 536.54,-84.32"/>
<text text-anchor="middle" x="522" y="-77.8" font-family="Times New Roman,serif" font-size="14.00">5</text>
</g>
<!-- 962&#45;&gt;770 -->
<g id="edge16" class="edge">
<title>962:w&#45;&gt;770:e</title>
<path fill="none" stroke="black" d="M598.38,-305.61C564.59,-302.94 551.75,-287.85 515,-298 488.29,-305.38 489.21,-330 461.5,-330"/>
<polygon fill="black" stroke="black" points="598.37,-309.11 608.5,-306 598.64,-302.12 598.37,-309.11"/>
<text text-anchor="middle" x="522" y="-301.8" font-family="Times New Roman,serif" font-size="14.00">4</text>
</g>
<!-- 962&#45;&gt;795 -->
<g id="edge17" class="edge">
<title>962:w&#45;&gt;795:e</title>
<path fill="none" stroke="black" d="M598.51,-306.6C545.19,-313.49 562.35,-377.87 529,-430 516.73,-449.18 519.77,-470 497,-470"/>
<polygon fill="black" stroke="black" points="598.73,-310.1 608.5,-306 598.31,-303.11 598.73,-310.1"/>
<text text-anchor="middle" x="522" y="-463.8" font-family="Times New Roman,serif" font-size="14.00">2</text>
</g>
<!-- 962&#45;&gt;960 -->
<g id="edge15" class="edge">
<title>962:w&#45;&gt;960:e</title>
<path fill="none" stroke="black" d="M598.32,-305.3C529.13,-295.03 598.01,-174.55 529,-130 523.77,-126.63 520.52,-127.13 515,-130 499.57,-138.01 509.89,-162 492.5,-162"/>
<polygon fill="black" stroke="black" points="598.28,-308.81 608.5,-306 598.76,-301.82 598.28,-308.81"/>
<text text-anchor="middle" x="522" y="-133.8" font-family="Times New Roman,serif" font-size="14.00">5</text>
</g>
<!-- 772&#45;&gt;771 -->
<g id="edge20" class="edge">
<title>772:w&#45;&gt;771:e</title>
<path fill="none" stroke="black" d="M890.79,-191.27C867.46,-187.99 853.46,-175.49 834,-193 809.21,-215.31 830.96,-312.19 816,-342 790.54,-392.71 780.24,-430 723.5,-430"/>
<polygon fill="black" stroke="black" points="890.78,-194.78 901,-192 891.27,-187.8 890.78,-194.78"/>
<text text-anchor="middle" x="837.5" y="-196.8" font-family="Times New Roman,serif" font-size="14.00">5</text>
</g>
<!-- 772&#45;&gt;796 -->
<g id="edge21" class="edge">
<title>772:w&#45;&gt;796:e</title>
<path fill="none" stroke="black" d="M890.91,-190.9C850.84,-181.1 885.61,-108.48 841,-82 838.32,-80.41 837.09,-81.66 834,-82 825.85,-82.89 824.2,-86 816,-86"/>
<polygon fill="black" stroke="black" points="890.68,-194.39 901,-192 891.44,-187.44 890.68,-194.39"/>
<text text-anchor="middle" x="837.5" y="-85.8" font-family="Times New Roman,serif" font-size="14.00">3</text>
</g>
<!-- 772&#45;&gt;962 -->
<g id="edge22" class="edge">
<title>772:w&#45;&gt;962:e</title>
<path fill="none" stroke="black" d="M890.92,-190.03C863.11,-178.36 863.16,-119.54 834,-138 764.21,-182.19 837.1,-306 754.5,-306"/>
<polygon fill="black" stroke="black" points="890.51,-193.51 901,-192 891.86,-186.64 890.51,-193.51"/>
<text text-anchor="middle" x="837.5" y="-141.8" font-family="Times New Roman,serif" font-size="14.00">5</text>
</g>
<!-- 281 -->
<g id="node15" class="node">
<title>281</title>
<polygon fill="none" stroke="black" points="1650.5,-177 1476.5,-177 1476.5,-141 1650.5,-141 1650.5,-177"/>
<text text-anchor="middle" x="1563.5" y="-155.3" font-family="Times New Roman,serif" font-size="14.00">281 &#45; Sistemas Operativos 1</text>
</g>
<!-- 775&#45;&gt;281 -->
<g id="edge37" class="edge">
<title>775:w&#45;&gt;281:e</title>
<path fill="none" stroke="black" d="M1704.78,-159C1684.53,-159 1675.97,-159 1651.5,-159"/>
<polygon fill="black" stroke="black" points="1705,-162.5 1715,-159 1705,-155.5 1705,-162.5"/>
<text text-anchor="middle" x="1693.5" y="-162.8" font-family="Times New Roman,serif" font-size="14.00">5</text>
</g>
<!-- 774 -->
<g id="node21" class="node">
<title>774</title>
<polygon fill="none" stroke="black" points="1672,-104 1455,-104 1455,-68 1672,-68 1672,-104"/>
<text text-anchor="middle" x="1563.5" y="-82.3" font-family="Times New Roman,serif" font-size="14.00">774 &#45; Sistemas de Bases de Datos 1</text>
</g>
<!-- 775&#45;&gt;774 -->
<g id="edge41" class="edge">
<title>775:w&#45;&gt;774:e</title>
<path fill="none" stroke="black" d="M1706.35,-153.27C1693.94,-136.06 1687.59,-86 1672,-86"/>
<polygon fill="black" stroke="black" points="1704.73,-156.4 1715,-159 1708.59,-150.56 1704.73,-156.4"/>
<text text-anchor="middle" x="1693.5" y="-135.8" font-family="Times New Roman,serif" font-size="14.00">5</text>
</g>
<!-- 281&#45;&gt;781 -->
<g id="edge25" class="edge">
<title>281:w&#45;&gt;781:e</title>
<path fill="none" stroke="black" d="M1465.3,-160.1C1449.39,-163.98 1445.31,-177.51 1430,-192 1416.69,-204.6 1422.32,-224 1404,-224"/>
<polygon fill="black" stroke="black" points="1465.93,-163.56 1475.5,-159 1465.18,-156.6 1465.93,-163.56"/>
<text text-anchor="middle" x="1433.5" y="-195.8" font-family="Times New Roman,serif" font-size="14.00">5</text>
</g>
<!-- 778 -->
<g id="node16" class="node">
<title>778</title>
<polygon fill="none" stroke="black" points="1399.5,-158 1160.5,-158 1160.5,-122 1399.5,-122 1399.5,-158"/>
<text text-anchor="middle" x="1280" y="-136.3" font-family="Times New Roman,serif" font-size="14.00">778 &#45; ARQ. Compu y Ensambladores 1</text>
</g>
<!-- 281&#45;&gt;778 -->
<g id="edge36" class="edge">
<title>281:w&#45;&gt;778:e</title>
<path fill="none" stroke="black" d="M1465.56,-157.06C1455.01,-152.32 1452.31,-140.23 1437,-136 1434,-135.17 1433.1,-135.79 1430,-136 1417.02,-136.89 1414.01,-140 1401,-140"/>
<polygon fill="black" stroke="black" points="1465.01,-160.52 1475.5,-159 1466.36,-153.65 1465.01,-160.52"/>
<text text-anchor="middle" x="1433.5" y="-139.8" font-family="Times New Roman,serif" font-size="14.00">5</text>
</g>
<!-- 778&#45;&gt;796 -->
<g id="edge26" class="edge">
<title>778:w&#45;&gt;796:e</title>
<path fill="none" stroke="black" d="M1148.62,-139.91C1013.04,-137.48 981.15,-87.6 841,-73 837.91,-72.68 836.96,-72.04 834,-73 824.61,-76.04 825.87,-86 816,-86"/>
<polygon fill="black" stroke="black" points="1148.97,-143.41 1159,-140 1149.03,-136.41 1148.97,-143.41"/>
<text text-anchor="middle" x="982" y="-141.8" font-family="Times New Roman,serif" font-size="14.00">3</text>
</g>
<!-- 964 -->
<g id="node17" class="node">
<title>964</title>
<polygon fill="none" stroke="black" points="1087.5,-468 876.5,-468 876.5,-432 1087.5,-432 1087.5,-468"/>
<text text-anchor="middle" x="982" y="-446.3" font-family="Times New Roman,serif" font-size="14.00">964 &#45; Organizacion Computacional</text>
</g>
<!-- 778&#45;&gt;964 -->
<g id="edge35" class="edge">
<title>778:w&#45;&gt;964:e</title>
<path fill="none" stroke="black" d="M1148.71,-141.49C1131.01,-147.43 1131.71,-170.13 1123,-193 1102.49,-246.83 1146.61,-450 1089,-450"/>
<polygon fill="black" stroke="black" points="1149.61,-144.9 1159,-140 1148.6,-137.97 1149.61,-144.9"/>
<text text-anchor="middle" x="1126.5" y="-196.8" font-family="Times New Roman,serif" font-size="14.00">3</text>
</g>
<!-- 964&#45;&gt;771 -->
<g id="edge33" class="edge">
<title>964:w&#45;&gt;771:e</title>
<path fill="none" stroke="black" d="M864.68,-449.84C805.29,-447.95 787.84,-430 723.5,-430"/>
<polygon fill="black" stroke="black" points="864.95,-453.34 875,-450 865.06,-446.34 864.95,-453.34"/>
<text text-anchor="middle" x="837.5" y="-450.8" font-family="Times New Roman,serif" font-size="14.00">5</text>
</g>
<!-- 964&#45;&gt;962 -->
<g id="edge34" class="edge">
<title>964:w&#45;&gt;962:e</title>
<path fill="none" stroke="black" d="M865.3,-447.5C827.46,-428.38 792.97,-306 754.5,-306"/>
<polygon fill="black" stroke="black" points="864.44,-450.89 875,-450 866.19,-444.12 864.44,-450.89"/>
<text text-anchor="middle" x="837.5" y="-425.8" font-family="Times New Roman,serif" font-size="14.00">5</text>
</g>
<!-- 152 -->
<g id="node18" class="node">
<title>152</title>
<polygon fill="none" stroke="black" points="727.5,-589 635.5,-589 635.5,-553 727.5,-553 727.5,-589"/>
<text text-anchor="middle" x="681.5" y="-567.3" font-family="Times New Roman,serif" font-size="14.00">152 &#45; Fisica 2</text>
</g>
<!-- 964&#45;&gt;152 -->
<g id="edge32" class="edge">
<title>964:w&#45;&gt;152:e</title>
<path fill="none" stroke="black" d="M865.31,-454.03C832.07,-475.02 747.3,-571 728.5,-571"/>
<polygon fill="black" stroke="black" points="867.11,-457.07 875,-450 864.42,-450.6 867.11,-457.07"/>
<text text-anchor="middle" x="837.5" y="-482.8" font-family="Times New Roman,serif" font-size="14.00">6</text>
</g>
<!-- 152&#45;&gt;107 -->
<g id="edge27" class="edge">
<title>152:w&#45;&gt;107:e</title>
<path fill="none" stroke="black" d="M624.23,-571.17C589.79,-572.4 575.01,-580.68 547,-607 537.46,-615.97 508.59,-713 495.5,-713"/>
<polygon fill="black" stroke="black" points="624.56,-574.66 634.5,-571 624.44,-567.66 624.56,-574.66"/>
<text text-anchor="middle" x="522" y="-684.8" font-family="Times New Roman,serif" font-size="14.00">10</text>
</g>
<!-- 150 -->
<g id="node19" class="node">
<title>150</title>
<polygon fill="none" stroke="black" points="465.5,-600 373.5,-600 373.5,-564 465.5,-564 465.5,-600"/>
<text text-anchor="middle" x="419.5" y="-578.3" font-family="Times New Roman,serif" font-size="14.00">150 &#45; Fisica 1</text>
</g>
<!-- 152&#45;&gt;150 -->
<g id="edge31" class="edge">
<title>152:w&#45;&gt;150:e</title>
<path fill="none" stroke="black" d="M624.34,-571.33C584.54,-574.03 573.46,-592.4 529,-598 522.83,-598.78 521.14,-598.99 515,-598 492.59,-594.4 489.2,-582 466.5,-582"/>
<polygon fill="black" stroke="black" points="624.62,-574.82 634.5,-571 624.39,-567.83 624.62,-574.82"/>
<text text-anchor="middle" x="522" y="-601.8" font-family="Times New Roman,serif" font-size="14.00">6</text>
</g>
<!-- 150&#45;&gt;103 -->
<g id="edge28" class="edge">
<title>150:w&#45;&gt;103:e</title>
<path fill="none" stroke="black" d="M362.16,-580.55C324.33,-568.85 347.45,-490 299,-490"/>
<polygon fill="black" stroke="black" points="362.11,-584.08 372.5,-582 363.08,-577.15 362.11,-584.08"/>
<text text-anchor="middle" x="320.5" y="-504.8" font-family="Times New Roman,serif" font-size="14.00">7</text>
</g>
<!-- 147 -->
<g id="node20" class="node">
<title>147</title>
<polygon fill="none" stroke="black" points="296,-590 174,-590 174,-554 296,-554 296,-590"/>
<text text-anchor="middle" x="235" y="-568.3" font-family="Times New Roman,serif" font-size="14.00">147 &#45; Fisica Basica</text>
</g>
<!-- 150&#45;&gt;147 -->
<g id="edge30" class="edge">
<title>150:w&#45;&gt;147:e</title>
<path fill="none" stroke="black" d="M362.26,-581.67C336.63,-579.93 327.15,-572 297,-572"/>
<polygon fill="black" stroke="black" points="362.39,-585.17 372.5,-582 362.62,-578.18 362.39,-585.17"/>
<text text-anchor="middle" x="320.5" y="-577.8" font-family="Times New Roman,serif" font-size="14.00">5</text>
</g>
<!-- 147&#45;&gt;101 -->
<g id="edge29" class="edge">
<title>147:w&#45;&gt;101:e</title>
<path fill="none" stroke="black" d="M163.13,-569.53C147.02,-559.97 152.58,-526 128,-526"/>
<polygon fill="black" stroke="black" points="162.45,-572.96 173,-572 164.15,-566.17 162.45,-572.96"/>
<text text-anchor="middle" x="149.5" y="-557.8" font-family="Times New Roman,serif" font-size="14.00">7</text>
</g>
<!-- 773 -->
<g id="node22" class="node">
<title>773</title>
<polygon fill="none" stroke="black" points="1412,-36 1148,-36 1148,0 1412,0 1412,-36"/>
<text text-anchor="middle" x="1280" y="-14.3" font-family="Times New Roman,serif" font-size="14.00">773 &#45; Manejo e Implementacion de Archivos</text>
</g>
<!-- 774&#45;&gt;773 -->
<g id="edge40" class="edge">
<title>774:w&#45;&gt;773:e</title>
<path fill="none" stroke="black" d="M1445.14,-83.58C1424.88,-71.47 1443.71,-18 1412,-18"/>
<polygon fill="black" stroke="black" points="1444.45,-87.02 1455,-86 1446.12,-80.22 1444.45,-87.02"/>
<text text-anchor="middle" x="1433.5" y="-75.8" font-family="Times New Roman,serif" font-size="14.00">4</text>
</g>
<!-- 773&#45;&gt;796 -->
<g id="edge39" class="edge">
<title>773:w&#45;&gt;796:e</title>
<path fill="none" stroke="black" d="M1138.06,-16C1135.89,-15.21 1133.56,-14.39 1130,-14 1126.91,-13.66 1126.1,-13.78 1123,-14 1004.76,-22.47 972.41,-17.51 859,-52 847.21,-55.59 843.69,-56.38 834,-64 824.07,-71.81 828.63,-86 816,-86"/>
<polygon fill="black" stroke="black" points="1137.51,-19.46 1148,-18 1138.89,-12.6 1137.51,-19.46"/>
<text text-anchor="middle" x="982" y="-55.8" font-family="Times New Roman,serif" font-size="14.00">3</text>
</g>
<!-- 773&#45;&gt;772 -->
<g id="edge38" class="edge">
<title>773:w&#45;&gt;772:e</title>
<path fill="none" stroke="black" d="M1137.84,-18.94C1069.1,-32.63 1145.37,-192 1063,-192"/>
<polygon fill="black" stroke="black" points="1138.36,-22.4 1148,-18 1137.72,-15.43 1138.36,-22.4"/>
<text text-anchor="middle" x="1126.5" y="-28.8" font-family="Times New Roman,serif" font-size="14.00">5</text>
</g>
<!-- 722 -->
<g id="node24" class="node">
<title>722</title>
<polygon fill="none" stroke="black" points="1363,-827 1197,-827 1197,-791 1363,-791 1363,-827"/>
<text text-anchor="middle" x="1280" y="-805.3" font-family="Times New Roman,serif" font-size="14.00">722 &#45; Teoria de Sistemas 1</text>
</g>
<!-- 724&#45;&gt;722 -->
<g id="edge55" class="edge">
<title>724:w&#45;&gt;722:e</title>
<path fill="none" stroke="black" d="M1470.87,-706.03C1450.47,-717.84 1426.06,-760.67 1412,-773 1391.95,-790.58 1390.67,-809 1364,-809"/>
<polygon fill="black" stroke="black" points="1472.01,-709.34 1480.5,-703 1469.91,-702.66 1472.01,-709.34"/>
<text text-anchor="middle" x="1433.5" y="-752.8" font-family="Times New Roman,serif" font-size="14.00">5</text>
</g>
<!-- 601 -->
<g id="node31" class="node">
<title>601</title>
<polygon fill="none" stroke="black" points="1392,-683 1168,-683 1168,-647 1392,-647 1392,-683"/>
<text text-anchor="middle" x="1280" y="-661.3" font-family="Times New Roman,serif" font-size="14.00">601 &#45; Investigacion de Operaciones 1</text>
</g>
<!-- 724&#45;&gt;601 -->
<g id="edge58" class="edge">
<title>724:w&#45;&gt;601:e</title>
<path fill="none" stroke="black" d="M1470.4,-702.21C1437.34,-696.75 1431.75,-665 1393,-665"/>
<polygon fill="black" stroke="black" points="1470.26,-705.71 1480.5,-703 1470.8,-698.73 1470.26,-705.71"/>
<text text-anchor="middle" x="1433.5" y="-687.8" font-family="Times New Roman,serif" font-size="14.00">5</text>
</g>
<!-- 736 -->
<g id="node32" class="node">
<title>736</title>
<polygon fill="none" stroke="black" points="1366.5,-755 1193.5,-755 1193.5,-719 1366.5,-719 1366.5,-755"/>
<text text-anchor="middle" x="1280" y="-733.3" font-family="Times New Roman,serif" font-size="14.00">736 &#45; Analisis Probabilistico</text>
</g>
<!-- 724&#45;&gt;736 -->
<g id="edge60" class="edge">
<title>724:w&#45;&gt;736:e</title>
<path fill="none" stroke="black" d="M1470.38,-703.45C1426.96,-707.49 1416.66,-737 1368,-737"/>
<polygon fill="black" stroke="black" points="1470.67,-706.95 1480.5,-703 1470.35,-699.95 1470.67,-706.95"/>
<text text-anchor="middle" x="1433.5" y="-718.8" font-family="Times New Roman,serif" font-size="14.00">4</text>
</g>
<!-- 722&#45;&gt;772 -->
<g id="edge46" class="edge">
<title>722:w&#45;&gt;772:e</title>
<path fill="none" stroke="black" d="M1185.77,-808.25C1166.87,-805.23 1159.08,-793.06 1148,-773 1119.71,-721.76 1125.76,-302.72 1105,-248 1093.96,-218.91 1094.11,-192 1063,-192"/>
<polygon fill="black" stroke="black" points="1185.77,-811.76 1196,-809 1186.28,-804.78 1185.77,-811.76"/>
<text text-anchor="middle" x="1126.5" y="-637.8" font-family="Times New Roman,serif" font-size="14.00">5</text>
</g>
<!-- 732 -->
<g id="node25" class="node">
<title>732</title>
<polygon fill="none" stroke="black" points="1041.5,-751 922.5,-751 922.5,-715 1041.5,-715 1041.5,-751"/>
<text text-anchor="middle" x="982" y="-729.3" font-family="Times New Roman,serif" font-size="14.00">732 &#45; Estadistica 1</text>
</g>
<!-- 722&#45;&gt;732 -->
<g id="edge45" class="edge">
<title>722:w&#45;&gt;732:e</title>
<path fill="none" stroke="black" d="M1185.8,-808.51C1119.8,-802.04 1115.37,-733 1043,-733"/>
<polygon fill="black" stroke="black" points="1185.84,-812.02 1196,-809 1186.18,-805.03 1185.84,-812.02"/>
<text text-anchor="middle" x="1126.5" y="-783.8" font-family="Times New Roman,serif" font-size="14.00">5</text>
</g>
<!-- 116 -->
<g id="node27" class="node">
<title>116</title>
<polygon fill="none" stroke="black" points="1052,-865 912,-865 912,-829 1052,-829 1052,-865"/>
<text text-anchor="middle" x="982" y="-843.3" font-family="Times New Roman,serif" font-size="14.00">116 &#45; Mate Aplicada 3</text>
</g>
<!-- 722&#45;&gt;116 -->
<g id="edge51" class="edge">
<title>722:w&#45;&gt;116:e</title>
<path fill="none" stroke="black" d="M1185.68,-809.33C1128.82,-813.04 1115.16,-847 1053,-847"/>
<polygon fill="black" stroke="black" points="1186.12,-812.82 1196,-809 1185.89,-805.82 1186.12,-812.82"/>
<text text-anchor="middle" x="1126.5" y="-831.8" font-family="Times New Roman,serif" font-size="14.00">5</text>
</g>
<!-- 118 -->
<g id="node30" class="node">
<title>118</title>
<polygon fill="none" stroke="black" points="1052,-937 912,-937 912,-901 1052,-901 1052,-937"/>
<text text-anchor="middle" x="982" y="-915.3" font-family="Times New Roman,serif" font-size="14.00">118 &#45; Mate Aplicada 1</text>
</g>
<!-- 722&#45;&gt;118 -->
<g id="edge54" class="edge">
<title>722:w&#45;&gt;118:e</title>
<path fill="none" stroke="black" d="M1185.77,-809.65C1117.18,-818.66 1129.58,-919 1053,-919"/>
<polygon fill="black" stroke="black" points="1186.24,-813.12 1196,-809 1185.8,-806.14 1186.24,-813.12"/>
<text text-anchor="middle" x="1126.5" y="-867.8" font-family="Times New Roman,serif" font-size="14.00">6</text>
</g>
<!-- 732&#45;&gt;107 -->
<g id="edge43" class="edge">
<title>732:w&#45;&gt;107:e</title>
<path fill="none" stroke="black" d="M910.88,-732.98C729.94,-732.28 681.4,-713 495.5,-713"/>
<polygon fill="black" stroke="black" points="910.99,-736.48 921,-733 911.01,-729.48 910.99,-736.48"/>
<text text-anchor="middle" x="681.5" y="-733.8" font-family="Times New Roman,serif" font-size="14.00">10</text>
</g>
<!-- 005 -->
<g id="node26" class="node">
<title>005</title>
<polygon fill="none" stroke="black" points="804.5,-661 558.5,-661 558.5,-625 804.5,-625 804.5,-661"/>
<text text-anchor="middle" x="681.5" y="-639.3" font-family="Times New Roman,serif" font-size="14.00">005 &#45; Tecnicas de estudio e investigacion</text>
</g>
<!-- 732&#45;&gt;005 -->
<g id="edge44" class="edge">
<title>732:w&#45;&gt;005:e</title>
<path fill="none" stroke="black" d="M911.01,-732.22C857.29,-723.43 867.02,-643 805.5,-643"/>
<polygon fill="black" stroke="black" points="910.76,-735.71 921,-733 911.3,-728.73 910.76,-735.71"/>
<text text-anchor="middle" x="837.5" y="-659.8" font-family="Times New Roman,serif" font-size="14.00">3</text>
</g>
<!-- 112 -->
<g id="node28" class="node">
<title>112</title>
<polygon fill="none" stroke="black" points="756,-892 607,-892 607,-856 756,-856 756,-892"/>
<text text-anchor="middle" x="681.5" y="-870.3" font-family="Times New Roman,serif" font-size="14.00">112 &#45; Mate Intermedia 2</text>
</g>
<!-- 116&#45;&gt;112 -->
<g id="edge48" class="edge">
<title>116:w&#45;&gt;112:e</title>
<path fill="none" stroke="black" d="M900.95,-846.89C874.59,-846.3 864.18,-843.79 834,-849 798.75,-855.08 793.27,-874 757.5,-874"/>
<polygon fill="black" stroke="black" points="900.96,-850.39 911,-847 901.04,-843.39 900.96,-850.39"/>
<text text-anchor="middle" x="837.5" y="-852.8" font-family="Times New Roman,serif" font-size="14.00">5</text>
</g>
<!-- 114 -->
<g id="node29" class="node">
<title>114</title>
<polygon fill="none" stroke="black" points="756,-820 607,-820 607,-784 756,-784 756,-820"/>
<text text-anchor="middle" x="681.5" y="-798.3" font-family="Times New Roman,serif" font-size="14.00">114 &#45; Mate Intermedia 3</text>
</g>
<!-- 116&#45;&gt;114 -->
<g id="edge50" class="edge">
<title>116:w&#45;&gt;114:e</title>
<path fill="none" stroke="black" d="M900.83,-846.5C876.6,-843.95 868.85,-832.23 841,-824 804.2,-813.12 795.88,-802 757.5,-802"/>
<polygon fill="black" stroke="black" points="900.84,-850 911,-847 901.18,-843.01 900.84,-850"/>
<text text-anchor="middle" x="837.5" y="-827.8" font-family="Times New Roman,serif" font-size="14.00">5</text>
</g>
<!-- 112&#45;&gt;107 -->
<g id="edge47" class="edge">
<title>112:w&#45;&gt;107:e</title>
<path fill="none" stroke="black" d="M595.36,-873.6C550.14,-869.86 536.08,-840.17 515,-795 499.16,-761.05 532.96,-713 495.5,-713"/>
<polygon fill="black" stroke="black" points="595.37,-877.1 605.5,-874 595.65,-870.11 595.37,-877.1"/>
<text text-anchor="middle" x="522" y="-824.8" font-family="Times New Roman,serif" font-size="14.00">10</text>
</g>
<!-- 114&#45;&gt;107 -->
<g id="edge49" class="edge">
<title>114:w&#45;&gt;107:e</title>
<path fill="none" stroke="black" d="M595.07,-801.76C558.23,-799.94 543.39,-787.66 515,-758 499.93,-742.25 517.3,-713 495.5,-713"/>
<polygon fill="black" stroke="black" points="595.42,-805.27 605.5,-802 595.58,-798.27 595.42,-805.27"/>
<text text-anchor="middle" x="522" y="-774.8" font-family="Times New Roman,serif" font-size="14.00">10</text>
</g>
<!-- 118&#45;&gt;112 -->
<g id="edge52" class="edge">
<title>118:w&#45;&gt;112:e</title>
<path fill="none" stroke="black" d="M900.9,-919.48C874.35,-922.08 863.39,-933.9 834,-925 794.89,-913.16 798.36,-874 757.5,-874"/>
<polygon fill="black" stroke="black" points="901.18,-922.97 911,-919 900.84,-915.98 901.18,-922.97"/>
<text text-anchor="middle" x="837.5" y="-929.8" font-family="Times New Roman,serif" font-size="14.00">5</text>
</g>
<!-- 118&#45;&gt;114 -->
<g id="edge53" class="edge">
<title>118:w&#45;&gt;114:e</title>
<path fill="none" stroke="black" d="M900.76,-918.51C868.58,-915.25 859.6,-895.91 834,-869 823.02,-857.46 827.12,-849.41 816,-838 794.69,-816.14 788.03,-802 757.5,-802"/>
<polygon fill="black" stroke="black" points="900.85,-922.02 911,-919 901.18,-915.03 900.85,-922.02"/>
<text text-anchor="middle" x="837.5" y="-878.8" font-family="Times New Roman,serif" font-size="14.00">5</text>
</g>
<!-- 601&#45;&gt;771 -->
<g id="edge56" class="edge">
<title>601:w&#45;&gt;771:e</title>
<path fill="none" stroke="black" d="M1157.04,-663.19C1137.26,-654.37 1153.66,-615.59 1130,-596 1023.78,-508.06 958.52,-562.25 834,-503 780.85,-477.71 782.36,-430 723.5,-430"/>
<polygon fill="black" stroke="black" points="1156.53,-666.65 1167,-665 1157.79,-659.77 1156.53,-666.65"/>
<text text-anchor="middle" x="982" y="-578.8" font-family="Times New Roman,serif" font-size="14.00">5</text>
</g>
<!-- 601&#45;&gt;732 -->
<g id="edge57" class="edge">
<title>601:w&#45;&gt;732:e</title>
<path fill="none" stroke="black" d="M1156.92,-665.63C1104.13,-672.48 1102.29,-733 1043,-733"/>
<polygon fill="black" stroke="black" points="1157.24,-669.12 1167,-665 1156.8,-662.13 1157.24,-669.12"/>
<text text-anchor="middle" x="1126.5" y="-682.8" font-family="Times New Roman,serif" font-size="14.00">5</text>
</g>
<!-- 736&#45;&gt;732 -->
<g id="edge59" class="edge">
<title>736:w&#45;&gt;732:e</title>
<path fill="none" stroke="black" d="M1181.92,-736.97C1123.87,-736.59 1105.75,-733 1043,-733"/>
<polygon fill="black" stroke="black" points="1181.99,-740.47 1192,-737 1182.01,-733.47 1181.99,-740.47"/>
<text text-anchor="middle" x="1126.5" y="-738.8" font-family="Times New Roman,serif" font-size="14.00">5</text>
</g>
</g>
</svg>
