<?xml version="1.0" encoding="UTF-8" standalone="no"?>
<!DOCTYPE svg PUBLIC "-//W3C//DTD SVG 1.1//EN"
 "http://www.w3.org/Graphics/SVG/1.1/DTD/svg11.dtd">
<!-- Generated by graphviz version 2.48.0 (20210717.1556)
 -->
<!-- Title: G Pages: 1 -->
<svg width="1027pt" height="495pt"
 viewBox="0.00 0.00 1027.00 494.84" xmlns="http://www.w3.org/2000/svg" xmlns:xlink="http://www.w3.org/1999/xlink">
<g id="graph0" class="graph" transform="scale(1 1) rotate(0) translate(4 490.84)">
<title>G</title>
<polygon fill="white" stroke="transparent" points="-4,4 -4,-490.84 1023,-490.84 1023,4 -4,4"/>
<!-- 772 -->
<g id="node1" class="node">
<title>772</title>
<polygon fill="none" stroke="black" points="1019,-208.84 859,-208.84 859,-172.84 1019,-172.84 1019,-208.84"/>
<text text-anchor="middle" x="939" y="-187.14" font-family="Times New Roman,serif" font-size="14.00">772 &#45; Estructura de Datos</text>
</g>
<!-- 771 -->
<g id="node2" class="node">
<title>771</title>
<polygon fill="none" stroke="black" points="722.5,-416.84 640.5,-416.84 640.5,-380.84 722.5,-380.84 722.5,-416.84"/>
<text text-anchor="middle" x="681.5" y="-395.14" font-family="Times New Roman,serif" font-size="14.00">771 &#45; IPC 2</text>
</g>
<!-- 772&#45;&gt;771 -->
<g id="edge10" class="edge">
<title>772:w&#45;&gt;771:e</title>
<path fill="none" stroke="black" d="M852.22,-198.74C825.16,-236.74 729.59,-398.84 723.5,-398.84"/>
<polygon fill="black" stroke="black" points="855.14,-200.71 859,-190.84 849.83,-196.15 855.14,-200.71"/>
<text text-anchor="middle" x="837.5" y="-228.64" font-family="Times New Roman,serif" font-size="14.00">5</text>
</g>
<!-- 796 -->
<g id="node9" class="node">
<title>796</title>
<polygon fill="none" stroke="black" points="816,-136.84 547,-136.84 547,-100.84 816,-100.84 816,-136.84"/>
<text text-anchor="middle" x="681.5" y="-115.14" font-family="Times New Roman,serif" font-size="14.00">796 &#45; Lenguajes Formales y de Programacion</text>
</g>
<!-- 772&#45;&gt;796 -->
<g id="edge14" class="edge">
<title>772:w&#45;&gt;796:e</title>
<path fill="none" stroke="black" d="M850.4,-185.19C838.01,-168.22 831.43,-118.84 816,-118.84"/>
<polygon fill="black" stroke="black" points="848.72,-188.28 859,-190.84 852.57,-182.43 848.72,-188.28"/>
<text text-anchor="middle" x="837.5" y="-166.64" font-family="Times New Roman,serif" font-size="14.00">3</text>
</g>
<!-- 962 -->
<g id="node10" class="node">
<title>962</title>
<polygon fill="none" stroke="black" points="753.5,-208.84 609.5,-208.84 609.5,-172.84 753.5,-172.84 753.5,-208.84"/>
<text text-anchor="middle" x="681.5" y="-187.14" font-family="Times New Roman,serif" font-size="14.00">962 &#45; Mate Computo 2</text>
</g>
<!-- 772&#45;&gt;962 -->
<g id="edge18" class="edge">
<title>772:w&#45;&gt;962:e</title>
<path fill="none" stroke="black" d="M848.72,-190.84C810.53,-190.84 797.32,-190.84 754.5,-190.84"/>
<polygon fill="black" stroke="black" points="849,-194.34 859,-190.84 849,-187.34 849,-194.34"/>
<text text-anchor="middle" x="837.5" y="-194.64" font-family="Times New Roman,serif" font-size="14.00">5</text>
</g>
<!-- 107 -->
<g id="node3" class="node">
<title>107</title>
<polygon fill="none" stroke="black" points="494,-466.84 345,-466.84 345,-430.84 494,-430.84 494,-466.84"/>
<text text-anchor="middle" x="419.5" y="-445.14" font-family="Times New Roman,serif" font-size="14.00">107 &#45; Mate Intermedia 1</text>
</g>
<!-- 771&#45;&gt;107 -->
<g id="edge3" class="edge">
<title>771:w&#45;&gt;107:e</title>
<path fill="none" stroke="black" d="M629.22,-399.47C581.19,-405.61 581.68,-455.2 529,-470.84 523.04,-472.62 520.67,-473.4 515,-470.84 503.08,-465.48 508.57,-448.84 495.5,-448.84"/>
<polygon fill="black" stroke="black" points="629.73,-402.94 639.5,-398.84 629.31,-395.96 629.73,-402.94"/>
<text text-anchor="middle" x="522" y="-475.64" font-family="Times New Roman,serif" font-size="14.00">10</text>
</g>
<!-- 770 -->
<g id="node6" class="node">
<title>770</title>
<polygon fill="none" stroke="black" points="460.5,-128.84 378.5,-128.84 378.5,-92.84 460.5,-92.84 460.5,-128.84"/>
<text text-anchor="middle" x="419.5" y="-107.14" font-family="Times New Roman,serif" font-size="14.00">770 &#45; IPC 1</text>
</g>
<!-- 771&#45;&gt;770 -->
<g id="edge5" class="edge">
<title>771:w&#45;&gt;770:e</title>
<path fill="none" stroke="black" d="M631.66,-392.29C596.45,-349.42 478.62,-110.84 461.5,-110.84"/>
<polygon fill="black" stroke="black" points="629.58,-395.11 639.5,-398.84 634.08,-389.74 629.58,-395.11"/>
<text text-anchor="middle" x="522" y="-215.64" font-family="Times New Roman,serif" font-size="14.00">4</text>
</g>
<!-- 795 -->
<g id="node7" class="node">
<title>795</title>
<polygon fill="none" stroke="black" points="497,-240.84 342,-240.84 342,-204.84 497,-204.84 497,-240.84"/>
<text text-anchor="middle" x="419.5" y="-219.14" font-family="Times New Roman,serif" font-size="14.00">795 &#45; Logica de sistemas</text>
</g>
<!-- 771&#45;&gt;795 -->
<g id="edge7" class="edge">
<title>771:w&#45;&gt;795:e</title>
<path fill="none" stroke="black" d="M629.27,-398.71C574.33,-397.18 549.47,-382.35 515,-334.84 500.2,-314.44 522.21,-222.84 497,-222.84"/>
<polygon fill="black" stroke="black" points="629.45,-402.21 639.5,-398.84 629.55,-395.21 629.45,-402.21"/>
<text text-anchor="middle" x="522" y="-354.64" font-family="Times New Roman,serif" font-size="14.00">2</text>
</g>
<!-- 960 -->
<g id="node8" class="node">
<title>960</title>
<polygon fill="none" stroke="black" points="491.5,-332.84 347.5,-332.84 347.5,-296.84 491.5,-296.84 491.5,-332.84"/>
<text text-anchor="middle" x="419.5" y="-311.14" font-family="Times New Roman,serif" font-size="14.00">960 &#45; Mate Computo 1</text>
</g>
<!-- 771&#45;&gt;960 -->
<g id="edge9" class="edge">
<title>771:w&#45;&gt;960:e</title>
<path fill="none" stroke="black" d="M629.39,-399.41C580.5,-404.87 555.84,-447.52 515,-414.84 479.43,-386.39 538.06,-314.84 492.5,-314.84"/>
<polygon fill="black" stroke="black" points="629.71,-402.89 639.5,-398.84 629.32,-395.91 629.71,-402.89"/>
<text text-anchor="middle" x="522" y="-426.64" font-family="Times New Roman,serif" font-size="14.00">5</text>
</g>
<!-- 103 -->
<g id="node4" class="node">
<title>103</title>
<polygon fill="none" stroke="black" points="299,-276.84 171,-276.84 171,-240.84 299,-240.84 299,-276.84"/>
<text text-anchor="middle" x="235" y="-255.14" font-family="Times New Roman,serif" font-size="14.00">103 &#45; Mate Basica 2</text>
</g>
<!-- 107&#45;&gt;103 -->
<g id="edge2" class="edge">
<title>107:w&#45;&gt;103:e</title>
<path fill="none" stroke="black" d="M336.45,-441.16C321.24,-405.61 318.06,-258.84 299,-258.84"/>
<polygon fill="black" stroke="black" points="334.16,-443.84 343.5,-448.84 339.32,-439.11 334.16,-443.84"/>
<text text-anchor="middle" x="320.5" y="-374.64" font-family="Times New Roman,serif" font-size="14.00">7</text>
</g>
<!-- 101 -->
<g id="node5" class="node">
<title>101</title>
<polygon fill="none" stroke="black" points="128,-276.84 0,-276.84 0,-240.84 128,-240.84 128,-276.84"/>
<text text-anchor="middle" x="64" y="-255.14" font-family="Times New Roman,serif" font-size="14.00">101 &#45; Mate Basica 1</text>
</g>
<!-- 103&#45;&gt;101 -->
<g id="edge1" class="edge">
<title>103:w&#45;&gt;101:e</title>
<path fill="none" stroke="black" d="M160.89,-258.84C149.36,-258.84 143.23,-258.84 128,-258.84"/>
<polygon fill="black" stroke="black" points="161,-262.34 171,-258.84 161,-255.34 161,-262.34"/>
<text text-anchor="middle" x="149.5" y="-262.64" font-family="Times New Roman,serif" font-size="14.00">7</text>
</g>
<!-- 770&#45;&gt;103 -->
<g id="edge4" class="edge">
<title>770:w&#45;&gt;103:e</title>
<path fill="none" stroke="black" d="M367.13,-111.68C330.16,-118.2 336.33,-161.46 317,-201.84 305.53,-225.81 325.57,-258.84 299,-258.84"/>
<polygon fill="black" stroke="black" points="367.82,-115.14 377.5,-110.84 367.25,-108.16 367.82,-115.14"/>
<text text-anchor="middle" x="320.5" y="-205.64" font-family="Times New Roman,serif" font-size="14.00">7</text>
</g>
<!-- 795&#45;&gt;103 -->
<g id="edge6" class="edge">
<title>795:w&#45;&gt;103:e</title>
<path fill="none" stroke="black" d="M331.77,-223.44C326.73,-224.29 322.93,-226.29 317,-230.84 305.26,-239.85 313.79,-258.84 299,-258.84"/>
<polygon fill="black" stroke="black" points="332.22,-226.92 342,-222.84 331.81,-219.93 332.22,-226.92"/>
<text text-anchor="middle" x="320.5" y="-234.64" font-family="Times New Roman,serif" font-size="14.00">7</text>
</g>
<!-- 960&#45;&gt;103 -->
<g id="edge8" class="edge">
<title>960:w&#45;&gt;103:e</title>
<path fill="none" stroke="black" d="M336.68,-312.58C317.43,-302.1 327.68,-258.84 299,-258.84"/>
<polygon fill="black" stroke="black" points="335.97,-316.01 346.5,-314.84 337.54,-309.19 335.97,-316.01"/>
<text text-anchor="middle" x="320.5" y="-293.64" font-family="Times New Roman,serif" font-size="14.00">7</text>
</g>
<!-- 796&#45;&gt;770 -->
<g id="edge11" class="edge">
<title>796:w&#45;&gt;770:e</title>
<path fill="none" stroke="black" d="M538.62,-112.89C528.14,-91.25 545.87,-17.3 529,-2.84 524.27,1.2 520.29,0.44 515,-2.84 469.49,-31.09 515.07,-110.84 461.5,-110.84"/>
<polygon fill="black" stroke="black" points="536.82,-115.91 547,-118.84 540.87,-110.2 536.82,-115.91"/>
<text text-anchor="middle" x="522" y="-6.64" font-family="Times New Roman,serif" font-size="14.00">4</text>
</g>
<!-- 796&#45;&gt;795 -->
<g id="edge12" class="edge">
<title>796:w&#45;&gt;795:e</title>
<path fill="none" stroke="black" d="M537.05,-119.92C527.34,-122.37 522.45,-129 515,-139.84 493.63,-170.96 534.75,-222.84 497,-222.84"/>
<polygon fill="black" stroke="black" points="537.43,-123.4 547,-118.84 536.68,-116.44 537.43,-123.4"/>
<text text-anchor="middle" x="522" y="-143.64" font-family="Times New Roman,serif" font-size="14.00">2</text>
</g>
<!-- 796&#45;&gt;960 -->
<g id="edge13" class="edge">
<title>796:w&#45;&gt;960:e</title>
<path fill="none" stroke="black" d="M538.14,-123.49C522.87,-143.59 536.78,-223.06 529,-246.84 526.33,-254.99 501.08,-314.84 492.5,-314.84"/>
<polygon fill="black" stroke="black" points="539.77,-126.59 547,-118.84 536.52,-120.39 539.77,-126.59"/>
<text text-anchor="middle" x="522" y="-281.64" font-family="Times New Roman,serif" font-size="14.00">5</text>
</g>
<!-- 962&#45;&gt;770 -->
<g id="edge16" class="edge">
<title>962:w&#45;&gt;770:e</title>
<path fill="none" stroke="black" d="M598.47,-190.45C574.12,-188.35 563.16,-177.81 547,-154.84 522.02,-119.35 562.4,-86.57 529,-58.84 524.21,-54.87 520.77,-56.5 515,-58.84 484.28,-71.32 494.66,-110.84 461.5,-110.84"/>
<polygon fill="black" stroke="black" points="598.37,-193.95 608.5,-190.84 598.65,-186.95 598.37,-193.95"/>
<text text-anchor="middle" x="522" y="-62.64" font-family="Times New Roman,serif" font-size="14.00">4</text>
</g>
<!-- 962&#45;&gt;795 -->
<g id="edge17" class="edge">
<title>962:w&#45;&gt;795:e</title>
<path fill="none" stroke="black" d="M598.09,-189.93C563.05,-183.68 546.64,-148.31 515,-170.84 495.08,-185.03 521.46,-222.84 497,-222.84"/>
<polygon fill="black" stroke="black" points="598.23,-193.45 608.5,-190.84 598.85,-186.48 598.23,-193.45"/>
<text text-anchor="middle" x="522" y="-174.64" font-family="Times New Roman,serif" font-size="14.00">2</text>
</g>
<!-- 962&#45;&gt;960 -->
<g id="edge15" class="edge">
<title>962:w&#45;&gt;960:e</title>
<path fill="none" stroke="black" d="M598.38,-191.65C550.88,-199.87 575.15,-268.8 529,-302.84 515.26,-312.98 509.58,-314.84 492.5,-314.84"/>
<polygon fill="black" stroke="black" points="598.81,-195.13 608.5,-190.84 598.25,-188.15 598.81,-195.13"/>
<text text-anchor="middle" x="522" y="-314.64" font-family="Times New Roman,serif" font-size="14.00">5</text>
</g>
</g>
</svg>
