<?xml version="1.0" encoding="UTF-8" standalone="no"?>
<!DOCTYPE svg PUBLIC "-//W3C//DTD SVG 1.1//EN"
 "http://www.w3.org/Graphics/SVG/1.1/DTD/svg11.dtd">
<!-- Generated by graphviz version 2.48.0 (20210717.1556)
 -->
<!-- Title: G Pages: 1 -->
<svg width="2336pt" height="495pt"
 viewBox="0.00 0.00 2336.00 495.01" xmlns="http://www.w3.org/2000/svg" xmlns:xlink="http://www.w3.org/1999/xlink">
<g id="graph0" class="graph" transform="scale(1 1) rotate(0) translate(4 491.01)">
<title>G</title>
<polygon fill="white" stroke="transparent" points="-4,4 -4,-491.01 2332,-491.01 2332,4 -4,4"/>
<!-- 780 -->
<g id="node1" class="node">
<title>780</title>
<polygon fill="none" stroke="black" points="2328,-145.01 2169,-145.01 2169,-109.01 2328,-109.01 2328,-145.01"/>
<text text-anchor="middle" x="2248.5" y="-123.31" font-family="Times New Roman,serif" font-size="14.00">780 &#45; Software Avanzado</text>
</g>
<!-- 785 -->
<g id="node2" class="node">
<title>785</title>
<polygon fill="none" stroke="black" points="2126,-145.01 1899,-145.01 1899,-109.01 2126,-109.01 2126,-145.01"/>
<text text-anchor="middle" x="2012.5" y="-123.31" font-family="Times New Roman,serif" font-size="14.00">785 &#45; Analisis y Diseño de Sistemas 2</text>
</g>
<!-- 780&#45;&gt;785 -->
<g id="edge24" class="edge">
<title>780:w&#45;&gt;785:e</title>
<path fill="none" stroke="black" d="M2158.89,-127.01C2147.36,-127.01 2141.23,-127.01 2126,-127.01"/>
<polygon fill="black" stroke="black" points="2159,-130.51 2169,-127.01 2159,-123.51 2159,-130.51"/>
<text text-anchor="middle" x="2147.5" y="-130.81" font-family="Times New Roman,serif" font-size="14.00">5</text>
</g>
<!-- 283 -->
<g id="node3" class="node">
<title>283</title>
<polygon fill="none" stroke="black" points="1856,-145.01 1629,-145.01 1629,-109.01 1856,-109.01 1856,-145.01"/>
<text text-anchor="middle" x="1742.5" y="-123.31" font-family="Times New Roman,serif" font-size="14.00">283 &#45; Analisis y Diseño de Sistemas 1</text>
</g>
<!-- 785&#45;&gt;283 -->
<g id="edge23" class="edge">
<title>785:w&#45;&gt;283:e</title>
<path fill="none" stroke="black" d="M1888.89,-127.01C1877.36,-127.01 1871.23,-127.01 1856,-127.01"/>
<polygon fill="black" stroke="black" points="1889,-130.51 1899,-127.01 1889,-123.51 1889,-130.51"/>
<text text-anchor="middle" x="1877.5" y="-130.81" font-family="Times New Roman,serif" font-size="14.00">5</text>
</g>
<!-- 774 -->
<g id="node4" class="node">
<title>774</title>
<polygon fill="none" stroke="black" points="1586,-145.01 1369,-145.01 1369,-109.01 1586,-109.01 1586,-145.01"/>
<text text-anchor="middle" x="1477.5" y="-123.31" font-family="Times New Roman,serif" font-size="14.00">774 &#45; Sistemas de Bases de Datos 1</text>
</g>
<!-- 283&#45;&gt;774 -->
<g id="edge22" class="edge">
<title>283:w&#45;&gt;774:e</title>
<path fill="none" stroke="black" d="M1618.89,-127.01C1607.36,-127.01 1601.23,-127.01 1586,-127.01"/>
<polygon fill="black" stroke="black" points="1619,-130.51 1629,-127.01 1619,-123.51 1619,-130.51"/>
<text text-anchor="middle" x="1607.5" y="-130.81" font-family="Times New Roman,serif" font-size="14.00">5</text>
</g>
<!-- 773 -->
<g id="node5" class="node">
<title>773</title>
<polygon fill="none" stroke="black" points="1326,-145.01 1062,-145.01 1062,-109.01 1326,-109.01 1326,-145.01"/>
<text text-anchor="middle" x="1194" y="-123.31" font-family="Times New Roman,serif" font-size="14.00">773 &#45; Manejo e Implementacion de Archivos</text>
</g>
<!-- 774&#45;&gt;773 -->
<g id="edge21" class="edge">
<title>774:w&#45;&gt;773:e</title>
<path fill="none" stroke="black" d="M1358.89,-127.01C1347.36,-127.01 1341.23,-127.01 1326,-127.01"/>
<polygon fill="black" stroke="black" points="1359,-130.51 1369,-127.01 1359,-123.51 1359,-130.51"/>
<text text-anchor="middle" x="1347.5" y="-130.81" font-family="Times New Roman,serif" font-size="14.00">4</text>
</g>
<!-- 772 -->
<g id="node6" class="node">
<title>772</title>
<polygon fill="none" stroke="black" points="1019,-207.01 859,-207.01 859,-171.01 1019,-171.01 1019,-207.01"/>
<text text-anchor="middle" x="939" y="-185.31" font-family="Times New Roman,serif" font-size="14.00">772 &#45; Estructura de Datos</text>
</g>
<!-- 773&#45;&gt;772 -->
<g id="edge19" class="edge">
<title>773:w&#45;&gt;772:e</title>
<path fill="none" stroke="black" d="M1052.15,-129.51C1033.45,-141.11 1048.47,-189.01 1019,-189.01"/>
<polygon fill="black" stroke="black" points="1053.17,-132.86 1062,-127.01 1051.45,-126.08 1053.17,-132.86"/>
<text text-anchor="middle" x="1040.5" y="-177.81" font-family="Times New Roman,serif" font-size="14.00">5</text>
</g>
<!-- 796 -->
<g id="node14" class="node">
<title>796</title>
<polygon fill="none" stroke="black" points="816,-137.01 547,-137.01 547,-101.01 816,-101.01 816,-137.01"/>
<text text-anchor="middle" x="681.5" y="-115.31" font-family="Times New Roman,serif" font-size="14.00">796 &#45; Lenguajes Formales y de Programacion</text>
</g>
<!-- 773&#45;&gt;796 -->
<g id="edge20" class="edge">
<title>773:w&#45;&gt;796:e</title>
<path fill="none" stroke="black" d="M1051.98,-126.98C950.83,-126.51 921.97,-119.01 816,-119.01"/>
<polygon fill="black" stroke="black" points="1051.99,-130.48 1062,-127.01 1052.01,-123.48 1051.99,-130.48"/>
<text text-anchor="middle" x="939" y="-129.81" font-family="Times New Roman,serif" font-size="14.00">3</text>
</g>
<!-- 771 -->
<g id="node7" class="node">
<title>771</title>
<polygon fill="none" stroke="black" points="722.5,-417.01 640.5,-417.01 640.5,-381.01 722.5,-381.01 722.5,-417.01"/>
<text text-anchor="middle" x="681.5" y="-395.31" font-family="Times New Roman,serif" font-size="14.00">771 &#45; IPC 2</text>
</g>
<!-- 772&#45;&gt;771 -->
<g id="edge10" class="edge">
<title>772:w&#45;&gt;771:e</title>
<path fill="none" stroke="black" d="M852.86,-197.24C826.67,-236.06 726.56,-399.01 723.5,-399.01"/>
<polygon fill="black" stroke="black" points="855.82,-199.11 859,-189.01 850.21,-194.93 855.82,-199.11"/>
<text text-anchor="middle" x="837.5" y="-227.81" font-family="Times New Roman,serif" font-size="14.00">5</text>
</g>
<!-- 772&#45;&gt;796 -->
<g id="edge14" class="edge">
<title>772:w&#45;&gt;796:e</title>
<path fill="none" stroke="black" d="M850.51,-183.51C838.17,-167.01 831.12,-119.01 816,-119.01"/>
<polygon fill="black" stroke="black" points="848.7,-186.51 859,-189.01 852.51,-180.63 848.7,-186.51"/>
<text text-anchor="middle" x="837.5" y="-165.81" font-family="Times New Roman,serif" font-size="14.00">3</text>
</g>
<!-- 962 -->
<g id="node15" class="node">
<title>962</title>
<polygon fill="none" stroke="black" points="753.5,-220.01 609.5,-220.01 609.5,-184.01 753.5,-184.01 753.5,-220.01"/>
<text text-anchor="middle" x="681.5" y="-198.31" font-family="Times New Roman,serif" font-size="14.00">962 &#45; Mate Computo 2</text>
</g>
<!-- 772&#45;&gt;962 -->
<g id="edge18" class="edge">
<title>772:w&#45;&gt;962:e</title>
<path fill="none" stroke="black" d="M848.65,-189.23C810.28,-190.96 797.65,-202.01 754.5,-202.01"/>
<polygon fill="black" stroke="black" points="849.08,-192.72 859,-189.01 848.93,-185.72 849.08,-192.72"/>
<text text-anchor="middle" x="837.5" y="-193.81" font-family="Times New Roman,serif" font-size="14.00">5</text>
</g>
<!-- 107 -->
<g id="node8" class="node">
<title>107</title>
<polygon fill="none" stroke="black" points="494,-467.01 345,-467.01 345,-431.01 494,-431.01 494,-467.01"/>
<text text-anchor="middle" x="419.5" y="-445.31" font-family="Times New Roman,serif" font-size="14.00">107 &#45; Mate Intermedia 1</text>
</g>
<!-- 771&#45;&gt;107 -->
<g id="edge3" class="edge">
<title>771:w&#45;&gt;107:e</title>
<path fill="none" stroke="black" d="M629.22,-399.63C581.19,-405.77 581.68,-455.36 529,-471.01 523.04,-472.78 520.67,-473.56 515,-471.01 503.08,-465.64 508.57,-449.01 495.5,-449.01"/>
<polygon fill="black" stroke="black" points="629.73,-403.11 639.5,-399.01 629.31,-396.12 629.73,-403.11"/>
<text text-anchor="middle" x="522" y="-475.81" font-family="Times New Roman,serif" font-size="14.00">10</text>
</g>
<!-- 770 -->
<g id="node11" class="node">
<title>770</title>
<polygon fill="none" stroke="black" points="460.5,-333.01 378.5,-333.01 378.5,-297.01 460.5,-297.01 460.5,-333.01"/>
<text text-anchor="middle" x="419.5" y="-311.31" font-family="Times New Roman,serif" font-size="14.00">770 &#45; IPC 1</text>
</g>
<!-- 771&#45;&gt;770 -->
<g id="edge5" class="edge">
<title>771:w&#45;&gt;770:e</title>
<path fill="none" stroke="black" d="M629.43,-399.5C581,-404.3 559.87,-441.89 515,-415.01 471.76,-389.1 511.91,-315.01 461.5,-315.01"/>
<polygon fill="black" stroke="black" points="629.68,-402.99 639.5,-399.01 629.34,-396 629.68,-402.99"/>
<text text-anchor="middle" x="522" y="-424.81" font-family="Times New Roman,serif" font-size="14.00">4</text>
</g>
<!-- 795 -->
<g id="node12" class="node">
<title>795</title>
<polygon fill="none" stroke="black" points="497,-241.01 342,-241.01 342,-205.01 497,-205.01 497,-241.01"/>
<text text-anchor="middle" x="419.5" y="-219.31" font-family="Times New Roman,serif" font-size="14.00">795 &#45; Logica de sistemas</text>
</g>
<!-- 771&#45;&gt;795 -->
<g id="edge7" class="edge">
<title>771:w&#45;&gt;795:e</title>
<path fill="none" stroke="black" d="M629.21,-398.86C573.97,-397.18 549.46,-380.99 515,-333.01 500.55,-312.89 521.77,-223.01 497,-223.01"/>
<polygon fill="black" stroke="black" points="629.45,-402.36 639.5,-399.01 629.55,-395.36 629.45,-402.36"/>
<text text-anchor="middle" x="522" y="-352.81" font-family="Times New Roman,serif" font-size="14.00">2</text>
</g>
<!-- 960 -->
<g id="node13" class="node">
<title>960</title>
<polygon fill="none" stroke="black" points="491.5,-129.01 347.5,-129.01 347.5,-93.01 491.5,-93.01 491.5,-129.01"/>
<text text-anchor="middle" x="419.5" y="-107.31" font-family="Times New Roman,serif" font-size="14.00">960 &#45; Mate Computo 1</text>
</g>
<!-- 771&#45;&gt;960 -->
<g id="edge9" class="edge">
<title>771:w&#45;&gt;960:e</title>
<path fill="none" stroke="black" d="M630.46,-394.46C596.94,-366.04 524.66,-213.42 515,-191.01 500.39,-157.08 529.44,-111.01 492.5,-111.01"/>
<polygon fill="black" stroke="black" points="628.99,-397.64 639.5,-399.01 632.14,-391.38 628.99,-397.64"/>
<text text-anchor="middle" x="522" y="-220.81" font-family="Times New Roman,serif" font-size="14.00">5</text>
</g>
<!-- 103 -->
<g id="node9" class="node">
<title>103</title>
<polygon fill="none" stroke="black" points="299,-277.01 171,-277.01 171,-241.01 299,-241.01 299,-277.01"/>
<text text-anchor="middle" x="235" y="-255.31" font-family="Times New Roman,serif" font-size="14.00">103 &#45; Mate Basica 2</text>
</g>
<!-- 107&#45;&gt;103 -->
<g id="edge2" class="edge">
<title>107:w&#45;&gt;103:e</title>
<path fill="none" stroke="black" d="M336.45,-441.32C321.24,-405.78 318.06,-259.01 299,-259.01"/>
<polygon fill="black" stroke="black" points="334.16,-444 343.5,-449.01 339.32,-439.27 334.16,-444"/>
<text text-anchor="middle" x="320.5" y="-374.81" font-family="Times New Roman,serif" font-size="14.00">7</text>
</g>
<!-- 101 -->
<g id="node10" class="node">
<title>101</title>
<polygon fill="none" stroke="black" points="128,-277.01 0,-277.01 0,-241.01 128,-241.01 128,-277.01"/>
<text text-anchor="middle" x="64" y="-255.31" font-family="Times New Roman,serif" font-size="14.00">101 &#45; Mate Basica 1</text>
</g>
<!-- 103&#45;&gt;101 -->
<g id="edge1" class="edge">
<title>103:w&#45;&gt;101:e</title>
<path fill="none" stroke="black" d="M160.89,-259.01C149.36,-259.01 143.23,-259.01 128,-259.01"/>
<polygon fill="black" stroke="black" points="161,-262.51 171,-259.01 161,-255.51 161,-262.51"/>
<text text-anchor="middle" x="149.5" y="-262.81" font-family="Times New Roman,serif" font-size="14.00">7</text>
</g>
<!-- 770&#45;&gt;103 -->
<g id="edge4" class="edge">
<title>770:w&#45;&gt;103:e</title>
<path fill="none" stroke="black" d="M367.5,-313.84C335.51,-305.79 338.17,-259.01 299,-259.01"/>
<polygon fill="black" stroke="black" points="367.16,-317.32 377.5,-315.01 367.97,-310.37 367.16,-317.32"/>
<text text-anchor="middle" x="320.5" y="-270.81" font-family="Times New Roman,serif" font-size="14.00">7</text>
</g>
<!-- 795&#45;&gt;103 -->
<g id="edge6" class="edge">
<title>795:w&#45;&gt;103:e</title>
<path fill="none" stroke="black" d="M331.77,-223.6C326.73,-224.45 322.93,-226.46 317,-231.01 305.26,-240.01 313.79,-259.01 299,-259.01"/>
<polygon fill="black" stroke="black" points="332.22,-227.08 342,-223.01 331.81,-220.09 332.22,-227.08"/>
<text text-anchor="middle" x="320.5" y="-234.81" font-family="Times New Roman,serif" font-size="14.00">7</text>
</g>
<!-- 960&#45;&gt;103 -->
<g id="edge8" class="edge">
<title>960:w&#45;&gt;103:e</title>
<path fill="none" stroke="black" d="M336.26,-112.29C308.51,-120.39 328.74,-165.31 317,-202.01 308.9,-227.31 325.57,-259.01 299,-259.01"/>
<polygon fill="black" stroke="black" points="337.01,-115.72 346.5,-111.01 336.14,-108.77 337.01,-115.72"/>
<text text-anchor="middle" x="320.5" y="-205.81" font-family="Times New Roman,serif" font-size="14.00">7</text>
</g>
<!-- 796&#45;&gt;770 -->
<g id="edge11" class="edge">
<title>796:w&#45;&gt;770:e</title>
<path fill="none" stroke="black" d="M538.11,-124C523.88,-144.82 540.07,-224.69 529,-247.01 510.07,-285.15 504.08,-315.01 461.5,-315.01"/>
<polygon fill="black" stroke="black" points="540,-126.95 547,-119.01 536.57,-120.85 540,-126.95"/>
<text text-anchor="middle" x="522" y="-279.81" font-family="Times New Roman,serif" font-size="14.00">4</text>
</g>
<!-- 796&#45;&gt;795 -->
<g id="edge12" class="edge">
<title>796:w&#45;&gt;795:e</title>
<path fill="none" stroke="black" d="M537.05,-120.08C527.34,-122.53 522.45,-129.16 515,-140.01 493.63,-171.12 534.75,-223.01 497,-223.01"/>
<polygon fill="black" stroke="black" points="537.43,-123.56 547,-119.01 536.68,-116.6 537.43,-123.56"/>
<text text-anchor="middle" x="522" y="-143.81" font-family="Times New Roman,serif" font-size="14.00">2</text>
</g>
<!-- 796&#45;&gt;960 -->
<g id="edge13" class="edge">
<title>796:w&#45;&gt;960:e</title>
<path fill="none" stroke="black" d="M538.62,-113.05C528.14,-91.41 545.87,-17.46 529,-3.01 524.27,1.04 519.83,0.92 515,-3.01 476.96,-33.94 541.53,-111.01 492.5,-111.01"/>
<polygon fill="black" stroke="black" points="536.82,-116.07 547,-119.01 540.87,-110.36 536.82,-116.07"/>
<text text-anchor="middle" x="522" y="-6.81" font-family="Times New Roman,serif" font-size="14.00">5</text>
</g>
<!-- 962&#45;&gt;770 -->
<g id="edge16" class="edge">
<title>962:w&#45;&gt;770:e</title>
<path fill="none" stroke="black" d="M598.46,-202.87C554.49,-211.06 574.84,-275.53 529,-303.01 502.86,-318.67 491.97,-315.01 461.5,-315.01"/>
<polygon fill="black" stroke="black" points="598.84,-206.35 608.5,-202.01 598.24,-199.37 598.84,-206.35"/>
<text text-anchor="middle" x="522" y="-312.81" font-family="Times New Roman,serif" font-size="14.00">4</text>
</g>
<!-- 962&#45;&gt;795 -->
<g id="edge17" class="edge">
<title>962:w&#45;&gt;795:e</title>
<path fill="none" stroke="black" d="M598.3,-200.94C562.27,-193.3 547.74,-147.69 515,-171.01 495.08,-185.19 521.46,-223.01 497,-223.01"/>
<polygon fill="black" stroke="black" points="598.19,-204.45 608.5,-202.01 598.92,-197.49 598.19,-204.45"/>
<text text-anchor="middle" x="522" y="-174.81" font-family="Times New Roman,serif" font-size="14.00">2</text>
</g>
<!-- 962&#45;&gt;960 -->
<g id="edge15" class="edge">
<title>962:w&#45;&gt;960:e</title>
<path fill="none" stroke="black" d="M598.42,-201.42C572.09,-198.14 563.13,-181.21 547,-155.01 524.24,-118.04 562.4,-86.73 529,-59.01 524.21,-55.03 520.2,-55.59 515,-59.01 493.95,-72.83 517.68,-111.01 492.5,-111.01"/>
<polygon fill="black" stroke="black" points="598.31,-204.92 608.5,-202.01 598.72,-197.93 598.31,-204.92"/>
<text text-anchor="middle" x="522" y="-62.81" font-family="Times New Roman,serif" font-size="14.00">5</text>
</g>
</g>
</svg>
