<?xml version="1.0" encoding="UTF-8" standalone="no"?>
<!DOCTYPE svg PUBLIC "-//W3C//DTD SVG 1.1//EN"
 "http://www.w3.org/Graphics/SVG/1.1/DTD/svg11.dtd">
<!-- Generated by graphviz version 2.48.0 (20210717.1556)
 -->
<!-- Title: cola Pages: 1 -->
<svg width="1980pt" height="61pt"
 viewBox="0.00 0.00 1980.00 61.00" xmlns="http://www.w3.org/2000/svg" xmlns:xlink="http://www.w3.org/1999/xlink">
<g id="graph0" class="graph" transform="scale(1 1) rotate(0) translate(4 57)">
<title>cola</title>
<polygon fill="white" stroke="transparent" points="-4,4 -4,-57 1976,-57 1976,4 -4,4"/>
<!-- N0 -->
<g id="node1" class="node">
<title>N0</title>
<polygon fill="none" stroke="black" points="323,-53 0,-53 0,0 323,0 323,-53"/>
<text text-anchor="middle" x="161.5" y="-37.8" font-family="Times New Roman,serif" font-size="14.00">id:5</text>
<text text-anchor="middle" x="161.5" y="-22.8" font-family="Times New Roman,serif" font-size="14.00">Tipo: Tarea</text>
<text text-anchor="middle" x="161.5" y="-7.8" font-family="Times New Roman,serif" font-size="14.00">Descripcion: Carnet no existe dentro de los estudiantes</text>
</g>
<!-- N1 -->
<g id="node2" class="node">
<title>N1</title>
<polygon fill="none" stroke="black" points="643,-53 359,-53 359,0 643,0 643,-53"/>
<text text-anchor="middle" x="501" y="-37.8" font-family="Times New Roman,serif" font-size="14.00">id:4</text>
<text text-anchor="middle" x="501" y="-22.8" font-family="Times New Roman,serif" font-size="14.00">Tipo: Tarea</text>
<text text-anchor="middle" x="501" y="-7.8" font-family="Times New Roman,serif" font-size="14.00">Descripcion: Fecha no tiene el formato correcto</text>
</g>
<!-- N0&#45;&gt;N1 -->
<g id="edge1" class="edge">
<title>N0&#45;&gt;N1</title>
<path fill="none" stroke="black" d="M323.34,-26.5C331.79,-26.5 340.27,-26.5 348.68,-26.5"/>
<polygon fill="black" stroke="black" points="348.92,-30 358.92,-26.5 348.92,-23 348.92,-30"/>
</g>
<!-- N2 -->
<g id="node3" class="node">
<title>N2</title>
<polygon fill="none" stroke="black" points="963,-53 679,-53 679,0 963,0 963,-53"/>
<text text-anchor="middle" x="821" y="-37.8" font-family="Times New Roman,serif" font-size="14.00">id:3</text>
<text text-anchor="middle" x="821" y="-22.8" font-family="Times New Roman,serif" font-size="14.00">Tipo: Tarea</text>
<text text-anchor="middle" x="821" y="-7.8" font-family="Times New Roman,serif" font-size="14.00">Descripcion: Fecha no tiene el formato correcto</text>
</g>
<!-- N1&#45;&gt;N2 -->
<g id="edge2" class="edge">
<title>N1&#45;&gt;N2</title>
<path fill="none" stroke="black" d="M643.33,-26.5C651.7,-26.5 660.14,-26.5 668.55,-26.5"/>
<polygon fill="black" stroke="black" points="668.79,-30 678.79,-26.5 668.79,-23 668.79,-30"/>
</g>
<!-- N3 -->
<g id="node4" class="node">
<title>N3</title>
<polygon fill="none" stroke="black" points="1322,-53 999,-53 999,0 1322,0 1322,-53"/>
<text text-anchor="middle" x="1160.5" y="-37.8" font-family="Times New Roman,serif" font-size="14.00">id:2</text>
<text text-anchor="middle" x="1160.5" y="-22.8" font-family="Times New Roman,serif" font-size="14.00">Tipo: Tarea</text>
<text text-anchor="middle" x="1160.5" y="-7.8" font-family="Times New Roman,serif" font-size="14.00">Descripcion: Carnet no existe dentro de los estudiantes</text>
</g>
<!-- N2&#45;&gt;N3 -->
<g id="edge3" class="edge">
<title>N2&#45;&gt;N3</title>
<path fill="none" stroke="black" d="M963.17,-26.5C971.68,-26.5 980.28,-26.5 988.88,-26.5"/>
<polygon fill="black" stroke="black" points="988.99,-30 998.99,-26.5 988.99,-23 988.99,-30"/>
</g>
<!-- N4 -->
<g id="node5" class="node">
<title>N4</title>
<polygon fill="none" stroke="black" points="1642,-53 1358,-53 1358,0 1642,0 1642,-53"/>
<text text-anchor="middle" x="1500" y="-37.8" font-family="Times New Roman,serif" font-size="14.00">id:1</text>
<text text-anchor="middle" x="1500" y="-22.8" font-family="Times New Roman,serif" font-size="14.00">Tipo: Tarea</text>
<text text-anchor="middle" x="1500" y="-7.8" font-family="Times New Roman,serif" font-size="14.00">Descripcion: Fecha no tiene el formato correcto</text>
</g>
<!-- N3&#45;&gt;N4 -->
<g id="edge4" class="edge">
<title>N3&#45;&gt;N4</title>
<path fill="none" stroke="black" d="M1322.34,-26.5C1330.79,-26.5 1339.27,-26.5 1347.68,-26.5"/>
<polygon fill="black" stroke="black" points="1347.92,-30 1357.92,-26.5 1347.92,-23 1347.92,-30"/>
</g>
<!-- N5 -->
<g id="node6" class="node">
<title>N5</title>
<polygon fill="none" stroke="black" points="1972,-53 1678,-53 1678,0 1972,0 1972,-53"/>
<text text-anchor="middle" x="1825" y="-37.8" font-family="Times New Roman,serif" font-size="14.00">id:0</text>
<text text-anchor="middle" x="1825" y="-22.8" font-family="Times New Roman,serif" font-size="14.00">Tipo: Estudiante</text>
<text text-anchor="middle" x="1825" y="-7.8" font-family="Times New Roman,serif" font-size="14.00">Descripcion: Correo no tiene un formato correcto</text>
</g>
<!-- N4&#45;&gt;N5 -->
<g id="edge5" class="edge">
<title>N4&#45;&gt;N5</title>
<path fill="none" stroke="black" d="M1642.2,-26.5C1650.68,-26.5 1659.24,-26.5 1667.77,-26.5"/>
<polygon fill="black" stroke="black" points="1667.78,-30 1677.78,-26.5 1667.78,-23 1667.78,-30"/>
</g>
</g>
</svg>
