<?xml version="1.0" encoding="UTF-8" standalone="no"?>
<!DOCTYPE svg PUBLIC "-//W3C//DTD SVG 1.1//EN"
 "http://www.w3.org/Graphics/SVG/1.1/DTD/svg11.dtd">
<!-- Generated by graphviz version 2.48.0 (20210717.1556)
 -->
<!-- Title: estudiantes Pages: 1 -->
<svg width="2257pt" height="164pt"
 viewBox="0.00 0.00 2257.00 164.00" xmlns="http://www.w3.org/2000/svg" xmlns:xlink="http://www.w3.org/1999/xlink">
<g id="graph0" class="graph" transform="scale(1 1) rotate(0) translate(4 160)">
<title>estudiantes</title>
<polygon fill="white" stroke="transparent" points="-4,4 -4,-160 2253,-160 2253,4 -4,4"/>
<!-- N0 -->
<g id="node1" class="node">
<title>N0</title>
<polygon fill="none" stroke="black" points="251,-113 0,-113 0,0 251,0 251,-113"/>
<text text-anchor="middle" x="125.5" y="-97.8" font-family="Times New Roman,serif" font-size="14.00">Carnet:201700886</text>
<text text-anchor="middle" x="125.5" y="-82.8" font-family="Times New Roman,serif" font-size="14.00">DPI: 3502451230508</text>
<text text-anchor="middle" x="125.5" y="-67.8" font-family="Times New Roman,serif" font-size="14.00">Nombre: Emilia Miramontes</text>
<text text-anchor="middle" x="125.5" y="-52.8" font-family="Times New Roman,serif" font-size="14.00">Carrera: Ingeniería en Ciencias y Sistemas</text>
<text text-anchor="middle" x="125.5" y="-37.8" font-family="Times New Roman,serif" font-size="14.00">Password: roxodiciqi</text>
<text text-anchor="middle" x="125.5" y="-22.8" font-family="Times New Roman,serif" font-size="14.00">Creditos: 205</text>
<text text-anchor="middle" x="125.5" y="-7.8" font-family="Times New Roman,serif" font-size="14.00">Edad: 21</text>
</g>
<!-- N1 -->
<g id="node2" class="node">
<title>N1</title>
<polygon fill="none" stroke="black" points="462,-156 287,-156 287,-43 462,-43 462,-156"/>
<text text-anchor="middle" x="374.5" y="-140.8" font-family="Times New Roman,serif" font-size="14.00">Carnet:201501786</text>
<text text-anchor="middle" x="374.5" y="-125.8" font-family="Times New Roman,serif" font-size="14.00">DPI: 7249529279753</text>
<text text-anchor="middle" x="374.5" y="-110.8" font-family="Times New Roman,serif" font-size="14.00">Nombre: Juan Curiel</text>
<text text-anchor="middle" x="374.5" y="-95.8" font-family="Times New Roman,serif" font-size="14.00">Carrera: Ingeniería Industrial</text>
<text text-anchor="middle" x="374.5" y="-80.8" font-family="Times New Roman,serif" font-size="14.00">Password: zanolexima</text>
<text text-anchor="middle" x="374.5" y="-65.8" font-family="Times New Roman,serif" font-size="14.00">Creditos: 245</text>
<text text-anchor="middle" x="374.5" y="-50.8" font-family="Times New Roman,serif" font-size="14.00">Edad: 24</text>
</g>
<!-- N0&#45;&gt;N1 -->
<g id="edge1" class="edge">
<title>N0&#45;&gt;N1</title>
<path fill="none" stroke="black" d="M261.01,-79.92C266.35,-80.85 271.66,-81.77 276.91,-82.68"/>
<polygon fill="black" stroke="black" points="261.54,-76.46 251.09,-78.19 260.34,-83.35 261.54,-76.46"/>
<polygon fill="black" stroke="black" points="276.45,-86.16 286.91,-84.42 277.65,-79.26 276.45,-86.16"/>
</g>
<!-- N9 -->
<g id="node10" class="node">
<title>N9</title>
<polygon fill="none" stroke="black" points="2249,-113 2021,-113 2021,0 2249,0 2249,-113"/>
<text text-anchor="middle" x="2135" y="-97.8" font-family="Times New Roman,serif" font-size="14.00">Carnet:201819852</text>
<text text-anchor="middle" x="2135" y="-82.8" font-family="Times New Roman,serif" font-size="14.00">DPI: 3423442386382</text>
<text text-anchor="middle" x="2135" y="-67.8" font-family="Times New Roman,serif" font-size="14.00">Nombre: Benjamín Asencio</text>
<text text-anchor="middle" x="2135" y="-52.8" font-family="Times New Roman,serif" font-size="14.00">Carrera: Ingeniería Mecánica Eléctrica</text>
<text text-anchor="middle" x="2135" y="-37.8" font-family="Times New Roman,serif" font-size="14.00">Password: runoqozepo</text>
<text text-anchor="middle" x="2135" y="-22.8" font-family="Times New Roman,serif" font-size="14.00">Creditos: 117</text>
<text text-anchor="middle" x="2135" y="-7.8" font-family="Times New Roman,serif" font-size="14.00">Edad: 20</text>
</g>
<!-- N0&#45;&gt;N9 -->
<g id="edge2" class="edge">
<title>N0&#45;&gt;N9</title>
<path fill="none" stroke="black" d="M261.42,-36.42C270.07,-35.36 278.65,-34.38 287,-33.5 413.03,-20.28 444.77,-14.5 571.5,-14.5 571.5,-14.5 571.5,-14.5 1632.5,-14.5 1789.39,-14.5 1828.95,-17.29 1985,-33.5 1993.33,-34.36 2001.9,-35.37 2010.52,-36.47"/>
<polygon fill="black" stroke="black" points="260.73,-32.97 251.24,-37.68 261.6,-39.92 260.73,-32.97"/>
<polygon fill="black" stroke="black" points="2010.29,-39.97 2020.66,-37.81 2011.21,-33.03 2010.29,-39.97"/>
</g>
<!-- N2 -->
<g id="node3" class="node">
<title>N2</title>
<polygon fill="none" stroke="black" points="647,-156 498,-156 498,-43 647,-43 647,-156"/>
<text text-anchor="middle" x="572.5" y="-140.8" font-family="Times New Roman,serif" font-size="14.00">Carnet:201822186</text>
<text text-anchor="middle" x="572.5" y="-125.8" font-family="Times New Roman,serif" font-size="14.00">DPI: 9298434863898</text>
<text text-anchor="middle" x="572.5" y="-110.8" font-family="Times New Roman,serif" font-size="14.00">Nombre: Eloisa Rincón</text>
<text text-anchor="middle" x="572.5" y="-95.8" font-family="Times New Roman,serif" font-size="14.00">Carrera: Ingeniería Civil</text>
<text text-anchor="middle" x="572.5" y="-80.8" font-family="Times New Roman,serif" font-size="14.00">Password: toqelijanu</text>
<text text-anchor="middle" x="572.5" y="-65.8" font-family="Times New Roman,serif" font-size="14.00">Creditos: 95</text>
<text text-anchor="middle" x="572.5" y="-50.8" font-family="Times New Roman,serif" font-size="14.00">Edad: 19</text>
</g>
<!-- N1&#45;&gt;N2 -->
<g id="edge4" class="edge">
<title>N1&#45;&gt;N2</title>
<path fill="none" stroke="black" d="M472.2,-99.5C477.35,-99.5 482.51,-99.5 487.61,-99.5"/>
<polygon fill="black" stroke="black" points="472.04,-96 462.04,-99.5 472.04,-103 472.04,-96"/>
<polygon fill="black" stroke="black" points="488,-103 498,-99.5 488,-96 488,-103"/>
</g>
<!-- N3 -->
<g id="node4" class="node">
<title>N3</title>
<polygon fill="none" stroke="black" points="859,-156 683,-156 683,-43 859,-43 859,-156"/>
<text text-anchor="middle" x="771" y="-140.8" font-family="Times New Roman,serif" font-size="14.00">Carnet:201901425</text>
<text text-anchor="middle" x="771" y="-125.8" font-family="Times New Roman,serif" font-size="14.00">DPI: 4131766125532</text>
<text text-anchor="middle" x="771" y="-110.8" font-family="Times New Roman,serif" font-size="14.00">Nombre: Bernardo Hinojosa</text>
<text text-anchor="middle" x="771" y="-95.8" font-family="Times New Roman,serif" font-size="14.00">Carrera: Ingeniería Mecánica</text>
<text text-anchor="middle" x="771" y="-80.8" font-family="Times New Roman,serif" font-size="14.00">Password: wosopumano</text>
<text text-anchor="middle" x="771" y="-65.8" font-family="Times New Roman,serif" font-size="14.00">Creditos: 100</text>
<text text-anchor="middle" x="771" y="-50.8" font-family="Times New Roman,serif" font-size="14.00">Edad: 20</text>
</g>
<!-- N2&#45;&gt;N3 -->
<g id="edge6" class="edge">
<title>N2&#45;&gt;N3</title>
<path fill="none" stroke="black" d="M657.44,-99.5C662.45,-99.5 667.52,-99.5 672.58,-99.5"/>
<polygon fill="black" stroke="black" points="657.23,-96 647.23,-99.5 657.23,-103 657.23,-96"/>
<polygon fill="black" stroke="black" points="672.95,-103 682.95,-99.5 672.95,-96 672.95,-103"/>
</g>
<!-- N4 -->
<g id="node5" class="node">
<title>N4</title>
<polygon fill="none" stroke="black" points="1074,-156 895,-156 895,-43 1074,-43 1074,-156"/>
<text text-anchor="middle" x="984.5" y="-140.8" font-family="Times New Roman,serif" font-size="14.00">Carnet:201503186</text>
<text text-anchor="middle" x="984.5" y="-125.8" font-family="Times New Roman,serif" font-size="14.00">DPI: 8549191766348</text>
<text text-anchor="middle" x="984.5" y="-110.8" font-family="Times New Roman,serif" font-size="14.00">Nombre: Manuel Manzanares</text>
<text text-anchor="middle" x="984.5" y="-95.8" font-family="Times New Roman,serif" font-size="14.00">Carrera: Ingeniería Eléctrica</text>
<text text-anchor="middle" x="984.5" y="-80.8" font-family="Times New Roman,serif" font-size="14.00">Password: rejumudore</text>
<text text-anchor="middle" x="984.5" y="-65.8" font-family="Times New Roman,serif" font-size="14.00">Creditos: 226</text>
<text text-anchor="middle" x="984.5" y="-50.8" font-family="Times New Roman,serif" font-size="14.00">Edad: 24</text>
</g>
<!-- N3&#45;&gt;N4 -->
<g id="edge8" class="edge">
<title>N3&#45;&gt;N4</title>
<path fill="none" stroke="black" d="M869.47,-99.5C874.48,-99.5 879.5,-99.5 884.51,-99.5"/>
<polygon fill="black" stroke="black" points="869.25,-96 859.25,-99.5 869.25,-103 869.25,-96"/>
<polygon fill="black" stroke="black" points="884.75,-103 894.75,-99.5 884.75,-96 884.75,-103"/>
</g>
<!-- N5 -->
<g id="node6" class="node">
<title>N5</title>
<polygon fill="none" stroke="black" points="1295,-156 1110,-156 1110,-43 1295,-43 1295,-156"/>
<text text-anchor="middle" x="1202.5" y="-140.8" font-family="Times New Roman,serif" font-size="14.00">Carnet:201123146</text>
<text text-anchor="middle" x="1202.5" y="-125.8" font-family="Times New Roman,serif" font-size="14.00">DPI: 9616636196552</text>
<text text-anchor="middle" x="1202.5" y="-110.8" font-family="Times New Roman,serif" font-size="14.00">Nombre: Julia Corona</text>
<text text-anchor="middle" x="1202.5" y="-95.8" font-family="Times New Roman,serif" font-size="14.00">Carrera: Ingeniería Electrónica</text>
<text text-anchor="middle" x="1202.5" y="-80.8" font-family="Times New Roman,serif" font-size="14.00">Password: xojobavuji</text>
<text text-anchor="middle" x="1202.5" y="-65.8" font-family="Times New Roman,serif" font-size="14.00">Creditos: 237</text>
<text text-anchor="middle" x="1202.5" y="-50.8" font-family="Times New Roman,serif" font-size="14.00">Edad: 26</text>
</g>
<!-- N4&#45;&gt;N5 -->
<g id="edge10" class="edge">
<title>N4&#45;&gt;N5</title>
<path fill="none" stroke="black" d="M1084.55,-99.5C1089.56,-99.5 1094.61,-99.5 1099.63,-99.5"/>
<polygon fill="black" stroke="black" points="1084.29,-96 1074.29,-99.5 1084.29,-103 1084.29,-96"/>
<polygon fill="black" stroke="black" points="1099.91,-103 1109.91,-99.5 1099.91,-96 1099.91,-103"/>
</g>
<!-- N6 -->
<g id="node7" class="node">
<title>N6</title>
<polygon fill="none" stroke="black" points="1510,-156 1331,-156 1331,-43 1510,-43 1510,-156"/>
<text text-anchor="middle" x="1420.5" y="-140.8" font-family="Times New Roman,serif" font-size="14.00">Carnet:201704186</text>
<text text-anchor="middle" x="1420.5" y="-125.8" font-family="Times New Roman,serif" font-size="14.00">DPI: 4778315315575</text>
<text text-anchor="middle" x="1420.5" y="-110.8" font-family="Times New Roman,serif" font-size="14.00">Nombre: Berta Carrasco</text>
<text text-anchor="middle" x="1420.5" y="-95.8" font-family="Times New Roman,serif" font-size="14.00">Carrera: Ingeniería Ambiental</text>
<text text-anchor="middle" x="1420.5" y="-80.8" font-family="Times New Roman,serif" font-size="14.00">Password: gayahizatu</text>
<text text-anchor="middle" x="1420.5" y="-65.8" font-family="Times New Roman,serif" font-size="14.00">Creditos: 210</text>
<text text-anchor="middle" x="1420.5" y="-50.8" font-family="Times New Roman,serif" font-size="14.00">Edad: 22</text>
</g>
<!-- N5&#45;&gt;N6 -->
<g id="edge12" class="edge">
<title>N5&#45;&gt;N6</title>
<path fill="none" stroke="black" d="M1305.15,-99.5C1310.25,-99.5 1315.36,-99.5 1320.46,-99.5"/>
<polygon fill="black" stroke="black" points="1305.1,-96 1295.1,-99.5 1305.1,-103 1305.1,-96"/>
<polygon fill="black" stroke="black" points="1320.85,-103 1330.85,-99.5 1320.85,-96 1320.85,-103"/>
</g>
<!-- N7 -->
<g id="node8" class="node">
<title>N7</title>
<polygon fill="none" stroke="black" points="1717,-156 1546,-156 1546,-43 1717,-43 1717,-156"/>
<text text-anchor="middle" x="1631.5" y="-140.8" font-family="Times New Roman,serif" font-size="14.00">Carnet:202000786</text>
<text text-anchor="middle" x="1631.5" y="-125.8" font-family="Times New Roman,serif" font-size="14.00">DPI: 7382344774121</text>
<text text-anchor="middle" x="1631.5" y="-110.8" font-family="Times New Roman,serif" font-size="14.00">Nombre: Lola Delapaz</text>
<text text-anchor="middle" x="1631.5" y="-95.8" font-family="Times New Roman,serif" font-size="14.00">Carrera: Ingeniería Química</text>
<text text-anchor="middle" x="1631.5" y="-80.8" font-family="Times New Roman,serif" font-size="14.00">Password: hujocikimi</text>
<text text-anchor="middle" x="1631.5" y="-65.8" font-family="Times New Roman,serif" font-size="14.00">Creditos: 45</text>
<text text-anchor="middle" x="1631.5" y="-50.8" font-family="Times New Roman,serif" font-size="14.00">Edad: 19</text>
</g>
<!-- N6&#45;&gt;N7 -->
<g id="edge14" class="edge">
<title>N6&#45;&gt;N7</title>
<path fill="none" stroke="black" d="M1520.14,-99.5C1525.22,-99.5 1530.31,-99.5 1535.38,-99.5"/>
<polygon fill="black" stroke="black" points="1520.13,-96 1510.13,-99.5 1520.13,-103 1520.13,-96"/>
<polygon fill="black" stroke="black" points="1535.72,-103 1545.72,-99.5 1535.72,-96 1535.72,-103"/>
</g>
<!-- N8 -->
<g id="node9" class="node">
<title>N8</title>
<polygon fill="none" stroke="black" points="1985,-156 1753,-156 1753,-43 1985,-43 1985,-156"/>
<text text-anchor="middle" x="1869" y="-140.8" font-family="Times New Roman,serif" font-size="14.00">Carnet:201611446</text>
<text text-anchor="middle" x="1869" y="-125.8" font-family="Times New Roman,serif" font-size="14.00">DPI: 2511893949443</text>
<text text-anchor="middle" x="1869" y="-110.8" font-family="Times New Roman,serif" font-size="14.00">Nombre: Sonia Arteaga</text>
<text text-anchor="middle" x="1869" y="-95.8" font-family="Times New Roman,serif" font-size="14.00">Carrera: Ingeniería Mecánica Industrial</text>
<text text-anchor="middle" x="1869" y="-80.8" font-family="Times New Roman,serif" font-size="14.00">Password: rezutafila</text>
<text text-anchor="middle" x="1869" y="-65.8" font-family="Times New Roman,serif" font-size="14.00">Creditos: 195</text>
<text text-anchor="middle" x="1869" y="-50.8" font-family="Times New Roman,serif" font-size="14.00">Edad: 23</text>
</g>
<!-- N7&#45;&gt;N8 -->
<g id="edge16" class="edge">
<title>N7&#45;&gt;N8</title>
<path fill="none" stroke="black" d="M1727.36,-99.5C1732.48,-99.5 1737.67,-99.5 1742.87,-99.5"/>
<polygon fill="black" stroke="black" points="1727.19,-96 1717.19,-99.5 1727.19,-103 1727.19,-96"/>
<polygon fill="black" stroke="black" points="1742.9,-103 1752.9,-99.5 1742.9,-96 1742.9,-103"/>
</g>
<!-- N8&#45;&gt;N9 -->
<g id="edge18" class="edge">
<title>N8&#45;&gt;N9</title>
<path fill="none" stroke="black" d="M1985.03,-80.76C1993.52,-79.38 2002.1,-77.98 2010.64,-76.59"/>
<polygon fill="black" stroke="black" points="2011.32,-80.03 2020.62,-74.97 2010.19,-73.12 2011.32,-80.03"/>
</g>
</g>
</svg>
