<?xml version="1.0" encoding="UTF-8" standalone="no"?>
<!DOCTYPE svg PUBLIC "-//W3C//DTD SVG 1.1//EN"
 "http://www.w3.org/Graphics/SVG/1.1/DTD/svg11.dtd">
<!-- Generated by graphviz version 2.48.0 (20210717.1556)
 -->
<!-- Title: tf Pages: 1 -->
<svg width="3524pt" height="136pt"
 viewBox="0.00 0.00 3524.00 136.00" xmlns="http://www.w3.org/2000/svg" xmlns:xlink="http://www.w3.org/1999/xlink">
<g id="graph0" class="graph" transform="scale(1 1) rotate(0) translate(4 132)">
<title>tf</title>
<polygon fill="white" stroke="transparent" points="-4,4 -4,-132 3520,-132 3520,4 -4,4"/>
<!-- N0 -->
<g id="node1" class="node">
<title>N0</title>
<polygon fill="none" stroke="black" points="392,-128 0,-128 0,0 392,0 392,-128"/>
<text text-anchor="middle" x="196" y="-112.8" font-family="Times New Roman,serif" font-size="14.00">Carnet:201901425</text>
<text text-anchor="middle" x="196" y="-97.8" font-family="Times New Roman,serif" font-size="14.00">ID: 0</text>
<text text-anchor="middle" x="196" y="-82.8" font-family="Times New Roman,serif" font-size="14.00">Nombre: Tarea de Matematica</text>
<text text-anchor="middle" x="196" y="-67.8" font-family="Times New Roman,serif" font-size="14.00">Descripcion: Realizar la tarea del curso de matemática intermedia 1.</text>
<text text-anchor="middle" x="196" y="-52.8" font-family="Times New Roman,serif" font-size="14.00">Materia: Matemática Intermedia 1</text>
<text text-anchor="middle" x="196" y="-37.8" font-family="Times New Roman,serif" font-size="14.00">Fecha: 2021/07/01</text>
<text text-anchor="middle" x="196" y="-22.8" font-family="Times New Roman,serif" font-size="14.00">Hora: 8</text>
<text text-anchor="middle" x="196" y="-7.8" font-family="Times New Roman,serif" font-size="14.00">Estado: Incumplido</text>
</g>
<!-- N1 -->
<g id="node2" class="node">
<title>N1</title>
<polygon fill="none" stroke="black" points="629,-128 428,-128 428,0 629,0 629,-128"/>
<text text-anchor="middle" x="528.5" y="-112.8" font-family="Times New Roman,serif" font-size="14.00">Carnet:201901425</text>
<text text-anchor="middle" x="528.5" y="-97.8" font-family="Times New Roman,serif" font-size="14.00">ID: 1</text>
<text text-anchor="middle" x="528.5" y="-82.8" font-family="Times New Roman,serif" font-size="14.00">Nombre: Tarea de Matematica</text>
<text text-anchor="middle" x="528.5" y="-67.8" font-family="Times New Roman,serif" font-size="14.00">Descripcion: Modificacion 2.</text>
<text text-anchor="middle" x="528.5" y="-52.8" font-family="Times New Roman,serif" font-size="14.00">Materia: Matemática Intermedia 1</text>
<text text-anchor="middle" x="528.5" y="-37.8" font-family="Times New Roman,serif" font-size="14.00">Fecha: 2021/0447/01</text>
<text text-anchor="middle" x="528.5" y="-22.8" font-family="Times New Roman,serif" font-size="14.00">Hora: 9</text>
<text text-anchor="middle" x="528.5" y="-7.8" font-family="Times New Roman,serif" font-size="14.00">Estado: Incumplido</text>
</g>
<!-- N0&#45;&gt;N1 -->
<g id="edge1" class="edge">
<title>N0&#45;&gt;N1</title>
<path fill="none" stroke="black" d="M402.32,-64C407.45,-64 412.52,-64 417.51,-64"/>
<polygon fill="black" stroke="black" points="402.12,-60.5 392.12,-64 402.12,-67.5 402.12,-60.5"/>
<polygon fill="black" stroke="black" points="417.65,-67.5 427.65,-64 417.65,-60.5 417.65,-67.5"/>
</g>
<!-- N2 -->
<g id="node3" class="node">
<title>N2</title>
<polygon fill="none" stroke="black" points="866,-128 665,-128 665,0 866,0 866,-128"/>
<text text-anchor="middle" x="765.5" y="-112.8" font-family="Times New Roman,serif" font-size="14.00">Carnet:201901425</text>
<text text-anchor="middle" x="765.5" y="-97.8" font-family="Times New Roman,serif" font-size="14.00">ID: 2</text>
<text text-anchor="middle" x="765.5" y="-82.8" font-family="Times New Roman,serif" font-size="14.00">Nombre: Tarea de Matematica</text>
<text text-anchor="middle" x="765.5" y="-67.8" font-family="Times New Roman,serif" font-size="14.00">Descripcion: Modificacion 3.</text>
<text text-anchor="middle" x="765.5" y="-52.8" font-family="Times New Roman,serif" font-size="14.00">Materia: Matemática Intermedia 1</text>
<text text-anchor="middle" x="765.5" y="-37.8" font-family="Times New Roman,serif" font-size="14.00">Fecha: 2021/07/01</text>
<text text-anchor="middle" x="765.5" y="-22.8" font-family="Times New Roman,serif" font-size="14.00">Hora: 10</text>
<text text-anchor="middle" x="765.5" y="-7.8" font-family="Times New Roman,serif" font-size="14.00">Estado: Incumplido</text>
</g>
<!-- N1&#45;&gt;N2 -->
<g id="edge3" class="edge">
<title>N1&#45;&gt;N2</title>
<path fill="none" stroke="black" d="M639.41,-64C644.41,-64 649.44,-64 654.45,-64"/>
<polygon fill="black" stroke="black" points="639.16,-60.5 629.16,-64 639.16,-67.5 639.16,-60.5"/>
<polygon fill="black" stroke="black" points="654.68,-67.5 664.68,-64 654.68,-60.5 654.68,-67.5"/>
</g>
<!-- N3 -->
<g id="node4" class="node">
<title>N3</title>
<polygon fill="none" stroke="black" points="1232,-128 902,-128 902,0 1232,0 1232,-128"/>
<text text-anchor="middle" x="1067" y="-112.8" font-family="Times New Roman,serif" font-size="14.00">Carnet:201704186</text>
<text text-anchor="middle" x="1067" y="-97.8" font-family="Times New Roman,serif" font-size="14.00">ID: 4</text>
<text text-anchor="middle" x="1067" y="-82.8" font-family="Times New Roman,serif" font-size="14.00">Nombre: Tarea de Estadística</text>
<text text-anchor="middle" x="1067" y="-67.8" font-family="Times New Roman,serif" font-size="14.00">Descripcion: Realizar la tarea del curso de Estadística 1.</text>
<text text-anchor="middle" x="1067" y="-52.8" font-family="Times New Roman,serif" font-size="14.00">Materia: Estadística 1</text>
<text text-anchor="middle" x="1067" y="-37.8" font-family="Times New Roman,serif" font-size="14.00">Fecha: 2021/07/14</text>
<text text-anchor="middle" x="1067" y="-22.8" font-family="Times New Roman,serif" font-size="14.00">Hora: 10</text>
<text text-anchor="middle" x="1067" y="-7.8" font-family="Times New Roman,serif" font-size="14.00">Estado: Cumplido</text>
</g>
<!-- N2&#45;&gt;N3 -->
<g id="edge5" class="edge">
<title>N2&#45;&gt;N3</title>
<path fill="none" stroke="black" d="M876.37,-64C881.48,-64 886.66,-64 891.89,-64"/>
<polygon fill="black" stroke="black" points="876.23,-60.5 866.23,-64 876.23,-67.5 876.23,-60.5"/>
<polygon fill="black" stroke="black" points="891.97,-67.5 901.97,-64 891.97,-60.5 891.97,-67.5"/>
</g>
<!-- N4 -->
<g id="node5" class="node">
<title>N4</title>
<polygon fill="none" stroke="black" points="1571,-128 1268,-128 1268,0 1571,0 1571,-128"/>
<text text-anchor="middle" x="1419.5" y="-112.8" font-family="Times New Roman,serif" font-size="14.00">Carnet:123</text>
<text text-anchor="middle" x="1419.5" y="-97.8" font-family="Times New Roman,serif" font-size="14.00">ID: 3</text>
<text text-anchor="middle" x="1419.5" y="-82.8" font-family="Times New Roman,serif" font-size="14.00">Nombre: Tarea de Fisica</text>
<text text-anchor="middle" x="1419.5" y="-67.8" font-family="Times New Roman,serif" font-size="14.00">Descripcion: Realizar la tarea del curso de Física 1.</text>
<text text-anchor="middle" x="1419.5" y="-52.8" font-family="Times New Roman,serif" font-size="14.00">Materia: Física 1</text>
<text text-anchor="middle" x="1419.5" y="-37.8" font-family="Times New Roman,serif" font-size="14.00">Fecha: 2021/07/0111</text>
<text text-anchor="middle" x="1419.5" y="-22.8" font-family="Times New Roman,serif" font-size="14.00">Hora: 11</text>
<text text-anchor="middle" x="1419.5" y="-7.8" font-family="Times New Roman,serif" font-size="14.00">Estado: Pendiente</text>
</g>
<!-- N3&#45;&gt;N4 -->
<g id="edge7" class="edge">
<title>N3&#45;&gt;N4</title>
<path fill="none" stroke="black" d="M1242.29,-64C1247.53,-64 1252.76,-64 1257.98,-64"/>
<polygon fill="black" stroke="black" points="1242.22,-60.5 1232.22,-64 1242.22,-67.5 1242.22,-60.5"/>
<polygon fill="black" stroke="black" points="1257.98,-67.5 1267.98,-64 1257.98,-60.5 1257.98,-67.5"/>
</g>
<!-- N5 -->
<g id="node6" class="node">
<title>N5</title>
<polygon fill="none" stroke="black" points="1976,-128 1607,-128 1607,0 1976,0 1976,-128"/>
<text text-anchor="middle" x="1791.5" y="-112.8" font-family="Times New Roman,serif" font-size="14.00">Carnet:201700886</text>
<text text-anchor="middle" x="1791.5" y="-97.8" font-family="Times New Roman,serif" font-size="14.00">ID: 5</text>
<text text-anchor="middle" x="1791.5" y="-82.8" font-family="Times New Roman,serif" font-size="14.00">Nombre: Codificar en C++</text>
<text text-anchor="middle" x="1791.5" y="-67.8" font-family="Times New Roman,serif" font-size="14.00">Descripcion: Realizar la tarea del curso de Estructuras de datos</text>
<text text-anchor="middle" x="1791.5" y="-52.8" font-family="Times New Roman,serif" font-size="14.00">Materia: Estructuras de Datos</text>
<text text-anchor="middle" x="1791.5" y="-37.8" font-family="Times New Roman,serif" font-size="14.00">Fecha: 2021/07/14</text>
<text text-anchor="middle" x="1791.5" y="-22.8" font-family="Times New Roman,serif" font-size="14.00">Hora: 16</text>
<text text-anchor="middle" x="1791.5" y="-7.8" font-family="Times New Roman,serif" font-size="14.00">Estado: Pendiente</text>
</g>
<!-- N4&#45;&gt;N5 -->
<g id="edge9" class="edge">
<title>N4&#45;&gt;N5</title>
<path fill="none" stroke="black" d="M1581.45,-64C1586.42,-64 1591.42,-64 1596.43,-64"/>
<polygon fill="black" stroke="black" points="1581.26,-60.5 1571.26,-64 1581.26,-67.5 1581.26,-60.5"/>
<polygon fill="black" stroke="black" points="1596.72,-67.5 1606.72,-64 1596.72,-60.5 1596.72,-67.5"/>
</g>
<!-- N6 -->
<g id="node7" class="node">
<title>N6</title>
<polygon fill="none" stroke="black" points="2329,-128 2012,-128 2012,0 2329,0 2329,-128"/>
<text text-anchor="middle" x="2170.5" y="-112.8" font-family="Times New Roman,serif" font-size="14.00">Carnet:201901425</text>
<text text-anchor="middle" x="2170.5" y="-97.8" font-family="Times New Roman,serif" font-size="14.00">ID: 6</text>
<text text-anchor="middle" x="2170.5" y="-82.8" font-family="Times New Roman,serif" font-size="14.00">Nombre: Tarea de Lógica</text>
<text text-anchor="middle" x="2170.5" y="-67.8" font-family="Times New Roman,serif" font-size="14.00">Descripcion: Realizar el resumen del curso de Lógica.</text>
<text text-anchor="middle" x="2170.5" y="-52.8" font-family="Times New Roman,serif" font-size="14.00">Materia: Lógica</text>
<text text-anchor="middle" x="2170.5" y="-37.8" font-family="Times New Roman,serif" font-size="14.00">Fecha: 2021/10/04</text>
<text text-anchor="middle" x="2170.5" y="-22.8" font-family="Times New Roman,serif" font-size="14.00">Hora: 9</text>
<text text-anchor="middle" x="2170.5" y="-7.8" font-family="Times New Roman,serif" font-size="14.00">Estado: Pendiente</text>
</g>
<!-- N5&#45;&gt;N6 -->
<g id="edge11" class="edge">
<title>N5&#45;&gt;N6</title>
<path fill="none" stroke="black" d="M1986.14,-64C1991.39,-64 1996.64,-64 2001.86,-64"/>
<polygon fill="black" stroke="black" points="1986.03,-60.5 1976.03,-64 1986.03,-67.5 1986.03,-60.5"/>
<polygon fill="black" stroke="black" points="2001.87,-67.5 2011.87,-64 2001.87,-60.5 2001.87,-67.5"/>
</g>
<!-- N7 -->
<g id="node8" class="node">
<title>N7</title>
<polygon fill="none" stroke="black" points="2668,-128 2365,-128 2365,0 2668,0 2668,-128"/>
<text text-anchor="middle" x="2516.5" y="-112.8" font-family="Times New Roman,serif" font-size="14.00">Carnet:201704186</text>
<text text-anchor="middle" x="2516.5" y="-97.8" font-family="Times New Roman,serif" font-size="14.00">ID: 7</text>
<text text-anchor="middle" x="2516.5" y="-82.8" font-family="Times New Roman,serif" font-size="14.00">Nombre: Tarea 2 de Física 3</text>
<text text-anchor="middle" x="2516.5" y="-67.8" font-family="Times New Roman,serif" font-size="14.00">Descripcion: Realizar la tarea del curso de Física 3.</text>
<text text-anchor="middle" x="2516.5" y="-52.8" font-family="Times New Roman,serif" font-size="14.00">Materia: FÍsica 3</text>
<text text-anchor="middle" x="2516.5" y="-37.8" font-family="Times New Roman,serif" font-size="14.00">Fecha: 202145/10/04</text>
<text text-anchor="middle" x="2516.5" y="-22.8" font-family="Times New Roman,serif" font-size="14.00">Hora: 11</text>
<text text-anchor="middle" x="2516.5" y="-7.8" font-family="Times New Roman,serif" font-size="14.00">Estado: Pendiente</text>
</g>
<!-- N6&#45;&gt;N7 -->
<g id="edge13" class="edge">
<title>N6&#45;&gt;N7</title>
<path fill="none" stroke="black" d="M2339.24,-64C2344.48,-64 2349.72,-64 2354.96,-64"/>
<polygon fill="black" stroke="black" points="2339.15,-60.5 2329.15,-64 2339.15,-67.5 2339.15,-60.5"/>
<polygon fill="black" stroke="black" points="2355,-67.5 2365,-64 2355,-60.5 2355,-67.5"/>
</g>
<!-- N8 -->
<g id="node9" class="node">
<title>N8</title>
<polygon fill="none" stroke="black" points="3038,-128 2704,-128 2704,0 3038,0 3038,-128"/>
<text text-anchor="middle" x="2871" y="-112.8" font-family="Times New Roman,serif" font-size="14.00">Carnet:201700886</text>
<text text-anchor="middle" x="2871" y="-97.8" font-family="Times New Roman,serif" font-size="14.00">ID: 9</text>
<text text-anchor="middle" x="2871" y="-82.8" font-family="Times New Roman,serif" font-size="14.00">Nombre: Proyecto de Lenguajes</text>
<text text-anchor="middle" x="2871" y="-67.8" font-family="Times New Roman,serif" font-size="14.00">Descripcion: Realizar el proyecto del curso de Lenguajes</text>
<text text-anchor="middle" x="2871" y="-52.8" font-family="Times New Roman,serif" font-size="14.00">Materia: Lenguajes Formales y de Programación</text>
<text text-anchor="middle" x="2871" y="-37.8" font-family="Times New Roman,serif" font-size="14.00">Fecha: 2021/10/21</text>
<text text-anchor="middle" x="2871" y="-22.8" font-family="Times New Roman,serif" font-size="14.00">Hora: 13</text>
<text text-anchor="middle" x="2871" y="-7.8" font-family="Times New Roman,serif" font-size="14.00">Estado: Pendiente</text>
</g>
<!-- N7&#45;&gt;N8 -->
<g id="edge15" class="edge">
<title>N7&#45;&gt;N8</title>
<path fill="none" stroke="black" d="M2678.07,-64C2683.31,-64 2688.56,-64 2693.82,-64"/>
<polygon fill="black" stroke="black" points="2678.01,-60.5 2668.01,-64 2678.01,-67.5 2678.01,-60.5"/>
<polygon fill="black" stroke="black" points="2693.92,-67.5 2703.92,-64 2693.92,-60.5 2693.92,-67.5"/>
</g>
<!-- N9 -->
<g id="node10" class="node">
<title>N9</title>
<polygon fill="none" stroke="black" points="3426,-128 3074,-128 3074,0 3426,0 3426,-128"/>
<text text-anchor="middle" x="3250" y="-112.8" font-family="Times New Roman,serif" font-size="14.00">Carnet:201700703</text>
<text text-anchor="middle" x="3250" y="-97.8" font-family="Times New Roman,serif" font-size="14.00">ID: 8</text>
<text text-anchor="middle" x="3250" y="-82.8" font-family="Times New Roman,serif" font-size="14.00">Nombre: Encuesta de Estadística</text>
<text text-anchor="middle" x="3250" y="-67.8" font-family="Times New Roman,serif" font-size="14.00">Descripcion: Realizar la encuesta del curso de Estadística 1.</text>
<text text-anchor="middle" x="3250" y="-52.8" font-family="Times New Roman,serif" font-size="14.00">Materia: Estadística 1</text>
<text text-anchor="middle" x="3250" y="-37.8" font-family="Times New Roman,serif" font-size="14.00">Fecha: 2021/10/21</text>
<text text-anchor="middle" x="3250" y="-22.8" font-family="Times New Roman,serif" font-size="14.00">Hora: 14</text>
<text text-anchor="middle" x="3250" y="-7.8" font-family="Times New Roman,serif" font-size="14.00">Estado: Pendiente</text>
</g>
<!-- N8&#45;&gt;N9 -->
<g id="edge17" class="edge">
<title>N8&#45;&gt;N9</title>
<path fill="none" stroke="black" d="M3048.2,-64C3053.41,-64 3058.63,-64 3063.85,-64"/>
<polygon fill="black" stroke="black" points="3048.18,-60.5 3038.18,-64 3048.18,-67.5 3048.18,-60.5"/>
<polygon fill="black" stroke="black" points="3063.88,-67.5 3073.88,-64 3063.88,-60.5 3063.88,-67.5"/>
</g>
<!-- N10 -->
<g id="node11" class="node">
<title>N10</title>
<ellipse fill="none" stroke="black" cx="3489" cy="-64" rx="27" ry="18"/>
<text text-anchor="middle" x="3489" y="-60.3" font-family="Times New Roman,serif" font-size="14.00">N10</text>
</g>
<!-- N9&#45;&gt;N10 -->
<g id="edge19" class="edge">
<title>N9&#45;&gt;N10</title>
<path fill="none" stroke="black" d="M3426.04,-64C3435.24,-64 3443.85,-64 3451.55,-64"/>
<polygon fill="black" stroke="black" points="3451.8,-67.5 3461.8,-64 3451.8,-60.5 3451.8,-67.5"/>
</g>
</g>
</svg>
