<?xml version="1.0" encoding="UTF-8" standalone="no"?>
<!DOCTYPE svg PUBLIC "-//W3C//DTD SVG 1.1//EN"
 "http://www.w3.org/Graphics/SVG/1.1/DTD/svg11.dtd">
<!-- Generated by graphviz version 2.48.0 (20210717.1556)
 -->
<!-- Title: cola Pages: 1 -->
<svg width="2106pt" height="61pt"
 viewBox="0.00 0.00 2106.00 61.00" xmlns="http://www.w3.org/2000/svg" xmlns:xlink="http://www.w3.org/1999/xlink">
<g id="graph0" class="graph" transform="scale(1 1) rotate(0) translate(4 57)">
<title>cola</title>
<polygon fill="white" stroke="transparent" points="-4,4 -4,-57 2102,-57 2102,4 -4,4"/>
<!-- N0 -->
<g id="node1" class="node">
<title>N0</title>
<polygon fill="none" stroke="black" points="323,-53 0,-53 0,0 323,0 323,-53"/>
<text text-anchor="middle" x="161.5" y="-37.8" font-family="Times New Roman,serif" font-size="14.00">id:5</text>
<text text-anchor="middle" x="161.5" y="-22.8" font-family="Times New Roman,serif" font-size="14.00">Tipo: Tarea</text>
<text text-anchor="middle" x="161.5" y="-7.8" font-family="Times New Roman,serif" font-size="14.00">Descripcion: Carnet no existe dentro de los estudiantes</text>
</g>
<!-- N1 -->
<g id="node2" class="node">
<title>N1</title>
<polygon fill="none" stroke="black" points="682,-53 359,-53 359,0 682,0 682,-53"/>
<text text-anchor="middle" x="520.5" y="-37.8" font-family="Times New Roman,serif" font-size="14.00">id:4</text>
<text text-anchor="middle" x="520.5" y="-22.8" font-family="Times New Roman,serif" font-size="14.00">Tipo: Tarea</text>
<text text-anchor="middle" x="520.5" y="-7.8" font-family="Times New Roman,serif" font-size="14.00">Descripcion: Carnet no existe dentro de los estudiantes</text>
</g>
<!-- N0&#45;&gt;N1 -->
<g id="edge1" class="edge">
<title>N0&#45;&gt;N1</title>
<path fill="none" stroke="black" d="M323.25,-26.5C331.76,-26.5 340.33,-26.5 348.87,-26.5"/>
<polygon fill="black" stroke="black" points="348.88,-30 358.88,-26.5 348.88,-23 348.88,-30"/>
</g>
<!-- N2 -->
<g id="node3" class="node">
<title>N2</title>
<polygon fill="none" stroke="black" points="1002,-53 718,-53 718,0 1002,0 1002,-53"/>
<text text-anchor="middle" x="860" y="-37.8" font-family="Times New Roman,serif" font-size="14.00">id:3</text>
<text text-anchor="middle" x="860" y="-22.8" font-family="Times New Roman,serif" font-size="14.00">Tipo: Tarea</text>
<text text-anchor="middle" x="860" y="-7.8" font-family="Times New Roman,serif" font-size="14.00">Descripcion: Fecha no tiene el formato correcto</text>
</g>
<!-- N1&#45;&gt;N2 -->
<g id="edge2" class="edge">
<title>N1&#45;&gt;N2</title>
<path fill="none" stroke="black" d="M682.34,-26.5C690.79,-26.5 699.27,-26.5 707.68,-26.5"/>
<polygon fill="black" stroke="black" points="707.92,-30 717.92,-26.5 707.92,-23 707.92,-30"/>
</g>
<!-- N3 -->
<g id="node4" class="node">
<title>N3</title>
<polygon fill="none" stroke="black" points="1332,-53 1038,-53 1038,0 1332,0 1332,-53"/>
<text text-anchor="middle" x="1185" y="-37.8" font-family="Times New Roman,serif" font-size="14.00">id:2</text>
<text text-anchor="middle" x="1185" y="-22.8" font-family="Times New Roman,serif" font-size="14.00">Tipo: Estudiante</text>
<text text-anchor="middle" x="1185" y="-7.8" font-family="Times New Roman,serif" font-size="14.00">Descripcion: Correo no tiene un formato correcto</text>
</g>
<!-- N2&#45;&gt;N3 -->
<g id="edge3" class="edge">
<title>N2&#45;&gt;N3</title>
<path fill="none" stroke="black" d="M1002.2,-26.5C1010.68,-26.5 1019.24,-26.5 1027.77,-26.5"/>
<polygon fill="black" stroke="black" points="1027.78,-30 1037.78,-26.5 1027.78,-23 1027.78,-30"/>
</g>
<!-- N4 -->
<g id="node5" class="node">
<title>N4</title>
<polygon fill="none" stroke="black" points="1708,-53 1368,-53 1368,0 1708,0 1708,-53"/>
<text text-anchor="middle" x="1538" y="-37.8" font-family="Times New Roman,serif" font-size="14.00">id:1</text>
<text text-anchor="middle" x="1538" y="-22.8" font-family="Times New Roman,serif" font-size="14.00">Tipo: Estudiante</text>
<text text-anchor="middle" x="1538" y="-7.8" font-family="Times New Roman,serif" font-size="14.00">Descripcion: DPI no tiene la cantidad de digitos correctos</text>
</g>
<!-- N3&#45;&gt;N4 -->
<g id="edge4" class="edge">
<title>N3&#45;&gt;N4</title>
<path fill="none" stroke="black" d="M1332.06,-26.5C1340.58,-26.5 1349.2,-26.5 1357.83,-26.5"/>
<polygon fill="black" stroke="black" points="1357.96,-30 1367.96,-26.5 1357.96,-23 1357.96,-30"/>
</g>
<!-- N5 -->
<g id="node6" class="node">
<title>N5</title>
<polygon fill="none" stroke="black" points="2098,-53 1744,-53 1744,0 2098,0 2098,-53"/>
<text text-anchor="middle" x="1921" y="-37.8" font-family="Times New Roman,serif" font-size="14.00">id:0</text>
<text text-anchor="middle" x="1921" y="-22.8" font-family="Times New Roman,serif" font-size="14.00">Tipo: Estudiante</text>
<text text-anchor="middle" x="1921" y="-7.8" font-family="Times New Roman,serif" font-size="14.00">Descripcion: Carnet no tiene la cantidad de digitos correctos</text>
</g>
<!-- N4&#45;&gt;N5 -->
<g id="edge5" class="edge">
<title>N4&#45;&gt;N5</title>
<path fill="none" stroke="black" d="M1708.05,-26.5C1716.56,-26.5 1725.12,-26.5 1733.68,-26.5"/>
<polygon fill="black" stroke="black" points="1733.71,-30 1743.71,-26.5 1733.71,-23 1733.71,-30"/>
</g>
</g>
</svg>
