<?xml version="1.0" encoding="UTF-8" standalone="no"?>
<!DOCTYPE svg PUBLIC "-//W3C//DTD SVG 1.1//EN"
 "http://www.w3.org/Graphics/SVG/1.1/DTD/svg11.dtd">
<!-- Generated by graphviz version 2.48.0 (20210717.1556)
 -->
<!-- Title: G Pages: 1 -->
<svg width="422pt" height="44pt"
 viewBox="0.00 0.00 422.00 44.00" xmlns="http://www.w3.org/2000/svg" xmlns:xlink="http://www.w3.org/1999/xlink">
<g id="graph0" class="graph" transform="scale(1 1) rotate(0) translate(4 40)">
<title>G</title>
<polygon fill="white" stroke="transparent" points="-4,4 -4,-40 418,-40 418,4 -4,4"/>
<!-- 5 -->
<g id="node1" class="node">
<title>5</title>
<ellipse fill="none" stroke="black" cx="27" cy="-18" rx="27" ry="18"/>
<text text-anchor="middle" x="27" y="-14.3" font-family="Times New Roman,serif" font-size="14.00">5</text>
</g>
<!-- 6 -->
<g id="node2" class="node">
<title>6</title>
<ellipse fill="none" stroke="black" cx="117" cy="-18" rx="27" ry="18"/>
<text text-anchor="middle" x="117" y="-14.3" font-family="Times New Roman,serif" font-size="14.00">6</text>
</g>
<!-- 5&#45;&gt;6 -->
<g id="edge1" class="edge">
<title>5&#45;&gt;6</title>
<path fill="none" stroke="black" d="M64.52,-18C69.58,-18 74.78,-18 79.83,-18"/>
<polygon fill="black" stroke="black" points="64.4,-14.5 54.4,-18 64.4,-21.5 64.4,-14.5"/>
<polygon fill="black" stroke="black" points="79.92,-21.5 89.92,-18 79.92,-14.5 79.92,-21.5"/>
</g>
<!-- 8 -->
<g id="node3" class="node">
<title>8</title>
<ellipse fill="none" stroke="black" cx="207" cy="-18" rx="27" ry="18"/>
<text text-anchor="middle" x="207" y="-14.3" font-family="Times New Roman,serif" font-size="14.00">8</text>
</g>
<!-- 6&#45;&gt;8 -->
<g id="edge2" class="edge">
<title>6&#45;&gt;8</title>
<path fill="none" stroke="black" d="M154.52,-18C159.58,-18 164.78,-18 169.83,-18"/>
<polygon fill="black" stroke="black" points="154.4,-14.5 144.4,-18 154.4,-21.5 154.4,-14.5"/>
<polygon fill="black" stroke="black" points="169.92,-21.5 179.92,-18 169.92,-14.5 169.92,-21.5"/>
</g>
<!-- 9 -->
<g id="node4" class="node">
<title>9</title>
<ellipse fill="none" stroke="black" cx="297" cy="-18" rx="27" ry="18"/>
<text text-anchor="middle" x="297" y="-14.3" font-family="Times New Roman,serif" font-size="14.00">9</text>
</g>
<!-- 8&#45;&gt;9 -->
<g id="edge3" class="edge">
<title>8&#45;&gt;9</title>
<path fill="none" stroke="black" d="M244.52,-18C249.58,-18 254.78,-18 259.83,-18"/>
<polygon fill="black" stroke="black" points="244.4,-14.5 234.4,-18 244.4,-21.5 244.4,-14.5"/>
<polygon fill="black" stroke="black" points="259.92,-21.5 269.92,-18 259.92,-14.5 259.92,-21.5"/>
</g>
<!-- 0 -->
<g id="node5" class="node">
<title>0</title>
<ellipse fill="none" stroke="black" cx="387" cy="-18" rx="27" ry="18"/>
<text text-anchor="middle" x="387" y="-14.3" font-family="Times New Roman,serif" font-size="14.00">0</text>
</g>
<!-- 9&#45;&gt;0 -->
<g id="edge4" class="edge">
<title>9&#45;&gt;0</title>
<path fill="none" stroke="black" d="M334.52,-18C339.58,-18 344.78,-18 349.83,-18"/>
<polygon fill="black" stroke="black" points="334.4,-14.5 324.4,-18 334.4,-21.5 334.4,-14.5"/>
<polygon fill="black" stroke="black" points="349.92,-21.5 359.92,-18 349.92,-14.5 349.92,-21.5"/>
</g>
</g>
</svg>
